<svg width="19" height="18" viewBox="0 0 19 18" fill="none" xmlns="http://www.w3.org/2000/svg">
<path d="M6.83668 7.91953C6.641 6.2373 6.41831 6 6.41831 5H10C10 5.5 9.54181 7.43366 9.5 8C9.44024 8.80954 9.28676 9.60089 9.46603 10.0991C9.60945 10.4976 10.5815 11.22 11.1393 11.5313C11.3624 11.6559 11.7054 11.7804 11.9759 11.7804C12.4539 11.7804 12.3942 11.7182 12.7527 11.7804C13.1113 11.8427 12.9918 12.5277 12.932 12.6522C12.8722 12.7768 12.3441 12.9013 12.1552 12.9013H10.4819C10.0993 12.9013 9.10748 12.7145 8.45014 12.9013C7.7928 13.0881 7.13547 12.9636 6.71716 12.9013C6.29885 12.8391 6.09215 11.8376 6.41837 11.1577C6.83668 10.2859 7.07571 9.97452 6.83668 7.91953Z" fill="#C4C4C4"/>
<rect x="8" width="2" height="2" fill="#EEEEEE"/>
<rect x="8" y="16" width="2" height="2" fill="#C4C4C4"/>
<rect y="10" width="2" height="2" transform="rotate(-90 0 10)" fill="#EEEEEE"/>
<rect x="16" y="10" width="2" height="2" transform="rotate(-90 16 10)" fill="#EEEEEE"/>
<rect width="2" height="2" fill="#EEEEEE"/>
<rect y="4" width="2" height="2" fill="#EEEEEE"/>
<rect y="12" width="2" height="2" fill="#EEEEEE"/>
<rect x="4" width="2" height="2" fill="#EEEEEE"/>
<rect x="12" width="2" height="2" fill="#EEEEEE"/>
<rect x="16" width="2" height="2" fill="#EEEEEE"/>
<rect x="18.0029" y="4.00098" width="2" height="2" transform="rotate(90.0243 18.0029 4.00098)" fill="#EEEEEE"/>
<rect x="18.001" y="12.001" width="2" height="2" transform="rotate(90.0243 18.001 12.001)" fill="#EEEEEE"/>
<rect x="18.001" y="16.001" width="2" height="2" transform="rotate(90.0243 18.001 16.001)" fill="#C4C4C4"/>
<rect x="14.001" y="16.001" width="2" height="2" transform="rotate(90.0243 14.001 16.001)" fill="#C4C4C4"/>
<rect x="6.00098" y="16.001" width="2" height="2" transform="rotate(90.0243 6.00098 16.001)" fill="#C4C4C4"/>
<rect x="2.00098" y="16.001" width="2" height="2" transform="rotate(90.0243 2.00098 16.001)" fill="#C4C4C4"/>
</svg>
