<svg width="89" height="93" viewBox="0 0 89 93" fill="none" xmlns="http://www.w3.org/2000/svg">
<rect x="0.5" y="0.5" width="88" height="92" rx="9.5" stroke="#C4C4C4"/>
<path d="M20 13C22.3704 19.1352 24.4866 34.7461 25.8563 46.0463C27.5295 59.8504 25.8563 61.9419 22.9281 67.7982C20.6446 72.3653 22.0915 79.0925 25.0197 79.5108C27.9478 79.9291 32.5492 80.7657 37.1506 79.5108C41.752 78.2559 48.6946 79.5108 51.373 79.5108C55.9744 79.5108 60.9941 79.5108 63.0856 79.5108C64.4084 79.5108 68.1053 78.6742 68.5236 77.8376C68.9419 77.001 69.7785 72.3996 67.2687 71.9813C64.7589 71.563 65.1772 71.9813 61.8307 71.9813C59.9377 71.9813 57.5361 71.1447 55.9744 70.3081C52.0702 68.2165 45.2657 63.3642 44.2618 60.687C43.0069 57.3405 43.8435 44.373 44.2618 38.935C44.5544 35.1307 45.3773 19.9718 45.935 13" stroke="#C4C4C4"/>
<path d="M62.875 59L54.5 59C54.2239 59 54 58.7761 54 58.5L54 49.5C54 49.2239 53.7761 49 53.5 49L50.2071 49C49.7617 49 49.5386 48.4614 49.8536 48.1464L58.6464 39.3536C58.8417 39.1583 59.1583 39.1583 59.3536 39.3536L68.1464 48.1464C68.4614 48.4614 68.2383 49 67.7929 49L63.875 49C63.5989 49 63.375 49.2239 63.375 49.5L63.375 58.5C63.375 58.7761 63.1511 59 62.875 59Z" stroke="#C4C4C4"/>
</svg>
