<svg width="89" height="93" viewBox="0 0 89 93" fill="none" xmlns="http://www.w3.org/2000/svg">
<rect x="0.5" y="0.5" width="88" height="92" rx="9.5" stroke="#C4C4C4"/>
<path d="M28 13C30.3704 19.1352 32.4866 34.7461 33.8563 46.0463C35.5295 59.8504 33.8563 61.9419 30.9281 67.7982C28.6446 72.3653 30.0915 79.0925 33.0197 79.5108C35.9478 79.9291 40.5492 80.7657 45.1506 79.5108C49.752 78.2559 56.6946 79.5108 59.373 79.5108C63.9744 79.5108 68.9941 79.5108 71.0856 79.5108C72.4084 79.5108 76.1053 78.6742 76.5236 77.8376C76.9419 77.001 77.7785 72.3996 75.2687 71.9813C72.7589 71.563 73.1772 71.9813 69.8307 71.9813C67.9377 71.9813 65.5361 71.1447 63.9744 70.3081C60.0702 68.2165 53.2657 63.3642 52.2618 60.687C51.0069 57.3405 51.8435 44.373 52.2618 38.935C52.5544 35.1307 53.3773 19.9718 53.935 13" stroke="#EEEEEE"/>
<rect x="3" y="48" width="83" height="1" fill="#C4C4C4"/>
<rect x="45" y="3" width="87" height="0.999996" transform="rotate(90 45 3)" fill="#C4C4C4"/>
</svg>
