<svg width="16" height="16" viewBox="0 0 16 16" fill="none" xmlns="http://www.w3.org/2000/svg">
<path d="M12.6667 2H3.33333C2.6 2 2 2.6 2 3.33333V12.6667C2 13.4 2.6 14 3.33333 14H12.6667C13.4 14 14 13.4 14 12.6667V3.33333C14 2.6 13.4 2 12.6667 2ZM8 8C6.89333 8 6 7.10667 6 6C6 4.89333 6.89333 4 8 4C9.10667 4 10 4.89333 10 6C10 7.10667 9.10667 8 8 8Z" fill="#C4C4C4"/>
<path d="M7.33334 5.66699H6.66667V6.33366H7.33334V5.66699Z" fill="#C4C4C4"/>
<path d="M8.33334 5.66699H7.66667V6.33366H8.33334V5.66699Z" fill="#C4C4C4"/>
<path d="M9.33334 5.66699H8.66667V6.33366H9.33334V5.66699Z" fill="#C4C4C4"/>
</svg>
