<svg width="16" height="16" viewBox="0 0 16 16" fill="none" xmlns="http://www.w3.org/2000/svg">
<path d="M14.2657 8.57139H14.0563C13.1253 8.57139 12.2165 8.27017 11.4705 7.71901L10.6376 8.55192C10.4544 8.73507 10.1575 8.73507 9.97431 8.55192C9.79116 8.36877 9.79116 8.07182 9.97431 7.88867L10.7412 7.12177L10.193 6.66549L9.31312 7.54533C9.12997 7.72848 8.83303 7.72848 8.64988 7.54533C8.46672 7.36218 8.46672 7.06523 8.64988 6.88208L9.469 6.06296L8.92072 5.60664L7.98866 6.53871C7.8055 6.72186 7.50856 6.72186 7.32541 6.53871C7.14225 6.35555 7.14226 6.05861 7.32541 5.87546L8.19678 5.00408L7.1315 4.11746C6.99738 4.0058 6.82738 3.94434 6.65284 3.94434C6.24028 3.94434 5.90466 4.27996 5.90466 4.69252V5.09986C5.90466 6.44286 4.81203 7.53548 3.46903 7.53548C2.52638 7.53548 1.65987 6.98342 1.26153 6.12905L1.14688 5.88317C1.04847 5.67211 0.834438 5.53571 0.601562 5.53571C0.269875 5.53571 0 5.80558 0 6.13736V10.1477H16C15.9161 9.26457 15.1704 8.57139 14.2657 8.57139Z" fill="#C4C4C4"/>
<path d="M0.180771 11.085C0.465927 11.6595 1.05862 12.0556 1.74237 12.0556H14.2656C14.9494 12.0556 15.5421 11.6596 15.8272 11.085H0.180771Z" fill="#C4C4C4"/>
</svg>
