<svg width="14" height="14" viewBox="0 0 14 14" fill="none" xmlns="http://www.w3.org/2000/svg">
<path d="M12.3333 2.99967H9.66668V1.66634C9.66668 0.933008 9.06668 0.333008 8.33334 0.333008H5.66668C4.93334 0.333008 4.33334 0.933008 4.33334 1.66634V2.99967H1.66668C0.933344 2.99967 0.333344 3.59967 0.333344 4.33301V12.333C0.333344 13.0663 0.933344 13.6663 1.66668 13.6663H12.3333C13.0667 13.6663 13.6667 13.0663 13.6667 12.333V4.33301C13.6667 3.59967 13.0667 2.99967 12.3333 2.99967ZM5.66668 1.66634H8.33334V2.99967H5.66668V1.66634ZM9.66668 8.99967H7.66668V10.9997H6.33334V8.99967H4.33334V7.66634H6.33334V5.66634H7.66668V7.66634H9.66668V8.99967Z" fill="#C4C4C4"/>
</svg>
