<svg id="Layer_1" data-name="Layer 1" xmlns="http://www.w3.org/2000/svg" viewBox="0 0 21 21">
  <path d="M14.82,4.58s0,0,0-.06l0-.06s0,0,0-.06l0-.06a.11.11,0,0,0,0,0,.52.52,0,0,0,0-.11V4l0-.06s0,0,0-.06l0-.06s0,0,0-.06l0-.07-.05-.06,0-.08a.93.93,0,0,1-.05-.1l0-.09s0-.07,0-.11a.43.43,0,0,1,0-.11.43.43,0,0,1,0-.11.5.5,0,0,0,0-.12.4.4,0,0,1,0-.11V2.58a.23.23,0,0,1,0-.11.35.35,0,0,1,0-.11l0-.11a1,1,0,0,0,0-.1l.06-.09A.21.21,0,0,1,14.77,2s0,0,.06-.06l.07-.06L15,1.79l.1-.06.1-.05.11,0,.12,0,.13,0h.25l.12,0,.12.06.11.09a.63.63,0,0,1,.11.12.56.56,0,0,1,.1.15l.09.18" transform="translate(-0.5 -0.5)" fill="none" stroke="#c4c4c4" stroke-linecap="round"/>
  <path d="M16.36,4.85l0-.06a.14.14,0,0,1,0-.06s0,0,0-.05a.14.14,0,0,1,0-.06V4.18a.13.13,0,0,0,0-.06s0,0,0-.06,0,0,0-.06a.15.15,0,0,0,0-.07.16.16,0,0,1,0-.06.16.16,0,0,1,0-.07.16.16,0,0,1,0-.07l0-.08a.32.32,0,0,0,0-.09s0-.06,0-.1a.28.28,0,0,0,0-.09.34.34,0,0,1,0-.1V3a.15.15,0,0,1,0-.09s0-.07,0-.1a.32.32,0,0,0,0-.09l0-.08a.3.3,0,0,0,0-.08l.05-.07.05,0,.05-.05.07,0,.08,0,.09,0,.09,0,.09,0h.2a.66.66,0,0,1,.2.06l.09.06.09.08.09.1.07.13a.59.59,0,0,1,.07.16" transform="translate(-0.5 -0.5)" fill="none" stroke="#c4c4c4" stroke-linecap="round"/>
  <path d="M17.67,5.19l0,0,0-.05,0,0s0,0,0,0V4.76s0,0,0,0l0,0s0,0,0,0l0-.05,0-.06,0,0,0,0-.06-.08,0-.08s0,0,0-.08l0-.09s0-.06,0-.09a.27.27,0,0,1,0-.09V3.61a.25.25,0,0,1,0-.08s0-.06,0-.09l0-.08,0-.07,0-.07,0-.07,0,0L17.67,3A.35.35,0,0,1,17.76,3l.1-.05.11,0,.12,0h.12a.28.28,0,0,1,.13,0l.12,0,.12,0,.11.08a.47.47,0,0,1,.1.1.57.57,0,0,1,.08.13,1.11,1.11,0,0,1,.07.16c0,.07,0,.13,0,.2a1.64,1.64,0,0,1,0,.23" transform="translate(-0.5 -0.5)" fill="none" stroke="#c4c4c4" stroke-linecap="round"/>
  <path d="M19.05,5.85s-.14-.52-.19-.66-.54-1.54.69-1.45.84,1.19.66,2,.42,1.29.56,1.72.61,1-.41,4.17-.49,4.64-.63,6.44-.92,3-3.22,3S13.79,19.4,14,17.82s.92-2.42.89-4.29-.4-2.42-1.78-3.87" transform="translate(-0.5 -0.5)" fill="none" stroke="#c4c4c4" stroke-linecap="round"/>
  <path d="M13.39,4.67a2.83,2.83,0,0,1,2,.15,2.2,2.2,0,0,1,1.23,1.79" transform="translate(-0.5 -0.5)" fill="none" stroke="#c4c4c4" stroke-linecap="round"/>
  <path d="M14.75,1.84a1.22,1.22,0,0,0-.37-.53,1.42,1.42,0,0,0-.63-.3,1.48,1.48,0,0,0-1.33,2c.35,1.46.31,1.36,0,2s-1.15,2.31-.21,3.76,2.68,1.47,4.14,1.6" transform="translate(-0.5 -0.5)" fill="none" stroke="#c4c4c4" stroke-linecap="round"/>
  <path d="M7.18,4.58s0,0,0-.06l0-.06s0,0,0-.06l0-.06a.11.11,0,0,1,0,0,.52.52,0,0,1,0-.11V4l0-.06s0,0,0-.06l0-.06s0,0,0-.06l0-.07,0-.06,0-.08,0-.1,0-.09s0-.07,0-.11a.43.43,0,0,0,0-.11.43.43,0,0,0,0-.11.5.5,0,0,1,0-.12.4.4,0,0,0,0-.11V2.58a.23.23,0,0,0,0-.11.35.35,0,0,0,0-.11l0-.11a1,1,0,0,1,0-.1l-.06-.09A.21.21,0,0,0,7.23,2l-.06-.06L7.1,1.86,7,1.79l-.1-.06-.1-.05-.11,0-.12,0-.13,0H6.2l-.12,0L6,1.69l-.11.09a.63.63,0,0,0-.11.12.56.56,0,0,0-.1.15l-.09.18" transform="translate(-0.5 -0.5)" fill="none" stroke="#c4c4c4" stroke-linecap="round"/>
  <path d="M5.64,4.85l0-.06a.14.14,0,0,0,0-.06s0,0,0-.05a.14.14,0,0,0,0-.06V4.18a.13.13,0,0,1,0-.06s0,0,0-.06,0,0,0-.06a.15.15,0,0,1,0-.07l0-.06a.16.16,0,0,0,0-.07.16.16,0,0,0,0-.07l0-.08a.32.32,0,0,1,0-.09s0-.06,0-.1a.28.28,0,0,1,0-.09.34.34,0,0,0,0-.1V3a.15.15,0,0,0,0-.09s0-.07,0-.1a.32.32,0,0,1,0-.09l0-.08a.3.3,0,0,1,0-.08l-.05-.07,0,0,0-.05-.07,0-.08,0-.09,0a.16.16,0,0,0-.09,0l-.09,0h-.2a.66.66,0,0,0-.2.06l-.09.06-.09.08-.09.1-.07.13a.59.59,0,0,0-.07.16" transform="translate(-0.5 -0.5)" fill="none" stroke="#c4c4c4" stroke-linecap="round"/>
  <path d="M4.33,5.19l0,0,0-.05,0,0s0,0,0,0V4.76s0,0,0,0l0,0s0,0,0,0l0-.05,0-.06,0,0,0,0,.06-.08,0-.08s0,0,0-.08l0-.09s0-.06,0-.09a.27.27,0,0,0,0-.09V3.61a.25.25,0,0,0,0-.08s0-.06,0-.09l0-.08,0-.07,0-.07,0-.07,0,0L4.33,3A.35.35,0,0,0,4.24,3l-.1-.05L4,2.85l-.12,0H3.79a.28.28,0,0,0-.13,0l-.12,0-.12,0L3.31,3l-.1.1a.57.57,0,0,0-.08.13,1.11,1.11,0,0,0-.07.16L3,3.55a1.64,1.64,0,0,0,0,.23" transform="translate(-0.5 -0.5)" fill="none" stroke="#c4c4c4" stroke-linecap="round"/>
  <path d="M3,5.85s.14-.52.19-.66.54-1.54-.69-1.45-.84,1.19-.66,2S1.37,7,1.23,7.41s-.61,1,.41,4.17.49,4.64.63,6.44.92,3,3.22,3,2.72-1.6,2.56-3.18-.92-2.42-.89-4.29.4-2.42,1.78-3.87" transform="translate(-0.5 -0.5)" fill="none" stroke="#c4c4c4" stroke-linecap="round"/>
  <path d="M8.61,4.67a2.83,2.83,0,0,0-2,.15A2.2,2.2,0,0,0,5.34,6.61" transform="translate(-0.5 -0.5)" fill="none" stroke="#c4c4c4" stroke-linecap="round"/>
  <path d="M7.25,1.84a1.22,1.22,0,0,1,.37-.53A1.42,1.42,0,0,1,8.25,1,1.48,1.48,0,0,1,9.58,3c-.35,1.46-.31,1.36,0,2s1.15,2.31.21,3.76-2.68,1.47-4.14,1.6" transform="translate(-0.5 -0.5)" fill="none" stroke="#c4c4c4" stroke-linecap="round"/>
</svg>
