<svg width="53" height="51" viewBox="0 0 53 51" fill="none" xmlns="http://www.w3.org/2000/svg">
<rect width="53" height="51" rx="5" fill="#F8F8F8"/>
<path d="M21.7486 11.4302C21.7486 10.2637 21.2745 9 19.8523 9C17.4818 9 18.43 9.91085 17.9559 9.97207C17.2476 10.0635 16.5336 9.97207 16.0595 9.97207C15.6803 9.97207 15.2694 10.6201 15.1114 10.9441H14.1632C13.7839 10.9441 13.373 11.5922 13.215 11.9162H11.7927C11.4135 11.9162 11.0026 12.8883 10.8445 13.3743C10.5285 13.3743 9.89636 12.8882 8.94818 13.8603C8.19862 14.6289 8.94818 16.7765 8.94818 17.2626C8.94818 17.6514 8.79015 18.3967 8.47409 18.7207C8.31606 19.3687 8 20.762 8 21.1509C8 21.6369 8.94818 26.9833 9.42227 28.4414C9.89636 29.8995 9.89636 32.3296 9.89636 35.2458C9.89636 37.2285 9.89636 39.6202 10.8445 40.5922C12.2668 42.0503 15 43 17.5 42C20.699 40.7204 19.5706 36.8097 17.9559 31.8436C17.4818 30.3855 17.4818 27.9553 18.43 26.0112C18.9041 25.0391 22.1026 22.9783 22.6968 21.1509C23.8665 17.5533 21.2745 16.2905 21.2745 14.3464C21.2745 12.8883 21.7486 12.8883 21.7486 11.4302Z" fill="#5D55FD"/>
<path d="M18.0004 14.6775C18.0004 14.6421 17.9653 14.6067 17.9521 14.5713C17.9356 14.5379 17.921 14.5038 17.9083 14.4691C17.8925 14.4372 17.8793 14.4043 17.8688 14.3708C17.8565 14.3399 17.8463 14.3084 17.8381 14.2764C17.8286 14.2454 17.8213 14.2139 17.8161 14.182C17.8002 14.1228 17.7928 14.0621 17.7942 14.0012C17.7898 13.9712 17.7898 13.9408 17.7942 13.9107C17.792 13.8793 17.792 13.8478 17.7942 13.8164C17.7924 13.7863 17.7924 13.7561 17.7942 13.7259L17.8205 13.6316C17.8296 13.5981 17.8413 13.5653 17.8556 13.5333C17.8729 13.5002 17.8875 13.466 17.8995 13.4311C17.8995 13.3996 17.9346 13.3642 17.9565 13.3288L18.0223 13.2187C18.0464 13.1795 18.0728 13.1415 18.1013 13.1047L18.189 12.9671C18.2173 12.9174 18.2422 12.8662 18.2636 12.8138L18.3294 12.6486C18.3294 12.5896 18.3689 12.5346 18.3865 12.4717C18.404 12.4088 18.4172 12.3498 18.426 12.2869C18.4347 12.224 18.4523 12.1611 18.461 12.0982C18.4698 12.0353 18.4611 11.9684 18.483 11.9016C18.5049 11.8347 18.483 11.7679 18.483 11.705C18.483 11.6421 18.483 11.5713 18.483 11.5084C18.483 11.4455 18.483 11.3747 18.483 11.3118C18.483 11.2489 18.483 11.182 18.4567 11.1191C18.4303 11.0562 18.4303 10.9933 18.4128 10.9343C18.3952 10.8754 18.3733 10.8164 18.3558 10.7574C18.3355 10.6995 18.3105 10.643 18.2812 10.5883C18.2554 10.5357 18.2261 10.4845 18.1934 10.435C18.1639 10.3868 18.1302 10.3408 18.0925 10.2974C18.0627 10.2605 18.0289 10.2262 17.9916 10.1952C17.9528 10.1578 17.9118 10.1224 17.8688 10.089L17.724 9.98284L17.5617 9.8806L17.3862 9.79017L17.1975 9.71547C17.1318 9.6917 17.0644 9.67199 16.9957 9.65649C16.9294 9.64055 16.862 9.62873 16.7939 9.62111C16.7238 9.61718 16.6534 9.61718 16.5833 9.62111C16.5138 9.62162 16.4445 9.62954 16.3771 9.6447C16.3063 9.65973 16.2372 9.68079 16.1709 9.70761C16.1013 9.73547 16.0352 9.76973 15.9735 9.80983C15.9042 9.85283 15.8396 9.90153 15.7804 9.95531C15.7168 10.0181 15.6568 10.0837 15.6006 10.1519C15.5397 10.2335 15.4854 10.3189 15.4382 10.4075C15.3814 10.5082 15.3316 10.6119 15.2891 10.7181" stroke="#3E35FF" stroke-linecap="round"/>
<path d="M15.4294 15.1295L15.3899 15.0351C15.3802 15.0031 15.3685 14.9716 15.3549 14.9408C15.3549 14.9054 15.3329 14.8739 15.3241 14.8425C15.3119 14.8089 15.3016 14.7748 15.2934 14.7403L15.2671 14.638C15.2671 14.6026 15.2671 14.5712 15.2671 14.5358V14.4296C15.2649 14.3943 15.2649 14.3588 15.2671 14.3235V14.2173C15.2671 14.1819 15.2671 14.1466 15.2671 14.1112V14.005C15.2671 13.9696 15.2671 13.9342 15.289 13.9028C15.2972 13.8669 15.3075 13.8315 15.3197 13.7966C15.3288 13.7619 15.3406 13.7277 15.3549 13.6944C15.3549 13.659 15.3856 13.6236 15.4031 13.5922C15.4207 13.5607 15.4382 13.5253 15.4601 13.4899C15.4821 13.4545 15.504 13.4152 15.5259 13.372C15.5479 13.3287 15.5654 13.2894 15.583 13.2462L15.6356 13.1046C15.6356 13.0574 15.662 13.0063 15.6795 12.9552C15.6971 12.9041 15.7014 12.853 15.7146 12.7979C15.7278 12.7429 15.7146 12.6918 15.7365 12.6367C15.7585 12.5817 15.7365 12.5266 15.7365 12.4716C15.7365 12.4165 15.7365 12.3576 15.7365 12.3025V12.1374V11.9683C15.7365 11.9133 15.7365 11.8622 15.7102 11.8071C15.6839 11.7521 15.7102 11.7009 15.6795 11.6498C15.6488 11.5987 15.6532 11.5476 15.6356 11.5004C15.6181 11.4532 15.6005 11.4061 15.5786 11.3589C15.5567 11.3117 15.5347 11.2724 15.5128 11.2291C15.4909 11.1859 15.4645 11.1505 15.4382 11.1112L15.3592 11.0247L15.2627 10.9382L15.1443 10.8556L15.017 10.7809L14.8723 10.7141C14.8244 10.693 14.7744 10.6759 14.7231 10.6629L14.5651 10.6236C14.5111 10.62 14.4568 10.62 14.4028 10.6236C14.3474 10.6176 14.2915 10.6176 14.2361 10.6236C14.1205 10.6352 14.0087 10.6673 13.907 10.718C13.851 10.7462 13.7982 10.7791 13.7491 10.8163C13.6951 10.8568 13.6452 10.9016 13.5999 10.95C13.5479 11.005 13.4995 11.0628 13.4552 11.123C13.4113 11.1937 13.3674 11.2684 13.3279 11.3431C13.2885 11.4179 13.249 11.5161 13.2139 11.6066" stroke="#3E35FF" stroke-linecap="round"/>
<path d="M13.2444 15.7113C13.2324 15.684 13.2177 15.6577 13.2005 15.6327L13.1654 15.5501L13.1391 15.4675C13.1297 15.4418 13.1224 15.4155 13.1171 15.3889C13.115 15.3614 13.115 15.3338 13.1171 15.3063C13.1171 15.2788 13.1171 15.2513 13.1171 15.2277V15.1491C13.115 15.1216 13.115 15.094 13.1171 15.0665V14.9839C13.1224 14.956 13.1297 14.9284 13.1391 14.9014C13.1467 14.8718 13.1569 14.8429 13.1698 14.8149C13.1796 14.7854 13.1913 14.7565 13.2049 14.7284C13.2177 14.6988 13.2323 14.6699 13.2487 14.6419C13.263 14.611 13.2791 14.5808 13.297 14.5514L13.3584 14.461C13.3772 14.4291 13.3993 14.3988 13.4242 14.3706C13.456 14.3301 13.4853 14.2881 13.512 14.2447C13.5395 14.2014 13.5644 14.1568 13.5866 14.1111C13.5866 14.0639 13.6261 14.0167 13.6436 13.9695C13.6612 13.9223 13.6787 13.8712 13.6919 13.8201C13.705 13.769 13.7138 13.7179 13.7226 13.6668C13.7313 13.6156 13.7226 13.5645 13.7226 13.5134C13.7226 13.4623 13.7226 13.4112 13.7226 13.3601C13.7226 13.309 13.7226 13.2539 13.7226 13.2028C13.7226 13.1517 13.7226 13.1006 13.7226 13.0534C13.7226 13.0062 13.7226 12.9551 13.7006 12.904C13.6787 12.8529 13.6787 12.8096 13.6655 12.7624L13.6261 12.6248L13.5734 12.499L13.5164 12.381C13.4944 12.3457 13.4725 12.3103 13.4462 12.2749L13.376 12.1845C13.3398 12.1377 13.2987 12.0943 13.2531 12.0547C13.2076 12.0113 13.1577 11.9718 13.104 11.9368C13.0511 11.9016 12.9954 11.8701 12.9372 11.8424C12.8769 11.8126 12.8138 11.7876 12.7486 11.7677C12.6834 11.7447 12.6158 11.7276 12.5468 11.7166C12.4787 11.7046 12.4098 11.6967 12.3406 11.693C12.272 11.687 12.203 11.687 12.1344 11.693C12.0642 11.7013 11.9952 11.7158 11.9282 11.7362C11.86 11.759 11.794 11.7866 11.7308 11.8188C11.6646 11.8564 11.6029 11.8998 11.5465 11.9485C11.4867 12.0003 11.4324 12.0569 11.3842 12.1176C11.3306 12.1874 11.2836 12.261 11.2438 12.3378C11.1988 12.4253 11.1621 12.5161 11.1341 12.6091C11.0994 12.7174 11.073 12.8278 11.0551 12.9394C11.0329 13.0696 11.0197 13.2009 11.0156 13.3326" stroke="#3E35FF" stroke-linecap="round"/>
<path d="M10.9545 16.8236C10.9545 16.8236 11.1739 15.9389 11.2572 15.7148C11.3406 15.4907 12.161 13.1119 10.1078 13.2574C8.05454 13.4029 8.70824 15.2744 9.01096 16.5523C9.31368 17.8301 8.309 18.7266 8.07647 19.45C7.84395 20.1735 7.06302 21.1722 8.76089 26.4802C10.4588 31.7881 9.58569 34.2927 9.80506 37.3399C10.0244 40.3871 11.3406 42.4513 15.1795 42.353C19.0183 42.2547 19.729 39.6518 19.457 36.9978C19.185 34.3438 17.9215 32.9166 17.9741 29.7711C18.0268 26.6256 18.6322 25.6938 20.9355 23.2364" stroke="#3E35FF" stroke-linecap="round"/>
<path d="M20.3874 14.83C18.7861 14.4644 17.8648 14.6609 16.9873 15.0777C16.1099 15.4945 15.2061 16.3792 14.9297 18.1013" stroke="#3E35FF" stroke-linecap="round"/>
<path d="M18.1142 10.0611C18.2312 9.71641 18.4472 9.40532 18.7406 9.15897C19.0339 8.91262 19.3944 8.73967 19.7858 8.65744C20.6632 8.51196 22.5805 9.59322 22.0057 12.0506C21.431 14.508 21.4837 14.335 22.0057 15.4674C22.5278 16.5998 23.9274 19.3717 22.3611 21.8055C20.7949 24.2393 17.8949 24.2865 15.4512 24.5106" stroke="#3E35FF" stroke-linecap="round"/>
<path d="M35.0016 14.6775C35.0016 14.6421 35.0367 14.6067 35.0498 14.5713C35.0664 14.5379 35.081 14.5038 35.0937 14.4691C35.1095 14.4372 35.1227 14.4043 35.1332 14.3708C35.1454 14.3399 35.1557 14.3084 35.1639 14.2764C35.1734 14.2454 35.1807 14.2139 35.1858 14.182C35.2018 14.1228 35.2092 14.0621 35.2078 14.0012C35.2122 13.9712 35.2122 13.9408 35.2078 13.9107C35.2099 13.8793 35.2099 13.8478 35.2078 13.8164C35.2095 13.7863 35.2095 13.7561 35.2078 13.7259L35.1814 13.6316C35.1724 13.5981 35.1607 13.5653 35.1464 13.5333C35.1291 13.5002 35.1144 13.466 35.1025 13.4311C35.1025 13.3996 35.0674 13.3642 35.0454 13.3288L34.9796 13.2187C34.9555 13.1795 34.9291 13.1415 34.9007 13.1047L34.8129 12.9671C34.7846 12.9174 34.7597 12.8662 34.7383 12.8138L34.6725 12.6486C34.6725 12.5896 34.633 12.5346 34.6155 12.4717C34.5979 12.4088 34.5848 12.3498 34.576 12.2869C34.5672 12.224 34.5497 12.1611 34.5409 12.0982C34.5321 12.0353 34.5409 11.9684 34.519 11.9016C34.497 11.8347 34.519 11.7679 34.519 11.705C34.519 11.6421 34.519 11.5713 34.519 11.5084C34.519 11.4455 34.519 11.3747 34.519 11.3118C34.519 11.2489 34.519 11.182 34.5453 11.1191C34.5716 11.0562 34.5716 10.9933 34.5892 10.9343C34.6067 10.8754 34.6287 10.8164 34.6462 10.7574C34.6665 10.6995 34.6914 10.643 34.7208 10.5883C34.7465 10.5357 34.7758 10.4845 34.8085 10.435C34.838 10.3868 34.8718 10.3408 34.9094 10.2974C34.9393 10.2605 34.9731 10.2262 35.0103 10.1952C35.0491 10.1578 35.0902 10.1224 35.1332 10.089L35.278 9.98284L35.4403 9.8806L35.6158 9.79017L35.8044 9.71547C35.8701 9.6917 35.9376 9.67199 36.0063 9.65649C36.0725 9.64055 36.14 9.62873 36.2081 9.62111C36.2782 9.61718 36.3485 9.61718 36.4187 9.62111C36.4882 9.62162 36.5574 9.62954 36.6249 9.6447C36.6957 9.65973 36.7647 9.68079 36.8311 9.70761C36.9006 9.73547 36.9668 9.76973 37.0285 9.80983C37.0977 9.85283 37.1624 9.90153 37.2215 9.95531C37.2851 10.0181 37.3452 10.0837 37.4014 10.1519C37.4623 10.2335 37.5165 10.3189 37.5637 10.4075C37.6205 10.5082 37.6703 10.6119 37.7129 10.7181" stroke="#C4C4C4" stroke-linecap="round"/>
<path d="M37.5725 15.1295L37.612 15.0351C37.6217 15.0031 37.6334 14.9716 37.6471 14.9408C37.6471 14.9054 37.669 14.8739 37.6778 14.8425C37.6901 14.8089 37.7003 14.7748 37.7085 14.7403L37.7349 14.638C37.7349 14.6026 37.7349 14.5712 37.7349 14.5358V14.4296C37.737 14.3943 37.737 14.3588 37.7349 14.3235V14.2173C37.7349 14.1819 37.7349 14.1466 37.7349 14.1112V14.005C37.7349 13.9696 37.7348 13.9342 37.7129 13.9028C37.7047 13.8669 37.6945 13.8315 37.6822 13.7966C37.6731 13.7619 37.6614 13.7277 37.6471 13.6944C37.6471 13.659 37.6164 13.6236 37.5988 13.5922C37.5813 13.5607 37.5637 13.5253 37.5418 13.4899C37.5199 13.4545 37.4979 13.4152 37.476 13.372C37.4541 13.3287 37.4365 13.2894 37.419 13.2462L37.3663 13.1046C37.3663 13.0574 37.34 13.0063 37.3224 12.9552C37.3049 12.9041 37.3005 12.853 37.2873 12.7979C37.2742 12.7429 37.2873 12.6918 37.2654 12.6367C37.2435 12.5817 37.2654 12.5266 37.2654 12.4716C37.2654 12.4165 37.2654 12.3576 37.2654 12.3025V12.1374V11.9683C37.2654 11.9133 37.2654 11.8622 37.2917 11.8071C37.3181 11.7521 37.2917 11.7009 37.3224 11.6498C37.3532 11.5987 37.3488 11.5476 37.3663 11.5004C37.3839 11.4532 37.4014 11.4061 37.4233 11.3589C37.4453 11.3117 37.4672 11.2724 37.4892 11.2291C37.5111 11.1859 37.5374 11.1505 37.5637 11.1112L37.6427 11.0247L37.7392 10.9382L37.8577 10.8556L37.9849 10.7809L38.1297 10.7141C38.1776 10.693 38.2275 10.6759 38.2789 10.6629L38.4368 10.6236C38.4908 10.62 38.5451 10.62 38.5991 10.6236C38.6545 10.6176 38.7105 10.6176 38.7659 10.6236C38.8814 10.6352 38.9933 10.6673 39.0949 10.718C39.1509 10.7462 39.2038 10.7791 39.2528 10.8163C39.3069 10.8568 39.3568 10.9016 39.402 10.95C39.4541 11.005 39.5024 11.0628 39.5468 11.123C39.5907 11.1937 39.6345 11.2684 39.674 11.3431C39.7135 11.4179 39.753 11.5161 39.7881 11.6066" stroke="#C4C4C4" stroke-linecap="round"/>
<path d="M39.7576 15.7113C39.7695 15.684 39.7842 15.6577 39.8015 15.6327L39.8366 15.5501L39.8629 15.4675C39.8723 15.4418 39.8796 15.4155 39.8848 15.3889C39.8869 15.3614 39.8869 15.3338 39.8848 15.3063C39.8848 15.2788 39.8848 15.2513 39.8848 15.2277V15.1491C39.887 15.1216 39.887 15.094 39.8848 15.0665V14.9839C39.8796 14.956 39.8723 14.9284 39.8629 14.9014C39.8553 14.8718 39.845 14.8429 39.8322 14.8149C39.8224 14.7854 39.8106 14.7565 39.7971 14.7284C39.7843 14.6988 39.7696 14.6699 39.7532 14.6419C39.7389 14.611 39.7228 14.5808 39.7049 14.5514L39.6435 14.461C39.6247 14.4291 39.6027 14.3988 39.5777 14.3706C39.5459 14.3301 39.5166 14.2881 39.49 14.2447C39.4625 14.2014 39.4376 14.1568 39.4154 14.1111C39.4154 14.0639 39.3759 14.0167 39.3583 13.9695C39.3408 13.9223 39.3233 13.8712 39.3101 13.8201C39.2969 13.769 39.2882 13.7179 39.2794 13.6668C39.2706 13.6156 39.2794 13.5645 39.2794 13.5134C39.2794 13.4623 39.2794 13.4112 39.2794 13.3601C39.2794 13.309 39.2794 13.2539 39.2794 13.2028C39.2794 13.1517 39.2794 13.1006 39.2794 13.0534C39.2794 13.0062 39.2794 12.9551 39.3013 12.904C39.3233 12.8529 39.3233 12.8096 39.3364 12.7624L39.3759 12.6248L39.4285 12.499L39.4856 12.381C39.5075 12.3457 39.5295 12.3103 39.5558 12.2749L39.626 12.1845C39.6621 12.1377 39.7033 12.0943 39.7488 12.0547C39.7943 12.0113 39.8443 11.9718 39.898 11.9368C39.9508 11.9016 40.0066 11.8701 40.0647 11.8424C40.125 11.8126 40.1882 11.7876 40.2534 11.7677C40.3186 11.7447 40.3862 11.7276 40.4552 11.7166C40.5232 11.7046 40.5921 11.6967 40.6614 11.693C40.7299 11.687 40.799 11.687 40.8676 11.693C40.9377 11.7013 41.0068 11.7158 41.0738 11.7362C41.1419 11.759 41.208 11.7866 41.2712 11.8188C41.3373 11.8564 41.3991 11.8998 41.4555 11.9485C41.5152 12.0003 41.5696 12.0569 41.6178 12.1176C41.6714 12.1874 41.7183 12.261 41.7582 12.3378C41.8031 12.4253 41.8398 12.5161 41.8679 12.6091C41.9025 12.7174 41.9289 12.8278 41.9468 12.9394C41.9691 13.0696 41.9822 13.2009 41.9863 13.3326" stroke="#C4C4C4" stroke-linecap="round"/>
<path d="M42.0474 16.8236C42.0474 16.8236 41.8281 15.9389 41.7447 15.7148C41.6614 15.4907 40.8409 13.1119 42.8942 13.2574C44.9474 13.4029 44.2937 15.2744 43.991 16.5523C43.6883 17.8301 44.693 18.7266 44.9255 19.45C45.158 20.1735 45.9389 21.1722 44.2411 26.4802C42.5432 31.7881 43.4163 34.2927 43.1969 37.3399C42.9775 40.3871 41.6614 42.4513 37.8225 42.353C33.9836 42.2547 33.2729 39.6518 33.5449 36.9978C33.8169 34.3438 35.0805 32.9166 35.0278 29.7711C34.9752 26.6256 34.3697 25.6938 32.0664 23.2364" stroke="#C4C4C4" stroke-linecap="round"/>
<path d="M32.6145 14.83C34.2159 14.4644 35.1372 14.6609 36.0146 15.0777C36.8921 15.4945 37.7959 16.3792 38.0723 18.1013" stroke="#C4C4C4" stroke-linecap="round"/>
<path d="M34.8877 10.0611C34.7707 9.71641 34.5547 9.40532 34.2614 9.15897C33.968 8.91262 33.6076 8.73967 33.2162 8.65744C32.3387 8.51196 30.4215 9.59322 30.9962 12.0506C31.5709 14.508 31.5183 14.335 30.9962 15.4674C30.4741 16.5998 29.0746 19.3717 30.6408 21.8055C32.2071 24.2393 35.1071 24.2865 37.5508 24.5106" stroke="#C4C4C4" stroke-linecap="round"/>
</svg>
