<svg width="22" height="22" viewBox="0 0 22 22" fill="none" xmlns="http://www.w3.org/2000/svg">
<path d="M14.8222 4.57997C14.8222 4.55898 14.8433 4.53798 14.8512 4.51699C14.8611 4.49718 14.8699 4.47694 14.8775 4.45634C14.8869 4.43743 14.8948 4.41794 14.9011 4.39803C14.9085 4.37969 14.9146 4.361 14.9195 4.34204C14.9252 4.32364 14.9296 4.30494 14.9327 4.28606C14.9423 4.25094 14.9467 4.21488 14.9458 4.17876C14.9485 4.16095 14.9485 4.14291 14.9458 4.12511C14.9471 4.10646 14.9471 4.08777 14.9458 4.06913C14.9469 4.05126 14.9469 4.03335 14.9458 4.01548L14.9301 3.95949C14.9246 3.93963 14.9176 3.92015 14.909 3.90118C14.8987 3.88153 14.8899 3.86127 14.8827 3.84053C14.8827 3.82187 14.8617 3.80088 14.8485 3.77988L14.8091 3.71457C14.7946 3.69131 14.7788 3.66874 14.7618 3.64693L14.7092 3.56528C14.6922 3.53579 14.6773 3.50541 14.6645 3.47431L14.625 3.37634C14.625 3.34135 14.6014 3.3087 14.5908 3.27138C14.5803 3.23406 14.5724 3.19907 14.5672 3.16174C14.5619 3.12442 14.5514 3.0871 14.5461 3.04978C14.5409 3.01245 14.5461 2.9728 14.533 2.93315C14.5198 2.89349 14.533 2.85384 14.533 2.81652C14.533 2.77919 14.533 2.73721 14.533 2.69989C14.533 2.66256 14.533 2.62058 14.533 2.58326C14.533 2.54593 14.533 2.50628 14.5488 2.46896C14.5645 2.43164 14.5645 2.39432 14.5751 2.35933C14.5856 2.32434 14.5987 2.28935 14.6092 2.25436C14.6214 2.22001 14.6363 2.18649 14.654 2.15406C14.6694 2.12281 14.6869 2.09243 14.7065 2.06309C14.7242 2.03449 14.7445 2.0072 14.767 1.98145C14.7849 1.95954 14.8052 1.93923 14.8275 1.9208C14.8508 1.89865 14.8753 1.87763 14.9011 1.85782L14.9879 1.79484L15.0852 1.73419L15.1904 1.68054L15.3035 1.63622C15.3429 1.62211 15.3833 1.61043 15.4244 1.60123C15.4642 1.59177 15.5046 1.58476 15.5454 1.58024C15.5874 1.57791 15.6296 1.57791 15.6716 1.58024C15.7133 1.58054 15.7548 1.58524 15.7952 1.59423C15.8377 1.60315 15.8791 1.61565 15.9188 1.63156C15.9605 1.64808 16.0002 1.66841 16.0372 1.6922C16.0787 1.71771 16.1174 1.7466 16.1529 1.77851C16.191 1.81575 16.227 1.85467 16.2607 1.89514C16.2972 1.94354 16.3297 1.99421 16.358 2.04676C16.392 2.1065 16.4219 2.16804 16.4474 2.23103" stroke="#0057FF" stroke-linecap="round"/>
<path d="M16.364 4.84678L16.3877 4.7908C16.3935 4.7718 16.4005 4.75312 16.4087 4.73482C16.4087 4.71383 16.4219 4.69517 16.4271 4.67651C16.4345 4.6566 16.4406 4.63635 16.4456 4.61586L16.4613 4.55521C16.4613 4.53422 16.4613 4.51556 16.4613 4.49456V4.43158C16.4626 4.4106 16.4626 4.38958 16.4613 4.3686V4.30562C16.4613 4.28463 16.4613 4.26363 16.4613 4.24264V4.17966C16.4613 4.15867 16.4613 4.13767 16.4482 4.11901C16.4433 4.09775 16.4371 4.07673 16.4298 4.05603C16.4243 4.03542 16.4173 4.01515 16.4087 3.99539C16.4087 3.97439 16.3903 3.9534 16.3798 3.93474C16.3693 3.91607 16.3588 3.89508 16.3456 3.87409C16.3325 3.8531 16.3193 3.82977 16.3062 3.80411C16.293 3.77845 16.2825 3.75513 16.272 3.72947L16.2404 3.64549C16.2404 3.6175 16.2247 3.58718 16.2141 3.55685C16.2036 3.52653 16.201 3.49621 16.1931 3.46355C16.1852 3.43089 16.1931 3.40057 16.18 3.36791C16.1668 3.33526 16.18 3.3026 16.18 3.26994C16.18 3.23729 16.18 3.2023 16.18 3.16964V3.07167V2.97137C16.18 2.93871 16.18 2.90839 16.1957 2.87573C16.2115 2.84308 16.1957 2.81275 16.2141 2.78243C16.2325 2.7521 16.2299 2.72178 16.2404 2.69379C16.251 2.6658 16.2615 2.63781 16.2746 2.60982C16.2878 2.58183 16.3009 2.5585 16.3141 2.53284C16.3272 2.50718 16.343 2.48619 16.3588 2.46286L16.4061 2.41154L16.464 2.36023L16.535 2.31124L16.6112 2.26692L16.698 2.22727C16.7267 2.21477 16.7566 2.20462 16.7874 2.19694L16.8821 2.17362C16.9145 2.17145 16.947 2.17145 16.9794 2.17362C17.0126 2.17007 17.0461 2.17007 17.0793 2.17362C17.1486 2.1805 17.2156 2.19953 17.2765 2.2296C17.3101 2.24633 17.3418 2.26586 17.3712 2.28792C17.4036 2.31197 17.4335 2.33851 17.4606 2.36722C17.4918 2.39987 17.5208 2.43414 17.5474 2.46986C17.5737 2.51185 17.6 2.55616 17.6236 2.60048C17.6473 2.6448 17.671 2.70312 17.692 2.75677" stroke="#0057FF" stroke-linecap="round"/>
<path d="M17.6729 5.19183C17.6801 5.17561 17.6889 5.15999 17.6992 5.14518L17.7202 5.09619L17.736 5.04721C17.7416 5.03195 17.746 5.01636 17.7492 5.00056C17.7504 4.98425 17.7504 4.96788 17.7492 4.95157C17.7492 4.93524 17.7492 4.91891 17.7492 4.90492V4.85827C17.7505 4.84196 17.7505 4.82559 17.7492 4.80928V4.7603C17.746 4.74373 17.7416 4.72736 17.736 4.71131C17.7315 4.69379 17.7253 4.67663 17.7176 4.65999C17.7117 4.64254 17.7047 4.6254 17.6966 4.60868C17.6889 4.59115 17.6801 4.57401 17.6703 4.55736C17.6617 4.53903 17.6521 4.52113 17.6414 4.50371L17.6045 4.45006C17.5933 4.43115 17.5801 4.41319 17.5651 4.39641C17.546 4.3724 17.5285 4.34748 17.5125 4.32177C17.496 4.29605 17.4811 4.26958 17.4678 4.24246C17.4678 4.21447 17.4441 4.18648 17.4336 4.15849C17.4231 4.13049 17.4126 4.10017 17.4047 4.06985C17.3968 4.03952 17.3915 4.0092 17.3863 3.97887C17.381 3.94855 17.3863 3.91823 17.3863 3.8879C17.3863 3.85758 17.3863 3.82725 17.3863 3.79693C17.3863 3.76661 17.3863 3.73395 17.3863 3.70363C17.3863 3.6733 17.3863 3.64298 17.3863 3.61499C17.3863 3.587 17.3863 3.55667 17.3994 3.52635C17.4126 3.49602 17.4126 3.47037 17.4205 3.44237L17.4441 3.36073L17.4757 3.28609L17.5099 3.21611C17.523 3.19512 17.5362 3.17413 17.5519 3.15313L17.594 3.09948C17.6157 3.07176 17.6403 3.04598 17.6677 3.02251C17.6949 2.99676 17.7249 2.97333 17.7571 2.95253C17.7887 2.93168 17.8221 2.91296 17.857 2.89654C17.8932 2.87887 17.931 2.86404 17.9701 2.85222C18.0092 2.8386 18.0497 2.82845 18.091 2.8219C18.1318 2.8148 18.1731 2.81012 18.2146 2.8079C18.2557 2.80435 18.2971 2.80435 18.3382 2.8079C18.3803 2.81286 18.4217 2.82145 18.4618 2.83356C18.5027 2.84706 18.5422 2.86344 18.5802 2.88255C18.6198 2.90484 18.6568 2.93063 18.6906 2.95953C18.7264 2.99024 18.759 3.02382 18.7879 3.05983C18.82 3.10121 18.8481 3.1449 18.872 3.19045C18.899 3.24238 18.921 3.29622 18.9378 3.3514C18.9586 3.41568 18.9744 3.48115 18.9851 3.54734C18.9984 3.62459 19.0063 3.70249 19.0088 3.7806" stroke="#0057FF" stroke-linecap="round"/>
<path d="M19.0459 5.85238C19.0459 5.85238 18.9144 5.32755 18.8644 5.19459C18.8145 5.06163 18.3227 3.6504 19.5534 3.73671C20.7841 3.82302 20.3923 4.93333 20.2108 5.69143C20.0294 6.44953 20.6316 6.98137 20.7709 7.41056C20.9103 7.83976 21.3784 8.43224 20.3607 11.5813C19.343 14.7303 19.8663 16.2162 19.7349 18.0239C19.6034 19.8317 18.8145 21.0563 16.5135 20.998C14.2125 20.9397 13.7865 19.3955 13.9496 17.821C14.1126 16.2465 14.87 15.3997 14.8384 13.5337C14.8068 11.6676 14.4439 11.1147 13.0634 9.65686" stroke="#0057FF" stroke-linecap="round"/>
<path d="M13.3918 4.6697C14.3516 4.45276 14.9038 4.56939 15.4298 4.81665C15.9557 5.0639 16.4974 5.58874 16.6631 6.61042" stroke="#0057FF" stroke-linecap="round"/>
<path d="M14.7544 1.8404C14.6842 1.63591 14.5548 1.45134 14.379 1.3052C14.2031 1.15905 13.9871 1.05644 13.7525 1.00766C13.2265 0.921351 12.0774 1.56282 12.4218 3.0207C12.7663 4.47858 12.7348 4.37594 12.4218 5.04773C12.1089 5.71952 11.27 7.36401 12.2088 8.80789C13.1476 10.2518 14.8859 10.2798 16.3506 10.4127" stroke="#0057FF" stroke-linecap="round"/>
<path d="M7.17775 4.57997C7.17775 4.55898 7.15671 4.53798 7.14882 4.51699C7.13891 4.49718 7.13014 4.47694 7.12253 4.45634C7.11307 4.43743 7.10515 4.41794 7.09886 4.39803C7.09151 4.37969 7.08537 4.361 7.08046 4.34204C7.07479 4.32364 7.07039 4.30494 7.0673 4.28606C7.05773 4.25094 7.05332 4.21488 7.05416 4.17876C7.05151 4.16095 7.05151 4.14291 7.05416 4.12511C7.05285 4.10646 7.05285 4.08777 7.05416 4.06913C7.05312 4.05126 7.05312 4.03335 7.05416 4.01548L7.06993 3.95949C7.07536 3.93963 7.08239 3.92015 7.09097 3.90118C7.10131 3.88153 7.1101 3.86127 7.11727 3.84053C7.11727 3.82187 7.13831 3.80088 7.15145 3.77988L7.1909 3.71457C7.20535 3.69131 7.22116 3.66874 7.23824 3.64693L7.29083 3.56528C7.30778 3.53579 7.32271 3.50541 7.33553 3.47431L7.37498 3.37634C7.37498 3.34135 7.39865 3.3087 7.40916 3.27138C7.41968 3.23406 7.42757 3.19907 7.43283 3.16174C7.43809 3.12442 7.44861 3.0871 7.45386 3.04978C7.45912 3.01245 7.45387 2.9728 7.46702 2.93315C7.48017 2.89349 7.46702 2.85384 7.46702 2.81652C7.46702 2.77919 7.46702 2.73721 7.46702 2.69989C7.46702 2.66256 7.46702 2.62058 7.46702 2.58326C7.46702 2.54593 7.46702 2.50628 7.45124 2.46896C7.43546 2.43164 7.43546 2.39432 7.42494 2.35933C7.41442 2.32434 7.40127 2.28935 7.39076 2.25436C7.3786 2.22001 7.36366 2.18649 7.34605 2.15406C7.33062 2.12281 7.31306 2.09243 7.29346 2.06309C7.27577 2.03449 7.25554 2.0072 7.23297 1.98145C7.21507 1.95954 7.19482 1.93923 7.1725 1.9208C7.14924 1.89865 7.12465 1.87763 7.09886 1.85782L7.01208 1.79484L6.91478 1.73419L6.8096 1.68054L6.69652 1.63622C6.65714 1.62211 6.61673 1.61043 6.57555 1.60123C6.53582 1.59177 6.49541 1.58476 6.45459 1.58024C6.41256 1.57791 6.3704 1.57791 6.32836 1.58024C6.28668 1.58054 6.2452 1.58524 6.20477 1.59423C6.16232 1.60315 6.12093 1.61565 6.08117 1.63156C6.03947 1.64808 5.99981 1.66841 5.96284 1.6922C5.92132 1.71771 5.88259 1.7466 5.84714 1.77851C5.809 1.81575 5.77302 1.85467 5.73932 1.89514C5.70282 1.94354 5.6703 1.99421 5.64202 2.04676C5.60799 2.1065 5.57813 2.16804 5.55261 2.23103" stroke="#0057FF" stroke-linecap="round"/>
<path d="M5.63597 4.84678L5.6123 4.7908C5.60648 4.7718 5.59946 4.75312 5.59127 4.73482C5.59127 4.71383 5.57812 4.69517 5.57286 4.67651C5.5655 4.6566 5.55935 4.63635 5.55445 4.61586L5.53867 4.55521C5.53867 4.53422 5.53867 4.51556 5.53867 4.49456V4.43158C5.53737 4.4106 5.53737 4.38958 5.53867 4.3686V4.30562C5.53867 4.28463 5.53867 4.26363 5.53867 4.24264V4.17966C5.53867 4.15867 5.53868 4.13767 5.55182 4.11901C5.55672 4.09775 5.56286 4.07673 5.57023 4.05603C5.57568 4.03542 5.58271 4.01515 5.59127 3.99539C5.59127 3.97439 5.60967 3.9534 5.62019 3.93474C5.63071 3.91607 5.64123 3.89508 5.65438 3.87409C5.66753 3.8531 5.68067 3.82977 5.69382 3.80411C5.70697 3.77845 5.71749 3.75513 5.72801 3.72947L5.75956 3.64549C5.75956 3.6175 5.77534 3.58718 5.78586 3.55685C5.79638 3.52653 5.79901 3.49621 5.8069 3.46355C5.81479 3.43089 5.8069 3.40057 5.82005 3.36791C5.8332 3.33526 5.82005 3.3026 5.82005 3.26994C5.82005 3.23729 5.82005 3.2023 5.82005 3.16964V3.07167V2.97137C5.82005 2.93871 5.82005 2.90839 5.80427 2.87573C5.78849 2.84308 5.80427 2.81275 5.78586 2.78243C5.76745 2.7521 5.77008 2.72178 5.75956 2.69379C5.74904 2.6658 5.73853 2.63781 5.72538 2.60982C5.71224 2.58183 5.69908 2.5585 5.68593 2.53284C5.67278 2.50718 5.65701 2.48619 5.64123 2.46286L5.5939 2.41154L5.53605 2.36023L5.46504 2.31124L5.38878 2.26692L5.302 2.22727C5.2733 2.21477 5.24337 2.20462 5.21259 2.19694L5.11792 2.17362C5.08553 2.17145 5.05301 2.17145 5.02062 2.17362C4.98743 2.17007 4.95388 2.17007 4.9207 2.17362C4.85142 2.1805 4.78438 2.19953 4.72347 2.2296C4.6899 2.24633 4.65821 2.26586 4.6288 2.28792C4.59643 2.31197 4.56651 2.33851 4.5394 2.36722C4.50818 2.39987 4.4792 2.43414 4.45261 2.46986C4.42632 2.51185 4.40002 2.55616 4.37636 2.60048C4.35269 2.6448 4.32902 2.70312 4.30798 2.75677" stroke="#0057FF" stroke-linecap="round"/>
<path d="M4.32709 5.19183C4.31993 5.17561 4.31113 5.15999 4.30079 5.14518L4.27976 5.09619L4.26397 5.04721C4.25836 5.03195 4.25397 5.01636 4.25083 5.00056C4.24958 4.98425 4.24958 4.96788 4.25083 4.95157C4.25083 4.93524 4.25083 4.91891 4.25083 4.90492V4.85827C4.24953 4.84196 4.24953 4.82559 4.25083 4.80928V4.7603C4.25396 4.74373 4.25835 4.72736 4.26397 4.71131C4.26853 4.69379 4.27469 4.67663 4.28238 4.65999C4.28826 4.64254 4.29529 4.6254 4.30343 4.60868C4.3111 4.59115 4.31987 4.57401 4.32972 4.55736C4.33828 4.53903 4.34794 4.52113 4.35865 4.50371L4.39546 4.45006C4.40673 4.43115 4.41994 4.41319 4.43491 4.39641C4.45396 4.3724 4.47152 4.34748 4.4875 4.32177C4.50397 4.29605 4.5189 4.26958 4.53221 4.24246C4.53221 4.21447 4.55588 4.18648 4.56639 4.15849C4.57691 4.13049 4.58743 4.10017 4.59532 4.06985C4.60321 4.03952 4.60847 4.0092 4.61373 3.97887C4.61899 3.94855 4.61373 3.91823 4.61373 3.8879C4.61373 3.85758 4.61373 3.82725 4.61373 3.79693C4.61373 3.76661 4.61373 3.73395 4.61373 3.70363C4.61373 3.6733 4.61373 3.64298 4.61373 3.61499C4.61373 3.587 4.61372 3.55667 4.60057 3.52635C4.58742 3.49602 4.58743 3.47037 4.57954 3.44237L4.55587 3.36073L4.52432 3.28609L4.49013 3.21611C4.47698 3.19512 4.46383 3.17413 4.44806 3.15313L4.40598 3.09948C4.38432 3.07176 4.35966 3.04598 4.33235 3.02251C4.30507 2.99676 4.27514 2.97333 4.24294 2.95253C4.21126 2.93168 4.17785 2.91296 4.14301 2.89654C4.10685 2.87887 4.06902 2.86404 4.02994 2.85222C3.99084 2.8386 3.95033 2.82845 3.90897 2.8219C3.86817 2.8148 3.82688 2.81012 3.78538 2.8079C3.74428 2.80435 3.70288 2.80435 3.66178 2.8079C3.61974 2.81286 3.57834 2.82145 3.53819 2.83356C3.49733 2.84706 3.45775 2.86344 3.41985 2.88255C3.38021 2.90484 3.34321 2.93063 3.30941 2.95953C3.27358 2.99024 3.241 3.02382 3.2121 3.05983C3.17999 3.10121 3.15185 3.1449 3.12796 3.19045C3.10101 3.24238 3.07902 3.29622 3.06222 3.3514C3.04143 3.41568 3.02561 3.48115 3.01488 3.54734C3.00156 3.62459 2.99366 3.70249 2.99121 3.7806" stroke="#0057FF" stroke-linecap="round"/>
<path d="M2.95412 5.85238C2.95412 5.85238 3.0856 5.32755 3.13557 5.19459C3.18553 5.06163 3.67728 3.6504 2.44659 3.73671C1.2159 3.82302 1.60773 4.93333 1.78917 5.69143C1.97062 6.44953 1.36842 6.98137 1.22905 7.41056C1.08968 7.83976 0.621594 8.43224 1.63928 11.5813C2.65697 14.7303 2.13366 16.2162 2.26514 18.0239C2.39663 19.8317 3.18553 21.0563 5.4865 20.998C7.78747 20.9397 8.21348 19.3955 8.05044 17.821C7.8874 16.2465 7.13005 15.3997 7.1616 13.5337C7.19316 11.6676 7.55606 11.1147 8.93664 9.65686" stroke="#0057FF" stroke-linecap="round"/>
<path d="M8.60824 4.6697C7.6484 4.45276 7.09617 4.56939 6.57023 4.81665C6.0443 5.0639 5.50258 5.58874 5.33691 6.61042" stroke="#0057FF" stroke-linecap="round"/>
<path d="M7.24563 1.8404C7.31575 1.63591 7.44521 1.45134 7.62105 1.3052C7.79688 1.15905 8.01293 1.05644 8.24754 1.00766C8.77347 0.921351 9.92264 1.56282 9.57816 3.0207C9.23367 4.47858 9.26522 4.37594 9.57816 5.04773C9.89109 5.71952 10.73 7.36401 9.79116 8.80789C8.85236 10.2518 7.11415 10.2798 5.64941 10.4127" stroke="#0057FF" stroke-linecap="round"/>
</svg>
