<svg width="53" height="51" viewBox="0 0 53 51" fill="none" xmlns="http://www.w3.org/2000/svg">
<rect width="53" height="51" rx="5" fill="#F8F8F8"/>
<path d="M21.7486 11.4302C21.7486 10.2637 21.2745 9 19.8523 9C17.4818 9 18.43 9.91085 17.9559 9.97207C17.2476 10.0635 16.5336 9.97207 16.0595 9.97207C15.6803 9.97207 15.2694 10.6201 15.1114 10.9441H14.1632C13.7839 10.9441 13.373 11.5922 13.215 11.9162H11.7927C11.4135 11.9162 11.0026 12.8883 10.8445 13.3743C10.5285 13.3743 9.89636 12.8882 8.94818 13.8603C8.19862 14.6289 8.94818 16.7765 8.94818 17.2626C8.94818 17.6514 8.79015 18.3967 8.47409 18.7207C8.31606 19.3687 8 20.762 8 21.1509C8 21.6369 8.94818 26.9833 9.42227 28.4414C9.89636 29.8995 9.89636 32.3296 9.89636 35.2458C9.89636 37.2285 9.89636 39.6202 10.8445 40.5922C12.2668 42.0503 15 43 17.5 42C20.699 40.7204 19.5706 36.8097 17.9559 31.8436C17.4818 30.3855 17.4818 27.9553 18.43 26.0112C18.9041 25.0391 22.1026 22.9783 22.6968 21.1509C23.8665 17.5533 21.2745 16.2905 21.2745 14.3464C21.2745 12.8883 21.7486 12.8883 21.7486 11.4302Z" fill="#5D55FD"/>
<path d="M18.0004 14.6775C18.0004 14.6421 17.9653 14.6067 17.9521 14.5713C17.9356 14.5379 17.921 14.5038 17.9083 14.4691C17.8925 14.4372 17.8793 14.4043 17.8688 14.3708C17.8565 14.3399 17.8463 14.3084 17.8381 14.2764C17.8286 14.2454 17.8213 14.2139 17.8161 14.182C17.8002 14.1228 17.7928 14.0621 17.7942 14.0012C17.7898 13.9712 17.7898 13.9408 17.7942 13.9107C17.792 13.8793 17.792 13.8478 17.7942 13.8164C17.7924 13.7863 17.7924 13.7561 17.7942 13.7259L17.8205 13.6316C17.8296 13.5981 17.8413 13.5653 17.8556 13.5333C17.8729 13.5002 17.8875 13.466 17.8995 13.4311C17.8995 13.3996 17.9346 13.3642 17.9565 13.3288L18.0223 13.2187C18.0464 13.1795 18.0728 13.1415 18.1013 13.1047L18.189 12.9671C18.2173 12.9174 18.2422 12.8662 18.2636 12.8138L18.3294 12.6486C18.3294 12.5896 18.3689 12.5346 18.3865 12.4717C18.404 12.4088 18.4172 12.3498 18.426 12.2869C18.4347 12.224 18.4523 12.1611 18.461 12.0982C18.4698 12.0353 18.4611 11.9684 18.483 11.9016C18.5049 11.8347 18.483 11.7679 18.483 11.705C18.483 11.6421 18.483 11.5713 18.483 11.5084C18.483 11.4455 18.483 11.3747 18.483 11.3118C18.483 11.2489 18.483 11.182 18.4567 11.1191C18.4303 11.0562 18.4303 10.9933 18.4128 10.9343C18.3952 10.8754 18.3733 10.8164 18.3558 10.7574C18.3355 10.6995 18.3105 10.643 18.2812 10.5883C18.2554 10.5357 18.2261 10.4845 18.1934 10.435C18.1639 10.3868 18.1302 10.3408 18.0925 10.2974C18.0627 10.2605 18.0289 10.2262 17.9916 10.1952C17.9528 10.1578 17.9118 10.1224 17.8688 10.089L17.724 9.98284L17.5617 9.8806L17.3862 9.79017L17.1975 9.71547C17.1318 9.6917 17.0644 9.67199 16.9957 9.65649C16.9294 9.64055 16.862 9.62873 16.7939 9.62111C16.7238 9.61718 16.6534 9.61718 16.5833 9.62111C16.5138 9.62162 16.4445 9.62954 16.3771 9.6447C16.3063 9.65973 16.2372 9.68079 16.1709 9.70761C16.1013 9.73547 16.0352 9.76973 15.9735 9.80983C15.9042 9.85283 15.8396 9.90153 15.7804 9.95531C15.7168 10.0181 15.6568 10.0837 15.6006 10.1519C15.5397 10.2335 15.4854 10.3189 15.4382 10.4075C15.3814 10.5082 15.3316 10.6119 15.2891 10.7181" stroke="#3E35FF" stroke-linecap="round"/>
<path d="M15.4294 15.1295L15.3899 15.0351C15.3802 15.0031 15.3685 14.9716 15.3549 14.9408C15.3549 14.9054 15.3329 14.8739 15.3241 14.8425C15.3119 14.8089 15.3016 14.7748 15.2934 14.7403L15.2671 14.638C15.2671 14.6026 15.2671 14.5712 15.2671 14.5358V14.4296C15.2649 14.3943 15.2649 14.3588 15.2671 14.3235V14.2173C15.2671 14.1819 15.2671 14.1466 15.2671 14.1112V14.005C15.2671 13.9696 15.2671 13.9342 15.289 13.9028C15.2972 13.8669 15.3075 13.8315 15.3197 13.7966C15.3288 13.7619 15.3406 13.7277 15.3549 13.6944C15.3549 13.659 15.3856 13.6236 15.4031 13.5922C15.4207 13.5607 15.4382 13.5253 15.4601 13.4899C15.4821 13.4545 15.504 13.4152 15.5259 13.372C15.5479 13.3287 15.5654 13.2894 15.583 13.2462L15.6356 13.1046C15.6356 13.0574 15.662 13.0063 15.6795 12.9552C15.6971 12.9041 15.7014 12.853 15.7146 12.7979C15.7278 12.7429 15.7146 12.6918 15.7365 12.6367C15.7585 12.5817 15.7365 12.5266 15.7365 12.4716C15.7365 12.4165 15.7365 12.3576 15.7365 12.3025V12.1374V11.9683C15.7365 11.9133 15.7365 11.8622 15.7102 11.8071C15.6839 11.7521 15.7102 11.7009 15.6795 11.6498C15.6488 11.5987 15.6532 11.5476 15.6356 11.5004C15.6181 11.4532 15.6005 11.4061 15.5786 11.3589C15.5567 11.3117 15.5347 11.2724 15.5128 11.2291C15.4909 11.1859 15.4645 11.1505 15.4382 11.1112L15.3592 11.0247L15.2627 10.9382L15.1443 10.8556L15.017 10.7809L14.8723 10.7141C14.8244 10.693 14.7744 10.6759 14.7231 10.6629L14.5651 10.6236C14.5111 10.62 14.4568 10.62 14.4028 10.6236C14.3474 10.6176 14.2915 10.6176 14.2361 10.6236C14.1205 10.6352 14.0087 10.6673 13.907 10.718C13.851 10.7462 13.7982 10.7791 13.7491 10.8163C13.6951 10.8568 13.6452 10.9016 13.5999 10.95C13.5479 11.005 13.4995 11.0628 13.4552 11.123C13.4113 11.1937 13.3674 11.2684 13.3279 11.3431C13.2885 11.4179 13.249 11.5161 13.2139 11.6066" stroke="#3E35FF" stroke-linecap="round"/>
<path d="M13.2444 15.7113C13.2324 15.684 13.2177 15.6577 13.2005 15.6327L13.1654 15.5501L13.1391 15.4675C13.1297 15.4418 13.1224 15.4155 13.1171 15.3889C13.115 15.3614 13.115 15.3338 13.1171 15.3063C13.1171 15.2788 13.1171 15.2513 13.1171 15.2277V15.1491C13.115 15.1216 13.115 15.094 13.1171 15.0665V14.9839C13.1224 14.956 13.1297 14.9284 13.1391 14.9014C13.1467 14.8718 13.1569 14.8429 13.1698 14.8149C13.1796 14.7854 13.1913 14.7565 13.2049 14.7284C13.2177 14.6988 13.2323 14.6699 13.2487 14.6419C13.263 14.611 13.2791 14.5808 13.297 14.5514L13.3584 14.461C13.3772 14.4291 13.3993 14.3988 13.4242 14.3706C13.456 14.3301 13.4853 14.2881 13.512 14.2447C13.5395 14.2014 13.5644 14.1568 13.5866 14.1111C13.5866 14.0639 13.6261 14.0167 13.6436 13.9695C13.6612 13.9223 13.6787 13.8712 13.6919 13.8201C13.705 13.769 13.7138 13.7179 13.7226 13.6668C13.7313 13.6156 13.7226 13.5645 13.7226 13.5134C13.7226 13.4623 13.7226 13.4112 13.7226 13.3601C13.7226 13.309 13.7226 13.2539 13.7226 13.2028C13.7226 13.1517 13.7226 13.1006 13.7226 13.0534C13.7226 13.0062 13.7226 12.9551 13.7006 12.904C13.6787 12.8529 13.6787 12.8096 13.6655 12.7624L13.6261 12.6248L13.5734 12.499L13.5164 12.381C13.4944 12.3457 13.4725 12.3103 13.4462 12.2749L13.376 12.1845C13.3398 12.1377 13.2987 12.0943 13.2531 12.0547C13.2076 12.0113 13.1577 11.9718 13.104 11.9368C13.0511 11.9016 12.9954 11.8701 12.9372 11.8424C12.8769 11.8126 12.8138 11.7876 12.7486 11.7677C12.6834 11.7447 12.6158 11.7276 12.5468 11.7166C12.4787 11.7046 12.4098 11.6967 12.3406 11.693C12.272 11.687 12.203 11.687 12.1344 11.693C12.0642 11.7013 11.9952 11.7158 11.9282 11.7362C11.86 11.759 11.794 11.7866 11.7308 11.8188C11.6646 11.8564 11.6029 11.8998 11.5465 11.9485C11.4867 12.0003 11.4324 12.0569 11.3842 12.1176C11.3306 12.1874 11.2836 12.261 11.2438 12.3378C11.1988 12.4253 11.1621 12.5161 11.1341 12.6091C11.0994 12.7174 11.073 12.8278 11.0551 12.9394C11.0329 13.0696 11.0197 13.2009 11.0156 13.3326" stroke="#3E35FF" stroke-linecap="round"/>
<path d="M10.9545 16.8236C10.9545 16.8236 11.1739 15.9389 11.2572 15.7148C11.3406 15.4907 12.161 13.1119 10.1078 13.2574C8.05454 13.4029 8.70824 15.2744 9.01096 16.5523C9.31368 17.8301 8.309 18.7266 8.07647 19.45C7.84395 20.1735 7.06302 21.1722 8.76089 26.4802C10.4588 31.7881 9.58569 34.2927 9.80506 37.3399C10.0244 40.3871 11.3406 42.4513 15.1795 42.353C19.0183 42.2547 19.729 39.6518 19.457 36.9978C19.185 34.3438 17.9215 32.9166 17.9741 29.7711C18.0268 26.6256 18.6322 25.6938 20.9355 23.2364" stroke="#3E35FF" stroke-linecap="round"/>
<path d="M20.3874 14.83C18.7861 14.4644 17.8648 14.6609 16.9873 15.0777C16.1099 15.4945 15.2061 16.3792 14.9297 18.1013" stroke="#3E35FF" stroke-linecap="round"/>
<path d="M18.1142 10.0611C18.2312 9.71641 18.4472 9.40532 18.7406 9.15897C19.0339 8.91262 19.3944 8.73967 19.7858 8.65744C20.6632 8.51196 22.5805 9.59322 22.0057 12.0506C21.431 14.508 21.4837 14.335 22.0057 15.4674C22.5278 16.5998 23.9274 19.3717 22.3611 21.8055C20.7949 24.2393 17.8949 24.2865 15.4512 24.5106" stroke="#3E35FF" stroke-linecap="round"/>
<path d="M33.3324 11.4302C33.3324 10.2637 33.8065 9 35.2288 9C37.5992 9 36.6511 9.91085 37.1252 9.97207C37.8335 10.0635 38.5474 9.97207 39.0215 9.97207C39.4008 9.97207 39.8117 10.6201 39.9697 10.9441H40.9179C41.2972 10.9441 41.708 11.5922 41.8661 11.9162H43.2883C43.6676 11.9162 44.0785 12.8883 44.2365 13.3743C44.5526 13.3743 45.1847 12.8882 46.1329 13.8603C46.8824 14.6289 46.1329 16.7765 46.1329 17.2626C46.1329 17.6514 46.2909 18.3967 46.607 18.7207C46.765 19.3687 47.0811 20.762 47.0811 21.1509C47.0811 21.6369 46.1329 26.9833 45.6588 28.4414C45.1847 29.8995 45.1847 32.3296 45.1847 35.2458C45.1847 37.2285 45.1847 39.6202 44.2365 40.5922C42.8142 42.0503 40.0811 43 37.5811 42C34.382 40.7204 35.5105 36.8097 37.1252 31.8436C37.5992 30.3855 37.5992 27.9553 36.6511 26.0112C36.177 25.0391 32.9784 22.9783 32.3842 21.1509C31.2145 17.5533 33.8065 16.2905 33.8065 14.3464C33.8065 12.8883 33.3324 12.8883 33.3324 11.4302Z" fill="#FF9D59"/>
<path d="M37.0807 14.6775C37.0807 14.6421 37.1158 14.6067 37.1289 14.5713C37.1455 14.5379 37.1601 14.5038 37.1728 14.4691C37.1886 14.4372 37.2018 14.4043 37.2123 14.3708C37.2245 14.3399 37.2348 14.3084 37.243 14.2764C37.2525 14.2454 37.2598 14.2139 37.2649 14.182C37.2809 14.1228 37.2883 14.0621 37.2869 14.0012C37.2913 13.9712 37.2913 13.9408 37.2869 13.9107C37.289 13.8793 37.289 13.8478 37.2869 13.8164C37.2886 13.7863 37.2886 13.7561 37.2869 13.7259L37.2605 13.6316C37.2515 13.5981 37.2398 13.5653 37.2255 13.5333C37.2082 13.5002 37.1935 13.466 37.1816 13.4311C37.1816 13.3996 37.1465 13.3642 37.1245 13.3288L37.0587 13.2187C37.0346 13.1795 37.0083 13.1415 36.9798 13.1047L36.892 12.9671C36.8637 12.9174 36.8388 12.8662 36.8174 12.8138L36.7516 12.6486C36.7516 12.5896 36.7121 12.5346 36.6946 12.4717C36.677 12.4088 36.6639 12.3498 36.6551 12.2869C36.6463 12.224 36.6288 12.1611 36.62 12.0982C36.6112 12.0353 36.62 11.9684 36.5981 11.9016C36.5761 11.8347 36.5981 11.7679 36.5981 11.705C36.5981 11.6421 36.5981 11.5713 36.5981 11.5084C36.5981 11.4455 36.5981 11.3747 36.5981 11.3118C36.5981 11.2489 36.5981 11.182 36.6244 11.1191C36.6507 11.0562 36.6507 10.9933 36.6683 10.9343C36.6858 10.8754 36.7078 10.8164 36.7253 10.7574C36.7456 10.6995 36.7705 10.643 36.7999 10.5883C36.8256 10.5357 36.8549 10.4845 36.8876 10.435C36.9171 10.3868 36.9509 10.3408 36.9885 10.2974C37.0184 10.2605 37.0522 10.2262 37.0894 10.1952C37.1282 10.1578 37.1693 10.1224 37.2123 10.089L37.3571 9.98284L37.5194 9.8806L37.6949 9.79017L37.8835 9.71547C37.9492 9.6917 38.0167 9.67199 38.0854 9.65649C38.1516 9.64055 38.2191 9.62873 38.2872 9.62111C38.3573 9.61718 38.4276 9.61718 38.4978 9.62111C38.5673 9.62162 38.6365 9.62954 38.704 9.6447C38.7748 9.65973 38.8438 9.68079 38.9102 9.70761C38.9797 9.73547 39.0459 9.76973 39.1076 9.80983C39.1768 9.85283 39.2415 9.90153 39.3006 9.95531C39.3642 10.0181 39.4243 10.0837 39.4805 10.1519C39.5414 10.2335 39.5956 10.3189 39.6428 10.4075C39.6996 10.5082 39.7494 10.6119 39.792 10.7181" stroke="#FF6800" stroke-linecap="round"/>
<path d="M39.6516 15.1295L39.6911 15.0351C39.7008 15.0031 39.7125 14.9716 39.7262 14.9408C39.7262 14.9054 39.7481 14.8739 39.7569 14.8425C39.7692 14.8089 39.7794 14.7748 39.7876 14.7403L39.814 14.638C39.814 14.6026 39.814 14.5712 39.814 14.5358V14.4296C39.8161 14.3943 39.8161 14.3588 39.814 14.3235V14.2173C39.814 14.1819 39.814 14.1466 39.814 14.1112V14.005C39.814 13.9696 39.8139 13.9342 39.792 13.9028C39.7838 13.8669 39.7736 13.8315 39.7613 13.7966C39.7522 13.7619 39.7405 13.7277 39.7262 13.6944C39.7262 13.659 39.6955 13.6236 39.6779 13.5922C39.6604 13.5607 39.6428 13.5253 39.6209 13.4899C39.599 13.4545 39.577 13.4152 39.5551 13.372C39.5332 13.3287 39.5156 13.2894 39.4981 13.2462L39.4454 13.1046C39.4454 13.0574 39.4191 13.0063 39.4015 12.9552C39.384 12.9041 39.3796 12.853 39.3664 12.7979C39.3533 12.7429 39.3664 12.6918 39.3445 12.6367C39.3226 12.5817 39.3445 12.5266 39.3445 12.4716C39.3445 12.4165 39.3445 12.3576 39.3445 12.3025V12.1374V11.9683C39.3445 11.9133 39.3445 11.8622 39.3708 11.8071C39.3972 11.7521 39.3708 11.7009 39.4015 11.6498C39.4323 11.5987 39.4279 11.5476 39.4454 11.5004C39.463 11.4532 39.4805 11.4061 39.5024 11.3589C39.5244 11.3117 39.5463 11.2724 39.5683 11.2291C39.5902 11.1859 39.6165 11.1505 39.6428 11.1112L39.7218 11.0247L39.8183 10.9382L39.9368 10.8556L40.064 10.7809L40.2088 10.7141C40.2567 10.693 40.3066 10.6759 40.358 10.6629L40.5159 10.6236C40.5699 10.62 40.6242 10.62 40.6782 10.6236C40.7336 10.6176 40.7896 10.6176 40.845 10.6236C40.9605 10.6352 41.0724 10.6673 41.174 10.718C41.23 10.7462 41.2829 10.7791 41.3319 10.8163C41.386 10.8568 41.4359 10.9016 41.4811 10.95C41.5332 11.005 41.5815 11.0628 41.6259 11.123C41.6698 11.1937 41.7136 11.2684 41.7531 11.3431C41.7926 11.4179 41.8321 11.5161 41.8672 11.6066" stroke="#FF6800" stroke-linecap="round"/>
<path d="M41.8367 15.7113C41.8486 15.684 41.8633 15.6577 41.8806 15.6327L41.9157 15.5501L41.942 15.4675C41.9514 15.4418 41.9587 15.4155 41.9639 15.3889C41.966 15.3614 41.966 15.3338 41.9639 15.3063C41.9639 15.2788 41.9639 15.2513 41.9639 15.2277V15.1491C41.9661 15.1216 41.9661 15.094 41.9639 15.0665V14.9839C41.9587 14.956 41.9514 14.9284 41.942 14.9014C41.9344 14.8718 41.9241 14.8429 41.9113 14.8149C41.9015 14.7854 41.8898 14.7565 41.8762 14.7284C41.8634 14.6988 41.8487 14.6699 41.8323 14.6419C41.818 14.611 41.8019 14.5808 41.784 14.5514L41.7226 14.461C41.7038 14.4291 41.6818 14.3988 41.6568 14.3706C41.625 14.3301 41.5957 14.2881 41.5691 14.2447C41.5416 14.2014 41.5167 14.1568 41.4945 14.1111C41.4945 14.0639 41.455 14.0167 41.4375 13.9695C41.4199 13.9223 41.4024 13.8712 41.3892 13.8201C41.376 13.769 41.3673 13.7179 41.3585 13.6668C41.3497 13.6156 41.3585 13.5645 41.3585 13.5134C41.3585 13.4623 41.3585 13.4112 41.3585 13.3601C41.3585 13.309 41.3585 13.2539 41.3585 13.2028C41.3585 13.1517 41.3585 13.1006 41.3585 13.0534C41.3585 13.0062 41.3585 12.9551 41.3804 12.904C41.4024 12.8529 41.4024 12.8096 41.4155 12.7624L41.455 12.6248L41.5076 12.499L41.5647 12.381C41.5866 12.3457 41.6086 12.3103 41.6349 12.2749L41.7051 12.1845C41.7412 12.1377 41.7824 12.0943 41.8279 12.0547C41.8734 12.0113 41.9234 11.9718 41.9771 11.9368C42.0299 11.9016 42.0857 11.8701 42.1438 11.8424C42.2041 11.8126 42.2673 11.7876 42.3325 11.7677C42.3977 11.7447 42.4653 11.7276 42.5343 11.7166C42.6023 11.7046 42.6712 11.6967 42.7405 11.693C42.809 11.687 42.8781 11.687 42.9467 11.693C43.0168 11.7013 43.0859 11.7158 43.1529 11.7362C43.221 11.759 43.2871 11.7866 43.3503 11.8188C43.4164 11.8564 43.4782 11.8998 43.5346 11.9485C43.5943 12.0003 43.6487 12.0569 43.6969 12.1176C43.7505 12.1874 43.7974 12.261 43.8373 12.3378C43.8822 12.4253 43.9189 12.5161 43.947 12.6091C43.9816 12.7174 44.008 12.8278 44.0259 12.9394C44.0482 13.0696 44.0613 13.2009 44.0654 13.3326" stroke="#FF6800" stroke-linecap="round"/>
<path d="M44.1265 16.8236C44.1265 16.8236 43.9072 15.9389 43.8238 15.7148C43.7405 15.4907 42.92 13.1119 44.9733 13.2574C47.0265 13.4029 46.3728 15.2744 46.0701 16.5523C45.7674 17.8301 46.7721 18.7266 47.0046 19.45C47.2371 20.1735 48.018 21.1722 46.3202 26.4802C44.6223 31.7881 45.4954 34.2927 45.276 37.3399C45.0566 40.3871 43.7405 42.4513 39.9016 42.353C36.0627 42.2547 35.352 39.6518 35.624 36.9978C35.896 34.3438 37.1596 32.9166 37.1069 29.7711C37.0543 26.6256 36.4488 25.6938 34.1455 23.2364" stroke="#FF6800" stroke-linecap="round"/>
<path d="M34.6936 14.83C36.295 14.4644 37.2163 14.6609 38.0937 15.0777C38.9712 15.4945 39.875 16.3792 40.1514 18.1013" stroke="#FF6800" stroke-linecap="round"/>
<path d="M36.9668 10.0611C36.8498 9.71641 36.6338 9.40532 36.3405 9.15897C36.0471 8.91262 35.6867 8.73967 35.2953 8.65744C34.4178 8.51196 32.5006 9.59322 33.0753 12.0506C33.65 14.508 33.5974 14.335 33.0753 15.4674C32.5532 16.5998 31.1537 19.3717 32.7199 21.8055C34.2862 24.2393 37.1862 24.2865 39.6299 24.5106" stroke="#FF6800" stroke-linecap="round"/>
</svg>
