<svg width="72" height="22" viewBox="0 0 72 22" fill="none" xmlns="http://www.w3.org/2000/svg">
<path d="M22.476 13.14C23.244 12.476 23.848 11.932 24.288 11.508C24.736 11.076 25.108 10.628 25.404 10.164C25.7 9.7 25.848 9.236 25.848 8.772C25.848 8.292 25.732 7.916 25.5 7.644C25.276 7.372 24.92 7.236 24.432 7.236C23.96 7.236 23.592 7.388 23.328 7.692C23.072 7.988 22.936 8.388 22.92 8.892H21.6C21.624 7.98 21.896 7.284 22.416 6.804C22.944 6.316 23.612 6.072 24.42 6.072C25.292 6.072 25.972 6.312 26.46 6.792C26.956 7.272 27.204 7.912 27.204 8.712C27.204 9.288 27.056 9.844 26.76 10.38C26.472 10.908 26.124 11.384 25.716 11.808C25.316 12.224 24.804 12.708 24.18 13.26L23.64 13.74H27.444V14.88H21.612V13.884L22.476 13.14Z" fill="#0057FF"/>
<path d="M2.80189 2.03854C3.83731 0.464409 5.906 0.857079 6.57216 2.03854C7.23831 3.22001 7.97363 6.64464 7.44688 9.00181C6.97866 11.093 6.57641 12.8087 6.57216 15.174C6.57216 17.5565 6.752 17.3308 6.57216 18.8715C6.31676 21.0594 3.13923 21.7112 2.55182 18.8715C2.00592 16.223 2.20065 13.8048 1.32593 11.0032C0.778957 9.24478 0.991789 6.65615 1.44192 5.11541C1.78778 4.03811 2.24394 3.00607 2.80189 2.03854Z" stroke="#0057FF" stroke-width="1.5"/>
<path d="M7.25342 8.90625C4.97562 9.89449 4.67236 12.3651 6.49459 14.3415L7.25342 8.90625Z" fill="#0057FF" stroke="#0057FF" stroke-width="1.2" stroke-linecap="round"/>
<path d="M15.1986 2.03854C14.1632 0.464409 12.0945 0.857079 11.4283 2.03854C10.7622 3.22001 10.0269 6.64464 10.5536 9.00181C11.0218 11.093 11.4241 12.8087 11.4283 15.174C11.4283 17.5565 11.2485 17.3308 11.4283 18.8715C11.6837 21.0594 14.8613 21.7112 15.4487 18.8715C15.9946 16.223 15.7998 13.8048 16.6746 11.0032C17.2215 9.24478 17.0087 6.65615 16.5586 5.11541C16.2127 4.03811 15.7566 3.00607 15.1986 2.03854Z" stroke="#0057FF" stroke-width="1.5"/>
<path d="M10.7471 8.90625C13.0249 9.89449 13.3281 12.3651 11.5059 14.3415L10.7471 8.90625Z" fill="#0057FF" stroke="#0057FF" stroke-width="1.2" stroke-linecap="round"/>
<path d="M67.54 7.5V6.252H70.036V15H68.656V7.5H67.54Z" fill="#0057FF"/>
<path d="M56.8221 4.5796C56.8221 4.55861 56.8432 4.53761 56.8511 4.51662C56.861 4.49681 56.8697 4.47657 56.8773 4.45597C56.8868 4.43707 56.8947 4.41758 56.901 4.39766C56.9084 4.37933 56.9145 4.36063 56.9194 4.34168C56.9251 4.32327 56.9295 4.30457 56.9326 4.28569C56.9421 4.25058 56.9466 4.21451 56.9457 4.17839C56.9484 4.16059 56.9484 4.14255 56.9457 4.12474C56.947 4.1061 56.947 4.0874 56.9457 4.06876C56.9468 4.05089 56.9468 4.03298 56.9457 4.01511L56.9299 3.95913C56.9245 3.93927 56.9175 3.91978 56.9089 3.90081C56.8986 3.88116 56.8898 3.8609 56.8826 3.84017C56.8826 3.82151 56.8616 3.80051 56.8484 3.77952L56.809 3.7142C56.7945 3.69095 56.7787 3.66837 56.7616 3.64656L56.7091 3.56492C56.6921 3.53542 56.6772 3.50504 56.6643 3.47395L56.6249 3.37598C56.6249 3.34099 56.6012 3.30833 56.5907 3.27101C56.5802 3.23369 56.5723 3.1987 56.567 3.16138C56.5618 3.12406 56.5513 3.08673 56.546 3.04941C56.5408 3.01209 56.546 2.97243 56.5329 2.93278C56.5197 2.89313 56.5329 2.85347 56.5329 2.81615C56.5329 2.77883 56.5329 2.73684 56.5329 2.69952C56.5329 2.6622 56.5329 2.62021 56.5329 2.58289C56.5329 2.54557 56.5329 2.50592 56.5486 2.46859C56.5644 2.43127 56.5644 2.39395 56.5749 2.35896C56.5855 2.32397 56.5986 2.28898 56.6091 2.25399C56.6213 2.21965 56.6362 2.18612 56.6538 2.15369C56.6693 2.12245 56.6868 2.09207 56.7064 2.06272C56.7241 2.03413 56.7443 2.00683 56.7669 1.98108C56.7848 1.95917 56.8051 1.93886 56.8274 1.92043C56.8506 1.89828 56.8752 1.87726 56.901 1.85745L56.9878 1.79447L57.0851 1.73382L57.1903 1.68017L57.3034 1.63585C57.3427 1.62175 57.3831 1.61006 57.4243 1.60086C57.4641 1.59141 57.5045 1.58439 57.5453 1.57987C57.5873 1.57754 57.6295 1.57754 57.6715 1.57987C57.7132 1.58018 57.7547 1.58487 57.7951 1.59387C57.8376 1.60278 57.8789 1.61528 57.9187 1.63119C57.9604 1.64772 58.0001 1.66804 58.037 1.69184C58.0786 1.71734 58.1173 1.74624 58.1527 1.77814C58.1909 1.81538 58.2269 1.85431 58.2606 1.89477C58.2971 1.94317 58.3296 1.99384 58.3579 2.04639C58.3919 2.10613 58.4217 2.16767 58.4473 2.23067" stroke="#0057FF" stroke-linecap="round"/>
<path d="M58.3639 4.84672L58.3876 4.79074C58.3934 4.77174 58.4004 4.75306 58.4086 4.73476C58.4086 4.71377 58.4218 4.69511 58.427 4.67644C58.4344 4.65654 58.4405 4.63629 58.4454 4.61579L58.4612 4.55515C58.4612 4.53415 58.4612 4.51549 58.4612 4.4945V4.43152C58.4625 4.41054 58.4625 4.38952 58.4612 4.36854V4.30556C58.4612 4.28457 58.4612 4.26357 58.4612 4.24258V4.1796C58.4612 4.1586 58.4612 4.13761 58.4481 4.11895C58.4432 4.09769 58.437 4.07667 58.4297 4.05597C58.4242 4.03535 58.4172 4.01509 58.4086 3.99532C58.4086 3.97433 58.3902 3.95333 58.3797 3.93467C58.3692 3.91601 58.3586 3.89502 58.3455 3.87403C58.3324 3.85303 58.3192 3.82971 58.3061 3.80405C58.2929 3.77839 58.2824 3.75507 58.2719 3.72941L58.2403 3.64543C58.2403 3.61744 58.2245 3.58712 58.214 3.55679C58.2035 3.52647 58.2009 3.49615 58.193 3.46349C58.1851 3.43083 58.193 3.40051 58.1798 3.36785C58.1667 3.3352 58.1798 3.30254 58.1798 3.26988C58.1798 3.23723 58.1798 3.20224 58.1798 3.16958V3.07161V2.97131C58.1798 2.93865 58.1798 2.90833 58.1956 2.87567C58.2114 2.84302 58.1956 2.81269 58.214 2.78237C58.2324 2.75204 58.2298 2.72172 58.2403 2.69373C58.2508 2.66574 58.2613 2.63775 58.2745 2.60976C58.2876 2.58176 58.3008 2.55844 58.3139 2.53278C58.3271 2.50712 58.3429 2.48613 58.3586 2.4628L58.406 2.41148L58.4638 2.36017L58.5348 2.31118L58.6111 2.26686L58.6979 2.22721C58.7266 2.21471 58.7565 2.20456 58.7873 2.19688L58.882 2.17356C58.9143 2.17139 58.9469 2.17139 58.9793 2.17356C59.0124 2.17001 59.046 2.17001 59.0792 2.17356C59.1485 2.18044 59.2155 2.19947 59.2764 2.22954C59.31 2.24627 59.3417 2.2658 59.3711 2.28785C59.4034 2.31191 59.4334 2.33845 59.4605 2.36716C59.4917 2.3998 59.5207 2.43408 59.5473 2.4698C59.5736 2.51178 59.5999 2.5561 59.6235 2.60042C59.6472 2.64474 59.6709 2.70306 59.6919 2.75671" stroke="#0057FF" stroke-linecap="round"/>
<path d="M59.6729 5.19226C59.6801 5.17603 59.6889 5.16042 59.6992 5.1456L59.7202 5.09662L59.736 5.04764C59.7416 5.03238 59.746 5.01679 59.7492 5.00098C59.7504 4.98467 59.7504 4.96831 59.7492 4.952C59.7492 4.93567 59.7492 4.91934 59.7492 4.90535V4.85869C59.7505 4.84239 59.7505 4.82602 59.7492 4.80971V4.76073C59.746 4.74415 59.7416 4.72779 59.736 4.71174C59.7315 4.69422 59.7253 4.67706 59.7176 4.66042C59.7117 4.64297 59.7047 4.62583 59.6966 4.6091C59.6889 4.59157 59.6801 4.57444 59.6703 4.55779C59.6617 4.53946 59.6521 4.52155 59.6414 4.50414L59.6045 4.45049C59.5933 4.43157 59.5801 4.41362 59.5651 4.39684C59.546 4.37283 59.5285 4.34791 59.5125 4.32219C59.496 4.29648 59.4811 4.27 59.4678 4.24289C59.4678 4.2149 59.4441 4.1869 59.4336 4.15891C59.4231 4.13092 59.4126 4.1006 59.4047 4.07027C59.3968 4.03995 59.3915 4.00963 59.3863 3.9793C59.381 3.94898 59.3863 3.91865 59.3863 3.88833C59.3863 3.85801 59.3863 3.82768 59.3863 3.79736C59.3863 3.76703 59.3863 3.73438 59.3863 3.70406C59.3863 3.67373 59.3863 3.64341 59.3863 3.61542C59.3863 3.58742 59.3863 3.5571 59.3994 3.52678C59.4126 3.49645 59.4126 3.47079 59.4205 3.4428L59.4441 3.36116L59.4757 3.28652L59.5099 3.21654C59.523 3.19554 59.5362 3.17455 59.5519 3.15356L59.594 3.09991C59.6157 3.07218 59.6403 3.04641 59.6677 3.02293C59.6949 2.99719 59.7249 2.97376 59.7571 2.95296C59.7887 2.9321 59.8221 2.91339 59.857 2.89697C59.8932 2.8793 59.931 2.86447 59.9701 2.85265C60.0092 2.83903 60.0497 2.82887 60.091 2.82233C60.1318 2.81523 60.1731 2.81055 60.2146 2.80833C60.2557 2.80477 60.2971 2.80477 60.3382 2.80833C60.3803 2.81328 60.4217 2.82188 60.4618 2.83399C60.5027 2.84749 60.5422 2.86387 60.5802 2.88298C60.6198 2.90527 60.6568 2.93106 60.6906 2.95995C60.7264 2.99067 60.759 3.02424 60.7879 3.06025C60.82 3.10164 60.8481 3.14533 60.872 3.19088C60.899 3.2428 60.921 3.29664 60.9378 3.35183C60.9586 3.41611 60.9744 3.48158 60.9851 3.54777C60.9984 3.62502 61.0063 3.70292 61.0088 3.78103" stroke="#0057FF" stroke-linecap="round"/>
<path d="M61.0459 5.85189C61.0459 5.85189 60.9144 5.32706 60.8644 5.1941C60.8145 5.06114 60.3227 3.64992 61.5534 3.73622C62.7841 3.82253 62.3923 4.93285 62.2108 5.69094C62.0294 6.44904 62.6316 6.98088 62.7709 7.41008C62.9103 7.83928 63.3784 8.43176 62.3607 11.5808C61.343 14.7298 61.8663 16.2157 61.7349 18.0234C61.6034 19.8312 60.8145 21.0558 58.5135 20.9975C56.2125 20.9392 55.7865 19.395 55.9496 17.8205C56.1126 16.246 56.87 15.3993 56.8384 13.5332C56.8068 11.6671 56.4439 11.1143 55.0634 9.65637" stroke="#0057FF" stroke-linecap="round"/>
<path d="M55.3918 4.66976C56.3516 4.45283 56.9038 4.56945 57.4298 4.81671C57.9557 5.06397 58.4974 5.5888 58.6631 6.61048" stroke="#0057FF" stroke-linecap="round"/>
<path d="M56.7544 1.8404C56.6842 1.63591 56.5548 1.45134 56.379 1.3052C56.2031 1.15905 55.9871 1.05644 55.7525 1.00766C55.2265 0.921351 54.0774 1.56282 54.4218 3.0207C54.7663 4.47858 54.7348 4.37594 54.4218 5.04773C54.1089 5.71952 53.27 7.36401 54.2088 8.80789C55.1476 10.2518 56.8859 10.2798 58.3506 10.4127" stroke="#0057FF" stroke-linecap="round"/>
<path d="M49.1779 4.5796C49.1779 4.55861 49.1568 4.53761 49.1489 4.51662C49.139 4.49681 49.1303 4.47657 49.1227 4.45597C49.1132 4.43707 49.1053 4.41758 49.099 4.39766C49.0916 4.37933 49.0855 4.36063 49.0806 4.34168C49.0749 4.32327 49.0705 4.30457 49.0674 4.28569C49.0579 4.25058 49.0534 4.21451 49.0543 4.17839C49.0516 4.16059 49.0516 4.14255 49.0543 4.12474C49.053 4.1061 49.053 4.0874 49.0543 4.06876C49.0532 4.05089 49.0532 4.03298 49.0543 4.01511L49.0701 3.95913C49.0755 3.93927 49.0825 3.91978 49.0911 3.90081C49.1014 3.88116 49.1102 3.8609 49.1174 3.84017C49.1174 3.82151 49.1384 3.80051 49.1516 3.77952L49.191 3.7142C49.2055 3.69095 49.2213 3.66837 49.2384 3.64656L49.2909 3.56492C49.3079 3.53542 49.3228 3.50504 49.3357 3.47395L49.3751 3.37598C49.3751 3.34099 49.3988 3.30833 49.4093 3.27101C49.4198 3.23369 49.4277 3.1987 49.433 3.16138C49.4382 3.12406 49.4487 3.08673 49.454 3.04941C49.4592 3.01209 49.454 2.97243 49.4671 2.93278C49.4803 2.89313 49.4671 2.85347 49.4671 2.81615C49.4671 2.77883 49.4671 2.73684 49.4671 2.69952C49.4671 2.6622 49.4671 2.62021 49.4671 2.58289C49.4671 2.54557 49.4671 2.50592 49.4514 2.46859C49.4356 2.43127 49.4356 2.39395 49.4251 2.35896C49.4145 2.32397 49.4014 2.28898 49.3909 2.25399C49.3787 2.21965 49.3638 2.18612 49.3462 2.15369C49.3307 2.12245 49.3132 2.09207 49.2936 2.06272C49.2759 2.03413 49.2557 2.00683 49.2331 1.98108C49.2152 1.95917 49.1949 1.93886 49.1726 1.92043C49.1494 1.89828 49.1248 1.87726 49.099 1.85745L49.0122 1.79447L48.9149 1.73382L48.8097 1.68017L48.6966 1.63585C48.6573 1.62175 48.6169 1.61006 48.5757 1.60086C48.5359 1.59141 48.4955 1.58439 48.4547 1.57987C48.4127 1.57754 48.3705 1.57754 48.3285 1.57987C48.2868 1.58018 48.2453 1.58487 48.2049 1.59387C48.1624 1.60278 48.1211 1.61528 48.0813 1.63119C48.0396 1.64772 47.9999 1.66804 47.963 1.69184C47.9214 1.71734 47.8827 1.74624 47.8473 1.77814C47.8091 1.81538 47.7731 1.85431 47.7394 1.89477C47.7029 1.94317 47.6704 1.99384 47.6421 2.04639C47.6081 2.10613 47.5783 2.16767 47.5527 2.23067" stroke="#0057FF" stroke-linecap="round"/>
<path d="M47.6361 4.84672L47.6124 4.79074C47.6066 4.77174 47.5996 4.75306 47.5914 4.73476C47.5914 4.71377 47.5782 4.69511 47.573 4.67644C47.5656 4.65654 47.5595 4.63629 47.5546 4.61579L47.5388 4.55515C47.5388 4.53415 47.5388 4.51549 47.5388 4.4945V4.43152C47.5375 4.41054 47.5375 4.38952 47.5388 4.36854V4.30556C47.5388 4.28457 47.5388 4.26357 47.5388 4.24258V4.1796C47.5388 4.1586 47.5388 4.13761 47.5519 4.11895C47.5568 4.09769 47.563 4.07667 47.5703 4.05597C47.5758 4.03535 47.5828 4.01509 47.5914 3.99532C47.5914 3.97433 47.6098 3.95333 47.6203 3.93467C47.6308 3.91601 47.6414 3.89502 47.6545 3.87403C47.6676 3.85303 47.6808 3.82971 47.6939 3.80405C47.7071 3.77839 47.7176 3.75507 47.7281 3.72941L47.7597 3.64543C47.7597 3.61744 47.7755 3.58712 47.786 3.55679C47.7965 3.52647 47.7991 3.49615 47.807 3.46349C47.8149 3.43083 47.807 3.40051 47.8202 3.36785C47.8333 3.3352 47.8202 3.30254 47.8202 3.26988C47.8202 3.23723 47.8202 3.20224 47.8202 3.16958V3.07161V2.97131C47.8202 2.93865 47.8202 2.90833 47.8044 2.87567C47.7886 2.84302 47.8044 2.81269 47.786 2.78237C47.7676 2.75204 47.7702 2.72172 47.7597 2.69373C47.7492 2.66574 47.7387 2.63775 47.7255 2.60976C47.7124 2.58176 47.6992 2.55844 47.6861 2.53278C47.6729 2.50712 47.6571 2.48613 47.6414 2.4628L47.594 2.41148L47.5362 2.36017L47.4652 2.31118L47.3889 2.26686L47.3021 2.22721C47.2734 2.21471 47.2435 2.20456 47.2127 2.19688L47.118 2.17356C47.0857 2.17139 47.0531 2.17139 47.0207 2.17356C46.9876 2.17001 46.954 2.17001 46.9208 2.17356C46.8515 2.18044 46.7845 2.19947 46.7236 2.22954C46.69 2.24627 46.6583 2.2658 46.6289 2.28785C46.5966 2.31191 46.5666 2.33845 46.5395 2.36716C46.5083 2.3998 46.4793 2.43408 46.4527 2.4698C46.4264 2.51178 46.4001 2.5561 46.3765 2.60042C46.3528 2.64474 46.3291 2.70306 46.3081 2.75671" stroke="#0057FF" stroke-linecap="round"/>
<path d="M46.3271 5.19226C46.3199 5.17603 46.3111 5.16042 46.3008 5.1456L46.2798 5.09662L46.264 5.04764C46.2584 5.03238 46.254 5.01679 46.2508 5.00098C46.2496 4.98467 46.2496 4.96831 46.2508 4.952C46.2508 4.93567 46.2508 4.91934 46.2508 4.90535V4.85869C46.2495 4.84239 46.2495 4.82602 46.2508 4.80971V4.76073C46.254 4.74415 46.2584 4.72779 46.264 4.71174C46.2685 4.69422 46.2747 4.67706 46.2824 4.66042C46.2883 4.64297 46.2953 4.62583 46.3034 4.6091C46.3111 4.59157 46.3199 4.57444 46.3297 4.55779C46.3383 4.53946 46.3479 4.52155 46.3586 4.50414L46.3955 4.45049C46.4067 4.43157 46.4199 4.41362 46.4349 4.39684C46.454 4.37283 46.4715 4.34791 46.4875 4.32219C46.504 4.29648 46.5189 4.27 46.5322 4.24289C46.5322 4.2149 46.5559 4.1869 46.5664 4.15891C46.5769 4.13092 46.5874 4.1006 46.5953 4.07027C46.6032 4.03995 46.6085 4.00963 46.6137 3.9793C46.619 3.94898 46.6137 3.91865 46.6137 3.88833C46.6137 3.85801 46.6137 3.82768 46.6137 3.79736C46.6137 3.76703 46.6137 3.73438 46.6137 3.70406C46.6137 3.67373 46.6137 3.64341 46.6137 3.61542C46.6137 3.58742 46.6137 3.5571 46.6006 3.52678C46.5874 3.49645 46.5874 3.47079 46.5795 3.4428L46.5559 3.36116L46.5243 3.28652L46.4901 3.21654C46.477 3.19554 46.4638 3.17455 46.4481 3.15356L46.406 3.09991C46.3843 3.07218 46.3597 3.04641 46.3323 3.02293C46.3051 2.99719 46.2751 2.97376 46.2429 2.95296C46.2113 2.9321 46.1779 2.91339 46.143 2.89697C46.1068 2.8793 46.069 2.86447 46.0299 2.85265C45.9908 2.83903 45.9503 2.82887 45.909 2.82233C45.8682 2.81523 45.8269 2.81055 45.7854 2.80833C45.7443 2.80477 45.7029 2.80477 45.6618 2.80833C45.6197 2.81328 45.5783 2.82188 45.5382 2.83399C45.4973 2.84749 45.4578 2.86387 45.4198 2.88298C45.3802 2.90527 45.3432 2.93106 45.3094 2.95995C45.2736 2.99067 45.241 3.02424 45.2121 3.06025C45.18 3.10164 45.1519 3.14533 45.128 3.19088C45.101 3.2428 45.079 3.29664 45.0622 3.35183C45.0414 3.41611 45.0256 3.48158 45.0149 3.54777C45.0016 3.62502 44.9937 3.70292 44.9912 3.78103" stroke="#0057FF" stroke-linecap="round"/>
<path d="M44.9541 5.85189C44.9541 5.85189 45.0856 5.32706 45.1356 5.1941C45.1855 5.06114 45.6773 3.64992 44.4466 3.73622C43.2159 3.82253 43.6077 4.93285 43.7892 5.69094C43.9706 6.44904 43.3684 6.98088 43.2291 7.41008C43.0897 7.83928 42.6216 8.43176 43.6393 11.5808C44.657 14.7298 44.1337 16.2157 44.2651 18.0234C44.3966 19.8312 45.1855 21.0558 47.4865 20.9975C49.7875 20.9392 50.2135 19.395 50.0504 17.8205C49.8874 16.246 49.13 15.3993 49.1616 13.5332C49.1932 11.6671 49.5561 11.1143 50.9366 9.65637" stroke="#0057FF" stroke-linecap="round"/>
<path d="M50.6082 4.66976C49.6484 4.45283 49.0962 4.56945 48.5702 4.81671C48.0443 5.06397 47.5026 5.5888 47.3369 6.61048" stroke="#0057FF" stroke-linecap="round"/>
<path d="M49.2456 1.8404C49.3158 1.63591 49.4452 1.45134 49.621 1.3052C49.7969 1.15905 50.0129 1.05644 50.2475 1.00766C50.7735 0.921351 51.9226 1.56282 51.5782 3.0207C51.2337 4.47858 51.2652 4.37594 51.5782 5.04773C51.8911 5.71952 52.73 7.36401 51.7912 8.80789C50.8524 10.2518 49.1141 10.2798 47.6494 10.4127" stroke="#0057FF" stroke-linecap="round"/>
</svg>
