<svg width="18" height="22" viewBox="0 0 18 22" fill="none" xmlns="http://www.w3.org/2000/svg">
<path d="M2.80177 2.03854C3.83718 0.464409 5.90588 0.857079 6.57203 2.03854C7.23819 3.22001 7.97351 6.64464 7.44676 9.00181C6.97854 11.093 6.57629 12.8087 6.57203 15.174C6.57203 17.5565 6.75188 17.3308 6.57203 18.8715C6.31664 21.0594 3.13911 21.7112 2.5517 18.8715C2.00579 16.223 2.20053 13.8048 1.3258 11.0032C0.778835 9.24478 0.991667 6.65615 1.4418 5.11541C1.78766 4.03811 2.24381 3.00607 2.80177 2.03854Z" stroke="#0057FF" stroke-width="1.5"/>
<path d="M7.2533 8.90588C4.9755 9.89412 4.67224 12.3647 6.49447 14.3412L7.2533 8.90588Z" fill="#0057FF" stroke="#0057FF" stroke-width="1.2" stroke-linecap="round"/>
<path d="M15.1985 2.03854C14.1631 0.464409 12.0944 0.857079 11.4282 2.03854C10.7621 3.22001 10.0267 6.64464 10.5535 9.00181C11.0217 11.093 11.424 12.8087 11.4282 15.174C11.4282 17.5565 11.2484 17.3308 11.4282 18.8715C11.6836 21.0594 14.8611 21.7112 15.4485 18.8715C15.9944 16.223 15.7997 13.8048 16.6744 11.0032C17.2214 9.24478 17.0086 6.65615 16.5584 5.11541C16.2126 4.03811 15.7564 3.00607 15.1985 2.03854Z" stroke="#0057FF" stroke-width="1.5"/>
<path d="M10.7469 8.90588C13.0247 9.89412 13.328 12.3647 11.5058 14.3412L10.7469 8.90588Z" fill="#0057FF" stroke="#0057FF" stroke-width="1.2" stroke-linecap="round"/>
</svg>
