<svg id="Layer_1" data-name="Layer 1" xmlns="http://www.w3.org/2000/svg" viewBox="0 0 17.5 21.26">
  <path d="M2.8,2A2.23,2.23,0,0,1,6.57,2a12.46,12.46,0,0,1,.88,7,26.31,26.31,0,0,0-.88,6.17,24.64,24.64,0,0,1,0,3.7,2,2,0,0,1-4,0C2,16.22,2.2,13.8,1.33,11a11.66,11.66,0,0,1,.11-5.88A16,16,0,0,1,2.8,2Z" transform="translate(-0.25 -0.25)" fill="none" stroke="#c4c4c4" stroke-width="1.5"/>
  <path d="M7.25,8.91c-2.27,1-2.58,3.45-.76,5.43Z" transform="translate(-0.25 -0.25)" fill="#c4c4c4" stroke="#c4c4c4" stroke-linecap="round" stroke-width="1.2"/>
  <path d="M15.2,2a2.23,2.23,0,0,0-3.77,0,12.46,12.46,0,0,0-.88,7,26.31,26.31,0,0,1,.88,6.17,24.64,24.64,0,0,0,0,3.7,2,2,0,0,0,4,0c.54-2.65.35-5.07,1.22-7.87a11.66,11.66,0,0,0-.11-5.88A16,16,0,0,0,15.2,2Z" transform="translate(-0.25 -0.25)" fill="none" stroke="#c4c4c4" stroke-width="1.5"/>
  <path d="M10.75,8.91c2.27,1,2.58,3.45.76,5.43Z" transform="translate(-0.25 -0.25)" fill="#c4c4c4" stroke="#c4c4c4" stroke-linecap="round" stroke-width="1.2"/>
</svg>
