<svg width="189" height="39" viewBox="0 0 189 39" fill="none" xmlns="http://www.w3.org/2000/svg">
<path d="M170.979 20.9196V8.02213C170.979 7.44352 170.647 7.44353 170.236 7.44353H162.336C161.515 7.44353 161.432 7.27618 161.432 6.534V4.21916C161.432 3.47489 161.598 3.30963 162.336 3.30963C165.792 3.30963 169.165 3.3933 172.622 3.3933C176.244 3.3933 179.866 3.30963 183.484 3.30963C184.388 3.30963 184.554 3.47698 184.554 4.38442V6.45116C184.554 7.19544 184.305 7.4431 183.567 7.4431C181.098 7.4431 178.712 7.44311 176.244 7.35943C175.173 7.35943 175.09 7.44311 175.09 8.51706V33.9815C175.09 34.4776 174.841 34.8081 174.352 34.8081C173.526 34.8081 172.705 34.8918 171.8 34.8081C171.14 34.8081 170.813 34.3948 170.896 33.5681C170.896 31.0052 170.979 28.3594 170.979 25.7965V20.9196Z" fill="#2E4353"/>
<path d="M148.656 4.8525V33.7868C148.656 34.7788 148.573 34.9445 147.586 34.9445C146.93 34.9445 146.188 35.0281 145.532 35.0281C144.706 35.0281 144.379 34.78 144.379 33.9533C144.379 28.497 144.462 23.1235 144.462 17.6667C144.462 13.4504 144.379 9.23407 144.379 5.01776C144.379 4.02581 144.545 3.86055 145.532 3.86055H147.752C148.573 3.86055 148.656 4.0279 148.656 4.8525Z" fill="#2E4353"/>
<path d="M34.1509 18.973C33.8232 14.7567 35.3043 11.119 38.1007 7.97743C39.3786 6.60351 40.9178 5.50613 42.6272 4.75307C44.8511 3.67828 47.1538 3.43018 49.4564 3.34777C51.004 3.23481 52.5599 3.37454 54.0659 3.76112C58.0987 5.00116 61.3888 7.23357 63.2808 11.2846C64.5254 13.9986 65.0938 16.9799 64.9279 19.9653C64.8283 21.7802 64.4383 23.5671 63.7745 25.2564C63.3638 26.4141 62.953 27.6541 62.1273 28.6452C58.5924 32.8615 54.0659 35.094 48.469 34.6806C44.5192 34.4325 40.9801 33.1096 38.2667 30.1334C35.5533 27.1571 33.9061 23.7675 34.0721 19.6323C34.1384 19.4194 34.1634 19.196 34.1509 18.973ZM60.8121 18.973C60.7292 18.4768 60.7292 17.981 60.6462 17.402C59.9906 11.3666 54.5555 6.40646 48.2201 7.39841C44.6022 7.89459 41.7228 9.63082 39.9926 12.8548C38.1007 16.3272 37.69 19.9649 39.333 23.7679C40.3204 26.0003 41.6398 27.9842 43.9425 29.1418C45.2618 29.8033 46.66 30.4647 48.2201 30.63C49.5643 30.8258 50.9335 30.7693 52.2528 30.4626C53.7797 30.0334 55.2069 29.3025 56.4516 28.313C59.2687 26.0593 60.8827 22.5998 60.8121 18.973Z" fill="#2E4353"/>
<path d="M14.7373 3.67773C15.7247 3.76141 16.791 3.67774 17.7785 3.92583C18.7576 4.14631 19.7036 4.5082 20.579 5.00062C21.6578 5.71059 22.6494 6.54272 23.5414 7.4807C24.0351 7.89405 23.9521 8.39023 23.4584 8.80358C22.8817 9.21693 22.305 9.63027 21.7283 9.96078C21.135 10.2076 20.4462 9.9997 20.0811 9.4646C19.1269 8.32706 17.8241 7.54178 16.3803 7.23261C15.09 6.98451 13.7581 7.06986 12.5134 7.4807C11.1443 7.88191 10.1195 9.04079 9.87885 10.457C9.61747 11.7895 10.1693 13.158 11.2771 13.9294C11.8164 14.3465 12.3973 14.7068 13.0072 15.0042C14.8161 15.8309 16.708 16.5752 18.5211 17.4019C20.6578 18.3114 22.7157 19.4686 24.2799 21.2873C25.6781 22.9407 26.1719 24.7597 26.0889 26.9089C26.0059 29.7195 24.6907 31.7038 22.305 33.1091C19.6704 34.6797 16.791 35.0106 13.9116 34.6797C12.4346 34.5044 10.9742 34.1998 9.55107 33.7701C7.08244 33.0263 5.43533 31.29 3.87117 29.3885C3.5351 28.912 3.64711 28.2405 4.1201 27.9004C4.72169 27.4938 5.35651 27.1344 6.01205 26.8256C6.51407 26.6311 7.09077 26.8009 7.41024 27.239C8.04088 28.036 8.75862 28.7572 9.55107 29.3885C12.5134 31.5381 15.7206 31.7034 19.0937 30.4633C20.6578 29.8019 21.5623 28.4794 21.9731 26.8256C22.0561 26.5846 22.0561 26.3227 21.9731 26.0818C21.5623 24.3455 20.7408 22.9402 19.0107 22.196C16.874 21.204 14.7332 20.2945 12.5923 19.3025C11.0821 18.5888 9.62163 17.7596 8.23173 16.8224C6.67172 15.7477 5.92905 14.1771 5.68011 12.2756C5.02457 6.57117 9.21917 4.00825 13.0901 3.67773H14.7373Z" fill="#2E4353"/>
<path d="M77.5635 4.46809C77.5635 3.47614 77.6465 3.3933 78.634 3.3933C79.2107 3.40669 79.7874 3.37866 80.3599 3.30963C81.3474 3.30963 81.5133 3.39331 81.5133 4.38442V29.7656C81.5133 30.5922 81.5963 30.7575 82.4178 30.7575H96.8189C97.8893 30.7575 98.0511 30.8412 97.9681 31.9975V33.8162C97.9723 33.838 97.9723 33.8601 97.9723 33.8819C97.9723 34.2952 97.6404 34.6366 97.2296 34.6429C96.9848 34.6843 96.7359 34.6843 96.4911 34.6429C91.3837 34.6429 86.2847 34.5592 81.1026 34.5592C80.1151 34.5592 79.2107 34.6429 78.2232 34.6429C77.4806 34.6429 77.3146 34.4755 77.3146 33.7334C77.3976 28.8569 77.5635 9.34585 77.5635 4.46809Z" fill="#2E4353"/>
<path d="M129.509 30.8047C130.497 30.8047 130.658 30.9721 130.658 31.9665V33.709C130.658 34.5386 130.41 34.7876 129.592 34.7876H115.93C115.61 34.7817 115.295 34.8687 115.025 35.0386C113.71 35.7854 112.474 36.615 111.158 37.3618C110.337 37.8596 110.088 37.6935 110.088 36.7811V31.467C110.088 30.8863 110.254 30.6374 110.909 30.7202C113.955 30.7214 126.464 30.8047 129.509 30.8047Z" fill="#2E4353"/>
<path d="M122.759 7.29389H116.013C115.693 7.28804 115.378 7.37505 115.108 7.54491C113.789 8.2917 112.557 9.12133 111.241 9.86811C111.026 9.96559 110.806 10.0493 110.582 10.1191C110.254 10.2028 110.088 10.0367 110.088 9.62128C110.088 7.62985 110.171 5.72167 110.171 3.72982C110.171 3.23196 110.499 3.3148 110.831 3.3148H116.506C120.95 3.3148 125.393 3.39847 129.837 3.39847C130.58 3.39847 130.741 3.56582 130.741 4.31135V6.21994C130.741 7.04957 130.492 7.2985 129.754 7.2985H124.817C124.136 7.38175 123.443 7.38175 122.759 7.2985V7.29389Z" fill="#2E4353"/>
<path d="M129.463 16.7949C130.529 16.7949 130.695 16.9622 130.695 18.0395V19.8649C130.704 19.905 130.704 19.9456 130.704 19.9862C130.704 20.4071 130.372 20.7585 129.957 20.7777H129.131C124.771 20.7777 120.41 20.6941 116.05 20.6941C115.705 20.6978 115.365 20.7832 115.062 20.943C113.826 21.6898 112.594 22.5194 111.357 23.2662L110.863 23.5172C110.37 23.6846 110.042 23.5172 110.042 22.9365C110.042 21.0279 110.125 19.1198 110.125 17.1283C110.125 16.6305 110.453 16.5476 110.785 16.5476C112.183 16.6313 113.581 16.6313 115.062 16.715C116.788 16.8777 126.418 16.7949 129.463 16.7949Z" fill="#2E4353"/>
</svg>
