<svg version="1.1" id="Layer_1" xmlns="http://www.w3.org/2000/svg" xmlns:xlink="http://www.w3.org/1999/xlink" x="0px" y="0px"
	 viewBox="0 0 435.5 147" style="enable-background:new 0 0 435.5 147;" xml:space="preserve">
<path fill="#478AFF" d="M73.5,40C55,40,40,55,40,73.5S55,107,73.5,107S107,92,107,73.5l0,0C107,55,92,40,73.5,40z"/>
<circle fill="#478AFF" cx="121.6" cy="27.7" r="15.3"/>
<path fill="#478AFF" d="M140.4,43.1l-0.6-1.4l-1,1.2c-2.5,2.8-5.7,5-9.2,6.3l-1,0.4l0.4,1c12.7,30.6-1.8,65.8-32.4,78.6
	c-30.6,12.7-65.8-1.8-78.6-32.4s1.8-65.8,32.4-78.6c15.7-6.5,33.5-6.1,48.8,1.2l0.9,0.4l0.4-1c1.5-3.5,3.8-6.5,6.8-8.9l1.2-1
	l-1.4-0.7C96.8,2.7,85.2-0.1,73.5,0C32.9,0,0,32.9,0,73.5S32.9,147,73.5,147S147,114.1,147,73.5C147,62.9,144.7,52.5,140.4,43.1
	L140.4,43.1z"/>
<rect x="184.8" y="41.5" fill="#478AFF" width="15.5" height="64"/>
<rect x="352.1" y="41.5" fill="#478AFF" width="15.5" height="64"/>
<path fill="#478AFF" d="M316.3,40c-10.9,0-19.3,6.6-21.2,8.4l0,0l-1-6.9h-12.9v64h15.5V66.8c0-7.6,10.3-13.8,17.9-13.8
	s13.2,7.2,13.2,15.8v36.8h15.5V70.3C343.2,53.5,336,40,316.3,40z"/>
<path fill="#478AFF" d="M408.3,93.9c-11.6,0-19.4-9.1-19.4-20.4s7.7-20.4,19.4-20.4c9.9,0,16,9.6,16,9.6l11.2-7.5c-3.2-5-7-8-12.1-11.1
	c-4.4-2.7-9.5-4.1-14.7-4.2c-19.4,0-34.2,14.6-34.3,33.5c0.1,18.9,14.9,33.5,34.3,33.5c5.1,0,10.2-1.5,14.6-4.1
	c5.1-3.1,8.9-6.1,12.1-11.1l-11.2-7.5C424.2,84.2,418.2,93.9,408.3,93.9z"/>
<path fill="#478AFF" d="M240.8,40c-18.2-0.3-33.2,14.2-33.5,32.5c0,0.3,0,0.5,0,0.8c0,18.2,13.6,33.8,33.8,33.8
	c18.3,0,33.2-14,33.2-33.4C274.2,51.4,256.8,40,240.8,40z M240.9,53.2c9.6,0,18.7,7.8,18.7,20.4c0,12.3-9.1,20.3-18.8,20.3
	c-10.6,0-19-8.6-19-20.4C221.9,61.8,230.2,53.2,240.9,53.2L240.9,53.2z"/>
</svg>
