<svg width="73" height="36" viewBox="0 0 73 36" fill="none" xmlns="http://www.w3.org/2000/svg">
<path d="M65.761 29.046V24.0854C65.761 23.8629 65.6333 23.8629 65.4754 23.8629H62.437C62.1211 23.8629 62.0892 23.7985 62.0892 23.5131V22.6228C62.0892 22.3365 62.153 22.2729 62.437 22.2729C63.7663 22.2729 65.0637 22.3051 66.3929 22.3051C67.786 22.3051 69.1791 22.2729 70.5706 22.2729C70.9185 22.2729 70.9823 22.3373 70.9823 22.6863V23.4812C70.9823 23.7675 70.8866 23.8627 70.6025 23.8627C69.653 23.8627 68.7355 23.8627 67.786 23.8306C67.3743 23.8306 67.3424 23.8627 67.3424 24.2758V34.0698C67.3424 34.2606 67.2466 34.3878 67.0583 34.3878C66.7408 34.3878 66.4248 34.4199 66.077 34.3878C65.8232 34.3878 65.6972 34.2288 65.7291 33.9108C65.7291 32.9251 65.761 31.9075 65.761 30.9217V29.046Z" fill="white"/>
<path d="M57.1754 22.8664V33.995C57.1754 34.3765 57.1435 34.4402 56.7637 34.4402C56.5116 34.4402 56.226 34.4724 55.9738 34.4724C55.6563 34.4724 55.5302 34.377 55.5302 34.059C55.5302 31.9604 55.5621 29.8937 55.5621 27.7949C55.5621 26.1733 55.5302 24.5516 55.5302 22.9299C55.5302 22.5484 55.594 22.4849 55.9738 22.4849H56.8276C57.1435 22.4849 57.1754 22.5492 57.1754 22.8664Z" fill="white"/>
<path d="M13.135 28.2972C13.0089 26.6756 13.5786 25.2765 14.6541 24.0682C15.1456 23.5397 15.7376 23.1177 16.3951 22.828C17.2504 22.4147 18.1361 22.3192 19.0217 22.2875C19.6169 22.2441 20.2153 22.2978 20.7946 22.4465C22.3457 22.9235 23.6111 23.7821 24.3387 25.3402C24.8175 26.384 25.0361 27.5307 24.9723 28.6789C24.934 29.377 24.784 30.0642 24.5286 30.714C24.3707 31.1592 24.2127 31.6361 23.8951 32.0173C22.5355 33.639 20.7946 34.4976 18.6419 34.3386C17.1228 34.2432 15.7616 33.7344 14.718 32.5897C13.6743 31.445 13.0408 30.1413 13.1046 28.5508C13.1302 28.4689 13.1397 28.383 13.135 28.2972ZM23.3893 28.2972C23.3574 28.1064 23.3574 27.9157 23.3254 27.693C23.0733 25.3717 20.9829 23.464 18.5462 23.8455C17.1547 24.0363 16.0472 24.7041 15.3818 25.9441C14.6541 27.2796 14.4961 28.6788 15.1281 30.1414C15.5078 31.0001 16.0153 31.7631 16.9009 32.2083C17.4084 32.4627 17.9462 32.7171 18.5462 32.7807C19.0632 32.856 19.5898 32.8343 20.0972 32.7163C20.6845 32.5512 21.2334 32.2701 21.7121 31.8896C22.7957 31.0227 23.4164 29.6922 23.3893 28.2972Z" fill="white"/>
<path d="M5.66816 22.4146C6.04795 22.4467 6.45807 22.4146 6.83786 22.51C7.21446 22.5948 7.57829 22.734 7.91499 22.9234C8.32989 23.1964 8.71128 23.5165 9.05436 23.8772C9.24426 24.0362 9.21233 24.2271 9.02244 24.386C8.80063 24.545 8.57883 24.704 8.35702 24.8311C8.12883 24.926 7.86392 24.8461 7.72349 24.6403C7.35647 24.2028 6.85541 23.9007 6.30009 23.7818C5.80381 23.6864 5.29156 23.7192 4.81284 23.8772C4.28624 24.0315 3.89209 24.4773 3.79954 25.0219C3.699 25.5345 3.91124 26.0608 4.3373 26.3575C4.54475 26.5179 4.76816 26.6565 5.00274 26.7709C5.69849 27.0889 6.42614 27.3751 7.12349 27.6931C7.9453 28.0429 8.73679 28.488 9.33839 29.1875C9.87616 29.8234 10.0661 30.523 10.0342 31.3496C10.0022 32.4306 9.49639 33.1938 8.57883 33.7343C7.56553 34.3384 6.45806 34.4656 5.3506 34.3384C4.78252 34.2709 4.22081 34.1538 3.67346 33.9885C2.72399 33.7024 2.09049 33.0347 1.48889 32.3033C1.35963 32.1201 1.40271 31.8618 1.58463 31.731C1.81601 31.5746 2.06017 31.4363 2.3123 31.3176C2.50539 31.2428 2.7272 31.3081 2.85007 31.4766C3.09262 31.7831 3.36868 32.0605 3.67346 32.3033C4.81283 33.1301 6.04635 33.1936 7.3437 32.7167C7.9453 32.4623 8.29318 31.9537 8.45116 31.3176C8.48308 31.2249 8.48308 31.1242 8.45116 31.0315C8.29318 30.3637 7.97722 29.8232 7.31179 29.5369C6.48998 29.1554 5.66657 28.8056 4.84317 28.4241C4.26231 28.1496 3.7006 27.8306 3.16603 27.4702C2.56602 27.0568 2.28038 26.4528 2.18463 25.7214C1.9325 23.5274 3.54581 22.5417 5.03465 22.4146H5.66816Z" fill="white"/>
<path d="M29.8321 22.7185C29.8321 22.337 29.864 22.3051 30.2438 22.3051C30.4656 22.3103 30.6874 22.2995 30.9076 22.2729C31.2874 22.2729 31.3512 22.3051 31.3512 22.6863V32.4483C31.3512 32.7663 31.3832 32.8298 31.6991 32.8298H37.238C37.6497 32.8298 37.7119 32.862 37.68 33.3068V34.0062C37.6816 34.0146 37.6816 34.0231 37.6816 34.0315C37.6816 34.1905 37.5539 34.3218 37.3959 34.3242C37.3018 34.3401 37.206 34.3401 37.1119 34.3242C35.1475 34.3242 33.1864 34.292 31.1933 34.292C30.8135 34.292 30.4656 34.3242 30.0858 34.3242C29.8002 34.3242 29.7363 34.2598 29.7363 33.9744C29.7682 32.0988 29.8321 24.5946 29.8321 22.7185Z" fill="white"/>
<path d="M49.8113 32.8479C50.1911 32.8479 50.2533 32.9123 50.2533 33.2948V33.965C50.2533 34.284 50.1576 34.3798 49.8432 34.3798H44.5884C44.4655 34.3775 44.3442 34.411 44.2405 34.4763C43.7347 34.7636 43.2591 35.0826 42.7533 35.3699C42.4373 35.5614 42.3416 35.4975 42.3416 35.1465V33.1026C42.3416 32.8793 42.4054 32.7836 42.6575 32.8154C43.8288 32.8159 48.64 32.8479 49.8113 32.8479Z" fill="white"/>
<path d="M47.215 23.8054H44.6203C44.4974 23.8031 44.3761 23.8366 44.2724 23.9019C43.765 24.1891 43.291 24.5082 42.7852 24.7954C42.7022 24.8329 42.6176 24.8651 42.5315 24.892C42.4054 24.9242 42.3416 24.8603 42.3416 24.7005C42.3416 23.9346 42.3735 23.2007 42.3735 22.4346C42.3735 22.2431 42.4995 22.2749 42.6272 22.2749H44.8102C46.5192 22.2749 48.2283 22.3071 49.9373 22.3071C50.223 22.3071 50.2852 22.3715 50.2852 22.6582V23.3923C50.2852 23.7114 50.1895 23.8071 49.9054 23.8071H48.0065C47.7448 23.8392 47.4783 23.8392 47.215 23.8071V23.8054Z" fill="white"/>
<path d="M49.7936 27.4596C50.2037 27.4596 50.2675 27.524 50.2675 27.9383V28.6404C50.2707 28.6558 50.2707 28.6714 50.2707 28.687C50.2707 28.8489 50.143 28.9841 49.9835 28.9915H49.6659C47.9888 28.9915 46.3116 28.9593 44.6345 28.9593C44.5021 28.9607 44.3712 28.9936 44.2547 29.055C43.7792 29.3423 43.3052 29.6613 42.8297 29.9486L42.6398 30.0451C42.4499 30.1095 42.3239 30.0451 42.3239 29.8218C42.3239 29.0877 42.3558 28.3538 42.3558 27.5878C42.3558 27.3964 42.4818 27.3645 42.6095 27.3645C43.1473 27.3967 43.685 27.3967 44.2547 27.4289C44.9185 27.4915 48.6223 27.4596 49.7936 27.4596Z" fill="white"/>
<path d="M8.54275 7.024C8.54275 7.744 8.30675 8.324 7.83475 8.764C7.36275 9.204 6.65475 9.424 5.71075 9.424H4.01875V13H3.17875V4.612H5.71075C6.64675 4.612 7.35075 4.832 7.82275 5.272C8.30275 5.712 8.54275 6.296 8.54275 7.024ZM5.71075 8.704C7.02275 8.704 7.67875 8.144 7.67875 7.024C7.67875 6.464 7.52275 6.04 7.21075 5.752C6.89875 5.464 6.39875 5.32 5.71075 5.32H4.01875V8.704H5.71075ZM12.8202 13.096C12.2042 13.096 11.6482 12.96 11.1522 12.688C10.6642 12.408 10.2762 12.016 9.98819 11.512C9.70819 11 9.56819 10.404 9.56819 9.724C9.56819 9.044 9.71219 8.452 10.0002 7.948C10.2882 7.436 10.6802 7.044 11.1762 6.772C11.6722 6.492 12.2282 6.352 12.8442 6.352C13.4602 6.352 14.0162 6.492 14.5122 6.772C15.0162 7.044 15.4082 7.436 15.6882 7.948C15.9762 8.452 16.1202 9.044 16.1202 9.724C16.1202 10.396 15.9762 10.988 15.6882 11.5C15.4002 12.012 15.0042 12.408 14.5002 12.688C13.9962 12.96 13.4362 13.096 12.8202 13.096ZM12.8202 12.364C13.2522 12.364 13.6522 12.268 14.0202 12.076C14.3882 11.876 14.6842 11.58 14.9082 11.188C15.1402 10.788 15.2562 10.3 15.2562 9.724C15.2562 9.148 15.1442 8.664 14.9202 8.272C14.6962 7.872 14.4002 7.576 14.0322 7.384C13.6642 7.184 13.2642 7.084 12.8322 7.084C12.4002 7.084 12.0002 7.184 11.6322 7.384C11.2642 7.576 10.9682 7.872 10.7442 8.272C10.5282 8.664 10.4202 9.148 10.4202 9.724C10.4202 10.3 10.5282 10.788 10.7442 11.188C10.9682 11.58 11.2602 11.876 11.6202 12.076C11.9882 12.268 12.3882 12.364 12.8202 12.364ZM26.2914 6.448L24.2394 13H23.3994L21.5874 7.504L19.7754 13H18.9234L16.8714 6.448H17.7234L19.3554 12.148L21.1914 6.448H22.0314L23.8434 12.16L25.4634 6.448H26.2914ZM33.3646 9.388C33.3646 9.676 33.3566 9.896 33.3406 10.048H27.9046C27.9286 10.544 28.0486 10.968 28.2646 11.32C28.4806 11.672 28.7646 11.94 29.1166 12.124C29.4686 12.3 29.8526 12.388 30.2686 12.388C30.8126 12.388 31.2686 12.256 31.6366 11.992C32.0126 11.728 32.2606 11.372 32.3806 10.924H33.2686C33.1086 11.564 32.7646 12.088 32.2366 12.496C31.7166 12.896 31.0606 13.096 30.2686 13.096C29.6526 13.096 29.1006 12.96 28.6126 12.688C28.1246 12.408 27.7406 12.016 27.4606 11.512C27.1886 11 27.0526 10.404 27.0526 9.724C27.0526 9.044 27.1886 8.448 27.4606 7.936C27.7326 7.424 28.1126 7.032 28.6006 6.76C29.0886 6.488 29.6446 6.352 30.2686 6.352C30.8926 6.352 31.4366 6.488 31.9006 6.76C32.3726 7.032 32.7326 7.4 32.9806 7.864C33.2366 8.32 33.3646 8.828 33.3646 9.388ZM32.5126 9.364C32.5206 8.876 32.4206 8.46 32.2126 8.116C32.0126 7.772 31.7366 7.512 31.3846 7.336C31.0326 7.16 30.6486 7.072 30.2326 7.072C29.6086 7.072 29.0766 7.272 28.6366 7.672C28.1966 8.072 27.9526 8.636 27.9046 9.364H32.5126ZM35.7414 7.612C35.9254 7.204 36.2054 6.888 36.5814 6.664C36.9654 6.44 37.4334 6.328 37.9854 6.328V7.204H37.7574C37.1494 7.204 36.6614 7.368 36.2934 7.696C35.9254 8.024 35.7414 8.572 35.7414 9.34V13H34.9014V6.448H35.7414V7.612ZM45.1771 9.388C45.1771 9.676 45.1691 9.896 45.1531 10.048H39.7171C39.7411 10.544 39.8611 10.968 40.0771 11.32C40.2931 11.672 40.5771 11.94 40.9291 12.124C41.2811 12.3 41.6651 12.388 42.0811 12.388C42.6251 12.388 43.0811 12.256 43.4491 11.992C43.8251 11.728 44.0731 11.372 44.1931 10.924H45.0811C44.9211 11.564 44.5771 12.088 44.0491 12.496C43.5291 12.896 42.8731 13.096 42.0811 13.096C41.4651 13.096 40.9131 12.96 40.4251 12.688C39.9371 12.408 39.5531 12.016 39.2731 11.512C39.0011 11 38.8651 10.404 38.8651 9.724C38.8651 9.044 39.0011 8.448 39.2731 7.936C39.5451 7.424 39.9251 7.032 40.4131 6.76C40.9011 6.488 41.4571 6.352 42.0811 6.352C42.7051 6.352 43.2491 6.488 43.7131 6.76C44.1851 7.032 44.5451 7.4 44.7931 7.864C45.0491 8.32 45.1771 8.828 45.1771 9.388ZM44.3251 9.364C44.3331 8.876 44.2331 8.46 44.0251 8.116C43.8251 7.772 43.5491 7.512 43.1971 7.336C42.8451 7.16 42.4611 7.072 42.0451 7.072C41.4211 7.072 40.8891 7.272 40.4491 7.672C40.0091 8.072 39.7651 8.636 39.7171 9.364H44.3251ZM46.3299 9.712C46.3299 9.04 46.4659 8.452 46.7379 7.948C47.0099 7.436 47.3819 7.044 47.8539 6.772C48.3339 6.492 48.8739 6.352 49.4739 6.352C50.0499 6.352 50.5699 6.492 51.0339 6.772C51.4979 7.052 51.8379 7.416 52.0539 7.864V4.12H52.8939V13H52.0539V11.536C51.8539 11.992 51.5259 12.368 51.0699 12.664C50.6139 12.952 50.0779 13.096 49.4619 13.096C48.8619 13.096 48.3219 12.956 47.8419 12.676C47.3699 12.396 46.9979 12 46.7259 11.488C46.4619 10.976 46.3299 10.384 46.3299 9.712ZM52.0539 9.724C52.0539 9.196 51.9459 8.732 51.7299 8.332C51.5139 7.932 51.2179 7.624 50.8419 7.408C50.4739 7.192 50.0659 7.084 49.6179 7.084C49.1539 7.084 48.7379 7.188 48.3699 7.396C48.0019 7.604 47.7099 7.908 47.4939 8.308C47.2859 8.7 47.1819 9.168 47.1819 9.712C47.1819 10.248 47.2859 10.72 47.4939 11.128C47.7099 11.528 48.0019 11.836 48.3699 12.052C48.7379 12.26 49.1539 12.364 49.6179 12.364C50.0659 12.364 50.4739 12.256 50.8419 12.04C51.2179 11.824 51.5139 11.516 51.7299 11.116C51.9459 10.716 52.0539 10.252 52.0539 9.724ZM58.9325 7.9C59.1485 7.444 59.4805 7.072 59.9285 6.784C60.3845 6.496 60.9205 6.352 61.5365 6.352C62.1365 6.352 62.6725 6.492 63.1445 6.772C63.6165 7.044 63.9845 7.436 64.2485 7.948C64.5205 8.452 64.6565 9.04 64.6565 9.712C64.6565 10.384 64.5205 10.976 64.2485 11.488C63.9845 12 63.6125 12.396 63.1325 12.676C62.6605 12.956 62.1285 13.096 61.5365 13.096C60.9125 13.096 60.3725 12.956 59.9165 12.676C59.4685 12.388 59.1405 12.016 58.9325 11.56V13H58.1045V4.12H58.9325V7.9ZM63.8045 9.712C63.8045 9.168 63.6965 8.7 63.4805 8.308C63.2725 7.908 62.9845 7.604 62.6165 7.396C62.2485 7.188 61.8325 7.084 61.3685 7.084C60.9205 7.084 60.5085 7.192 60.1325 7.408C59.7645 7.624 59.4725 7.932 59.2565 8.332C59.0405 8.732 58.9325 9.196 58.9325 9.724C58.9325 10.252 59.0405 10.716 59.2565 11.116C59.4725 11.516 59.7645 11.824 60.1325 12.04C60.5085 12.256 60.9205 12.364 61.3685 12.364C61.8325 12.364 62.2485 12.26 62.6165 12.052C62.9845 11.836 63.2725 11.528 63.4805 11.128C63.6965 10.72 63.8045 10.248 63.8045 9.712ZM71.6022 6.448L67.7142 16.084H66.8382L68.1102 12.964L65.4222 6.448H66.3462L68.5782 12.04L70.7382 6.448H71.6022Z" fill="white"/>
</svg>
