<svg width="33" height="30" viewBox="0 0 33 30" fill="none" xmlns="http://www.w3.org/2000/svg">
<path d="M10.2376 28.3518C10.0405 28.3518 9.88086 28.1902 9.88086 27.9908V25.3021C9.88086 25.1027 10.0405 24.9412 10.2376 24.9412C10.4347 24.9412 10.5944 25.1027 10.5944 25.3021V27.9908C10.5944 28.1902 10.4347 28.3518 10.2376 28.3518Z" fill="#7C7C7C"/>
<path d="M18.8294 26.3023C18.6323 26.3023 18.4727 26.1407 18.4727 25.9413V20.7218C18.4727 20.5224 18.6323 20.3608 18.8294 20.3608C19.0265 20.3608 19.1862 20.5224 19.1862 20.7218V25.9413C19.1862 26.1407 19.0265 26.3023 18.8294 26.3023Z" fill="#7C7C7C"/>
<path d="M22.2413 26.3021C22.0444 26.3021 21.8848 26.1406 21.8848 25.9412V23.7466C21.8848 23.6509 21.9224 23.559 21.9892 23.4913L23.1451 22.3209C23.2845 22.1798 23.5101 22.1798 23.6493 22.3209C23.7887 22.4618 23.7887 22.6904 23.6493 22.8313L22.5977 23.896V25.9412C22.5979 26.1406 22.4383 26.3021 22.2413 26.3021Z" fill="#7C7C7C"/>
<path d="M25.7113 23.9448C23.7618 23.9448 22.1758 22.3392 22.1758 20.3655C22.1758 18.3919 23.7618 16.7861 25.7113 16.7861C27.6608 16.7861 29.2468 18.3919 29.2468 20.3655C29.2468 22.3392 27.6608 23.9448 25.7113 23.9448ZM25.7113 17.5081C24.155 17.5081 22.8889 18.79 22.8889 20.3655C22.8889 21.9411 24.155 23.2229 25.7113 23.2229C27.2676 23.2229 28.5337 21.9411 28.5337 20.3655C28.5337 18.79 27.2676 17.5081 25.7113 17.5081Z" fill="#7C7C7C"/>
<path d="M32.3267 21.6054C30.9916 18.1758 31.0713 13.4602 31.1556 8.46756C31.1761 7.26177 31.1971 1.5903 31.1971 0.360967C31.1971 0.161566 31.0375 -5.2085e-06 30.8405 -5.2085e-06C30.6436 -5.2085e-06 30.484 0.161566 30.484 0.360967C30.484 1.58409 30.463 7.25253 30.4426 8.45529C30.3569 13.5216 30.2762 18.3069 31.6615 21.8656C32.5341 24.1987 32.4956 26.3267 31.5558 27.7044C30.8534 28.734 29.6847 29.2782 28.176 29.2782C26.2 29.2782 24.6943 28.8281 23.2382 28.3928C21.8181 27.9684 20.3496 27.5295 18.4957 27.5295C16.6387 27.5295 15.2524 27.9693 13.9114 28.3947C12.5419 28.829 11.1261 29.2782 9.15302 29.2782H2.58686C0.978768 29.2782 0.741013 27.5809 0.713343 26.8513C0.700792 26.5195 1.09301 26.4281 1.33077 26.328C2.1607 25.9779 3.55001 25.3921 4.6689 25.3921C7.34012 25.3921 16.2048 21.0024 19.498 17.6685C22.865 14.26 21.8222 0.704902 21.7763 0.317939C21.7526 0.119982 21.5752 -0.0209419 21.3797 0.00259347C21.1843 0.0264177 21.0448 0.206182 21.0682 0.40414C21.079 0.495393 22.116 13.9969 18.9938 17.1579C15.8632 20.3272 7.16882 24.67 4.6689 24.67C3.40724 24.67 1.93578 25.2908 1.0565 25.6614C0.91858 25.7196 0.794639 25.772 0.687671 25.8149C0.259226 25.9873 -0.0167527 26.4148 0.000790165 26.8787C0.0578401 28.3876 0.767113 30 2.58686 30H9.15288C11.2351 30 12.7039 29.5339 14.1245 29.0833C15.4734 28.6555 16.7476 28.2512 18.4954 28.2512C20.2462 28.2512 21.6013 28.6563 23.036 29.085C24.5407 29.5348 26.0966 29.9999 28.1757 29.9999C29.9292 29.9999 31.3008 29.3478 32.1424 28.1143C33.2174 26.539 33.2851 24.1683 32.3267 21.6054Z" fill="#7C7C7C"/>
<path d="M22.4806 17.6341C22.6776 17.6341 22.8371 17.4726 22.8371 17.2732C22.8371 16.7727 22.9604 16.275 23.1936 15.8337C24.1657 13.9948 24.6797 11.9202 24.6797 9.83453V4.78553C24.6797 4.58613 24.5201 4.42456 24.3232 4.42456C24.1262 4.42456 23.9666 4.58613 23.9666 4.78553V9.83453C23.9666 11.8018 23.482 13.7586 22.5649 15.493C22.2765 16.0386 22.124 16.6542 22.124 17.273C22.124 17.4726 22.2836 17.6341 22.4806 17.6341Z" fill="#7C7C7C"/>
<path d="M28.6181 17.273C28.6181 17.4724 28.7777 17.634 28.9747 17.634C29.1716 17.634 29.3312 17.4724 29.3312 17.273C29.3312 16.6544 29.1788 16.0387 28.8902 15.493C27.9732 13.7584 27.4885 11.8018 27.4885 9.8345V1.98965C27.4885 1.79025 27.3289 1.62868 27.132 1.62868C26.935 1.62868 26.7754 1.79025 26.7754 1.98965V9.83435C26.7754 11.92 27.2894 13.9946 28.2615 15.8336C28.4947 16.275 28.6181 16.7727 28.6181 17.273Z" fill="#7C7C7C"/>
<path d="M19.3739 25.5105C16.2863 25.643 13.2233 26.645 11.6724 27.2305C10.7694 27.5712 9.83069 27.7442 8.88223 27.7442H4.117C4.00775 27.7442 3.91904 27.6542 3.91904 27.5436C3.91904 27.4511 3.98108 27.3712 4.06965 27.349L8.64919 26.2088C10.0943 25.8488 11.4448 25.2276 12.6628 24.3626L14.5332 23.0344C15.4632 22.3738 16.4837 21.8609 17.5661 21.5102L21.5901 20.2067C21.7777 20.1459 21.8811 19.9427 21.821 19.7528C21.761 19.563 21.5599 19.4587 21.3727 19.5191L17.3487 20.8226C16.1977 21.1956 15.1125 21.7408 14.1237 22.4432L12.2533 23.7715C11.1079 24.5851 9.83782 25.1692 8.47889 25.5076L3.89935 26.6479C3.49116 26.7496 3.20605 27.118 3.20605 27.5435C3.20605 28.052 3.61467 28.466 4.11714 28.466H8.88238C9.91626 28.466 10.9387 28.2779 11.9217 27.9069C13.4332 27.3363 16.4151 26.3601 19.4042 26.2317C22.2105 26.1117 23.995 26.5988 25.4294 26.9905C26.2558 27.2162 26.9693 27.4111 27.6755 27.426C28.7868 27.4517 29.7458 27.1137 30.3843 26.4805C30.916 25.9535 31.197 25.2499 31.197 24.4461C31.197 22.6858 30.2122 21.3895 30.1703 21.3352C30.0493 21.1784 29.8258 21.1507 29.6706 21.2728C29.5153 21.395 29.4875 21.6217 29.6079 21.7791C29.6167 21.7905 30.484 22.9414 30.484 24.4461C30.484 25.0512 30.2771 25.5765 29.8854 25.9649C29.3851 26.461 28.6024 26.7209 27.6904 26.7043C27.0712 26.6912 26.4286 26.5156 25.6151 26.2935C24.1331 25.8891 22.288 25.3852 19.3739 25.5105Z" fill="#7C7C7C"/>
</svg>
