<svg width="32" height="32" viewBox="0 0 32 32" fill="none" xmlns="http://www.w3.org/2000/svg">
<path d="M1.33562 5.71082C1.09713 7.57089 0.88514 8.59809 1.07063 9.73635C1.25612 10.8746 2.28958 14.0117 5.52244 17.7041C8.7288 21.3965 11.9352 22.2016 14.85 23.9784C17.7649 25.7552 21.7132 29.4476 24.8136 30.6136C27.914 31.7796 31.2263 30.3915 30.9878 25.2832" stroke="#FFBA35"/>
<path d="M1.46833 7.01565C0.620364 3.37879 3.90622 0.60256 6.42361 1.04676C8.94101 1.49095 14.7178 4.68362 17.3146 8.54258C19.62 11.9573 21.5015 14.7613 24.7873 17.7874C28.1262 20.8413 28.0467 20.2583 29.9546 22.507C32.684 25.6997 29.3981 31.5575 24.6548 28.8923C20.2295 26.3937 17.1027 23.0067 12.0414 20.8135C8.86151 19.4532 5.52265 15.8163 3.95922 13.1234C2.92576 11.18 2.0778 9.12558 1.46833 7.01565Z" stroke="#FFBA35"/>
<path d="M2.09724 7.03939C1.322 3.77181 4.18605 1.35574 6.48753 1.75483C8.78901 2.15392 14.5587 5.16974 16.7314 8.92671C18.8391 11.9947 20.6786 14.8896 23.6827 17.6085C26.7351 20.3522 28.1579 21.2501 29.9022 23.2705C31.7314 25.9128 28.7508 30.5721 24.4144 28.1776C20.3686 25.9327 16.9684 22.2213 12.3412 20.2507C9.43405 19.0285 6.29431 15.8217 4.86497 13.4022C3.92015 11.6561 2.65444 8.93509 2.09724 7.03939Z" stroke="white"/>
<path d="M13.71 7.54846C16.9693 10.408 14.5314 12.8511 17.2608 15.6273C19.9902 18.4035 24.813 20.3191 24.813 20.3191" stroke="#FFBA35" stroke-width="0.8" stroke-linecap="round"/>
</svg>
