<?xml version="1.0" encoding="utf-8"?>
<!-- Generator: Adobe Illustrator 25.0.1, SVG Export Plug-In . SVG Version: 6.00 Build 0)  -->
<svg version="1.1" id="Layer_1" xmlns="http://www.w3.org/2000/svg" xmlns:xlink="http://www.w3.org/1999/xlink" x="0px" y="0px"
	 viewBox="0 0 32 32" style="enable-background:new 0 0 32 32;" xml:space="preserve">
<style type="text/css">
	.st0{fill:none;stroke:#0057FF;}
	.st1{fill:none;stroke:#FFFFFF;}
	.st2{fill:none;stroke:#0057FF;stroke-width:0.8;stroke-linecap:round;}
</style>
<path class="st0" d="M1.3,5.7c-0.2,1.9-0.5,2.9-0.3,4c0.2,1.1,1.2,4.3,4.5,8c3.2,3.7,6.4,4.5,9.3,6.3c2.9,1.8,6.9,5.5,10,6.6
	s6.4-0.2,6.2-5.3"/>
<path class="st0" d="M1.5,7c-0.8-3.6,2.4-6.4,5-6c2.5,0.4,8.3,3.6,10.9,7.5c2.3,3.4,4.2,6.2,7.5,9.2c3.3,3.1,3.3,2.5,5.2,4.7
	c2.7,3.2-0.6,9.1-5.3,6.4c-4.4-2.5-7.6-5.9-12.6-8.1c-3.2-1.4-6.5-5-8.1-7.7C2.9,11.2,2.1,9.1,1.5,7z"/>
<path class="st1" d="M2.1,7C1.3,3.8,4.2,1.4,6.5,1.8s8.1,3.4,10.2,7.2c2.1,3.1,3.9,6,7,8.7c3.1,2.7,4.5,3.6,6.2,5.7
	c1.8,2.6-1.2,7.3-5.5,4.9c-4-2.2-7.4-6-12.1-7.9c-2.9-1.2-6-4.4-7.5-6.8C3.9,11.7,2.7,8.9,2.1,7z"/>
<path class="st2" d="M13.7,7.5c3.3,2.9,0.8,5.3,3.6,8.1s7.6,4.7,7.6,4.7"/>
</svg>
