<svg width="29" height="13" viewBox="0 0 29 13" fill="none" xmlns="http://www.w3.org/2000/svg">
<path d="M5.82132 4.6481C5.79295 4.6481 5.76457 4.6732 5.7362 4.68261C5.70942 4.69442 5.68207 4.70488 5.65423 4.71396C5.62868 4.72525 5.60234 4.73469 5.57542 4.7422C5.55064 4.75096 5.52538 4.75828 5.49975 4.76415C5.47488 4.77091 5.44961 4.77615 5.42409 4.77983C5.37663 4.79125 5.32788 4.79651 5.27907 4.79551C5.255 4.79867 5.23062 4.79867 5.20655 4.79551C5.18136 4.79707 5.15609 4.79707 5.13089 4.79551C5.10674 4.79675 5.08254 4.79675 5.05838 4.79551L4.98272 4.7767C4.95587 4.77022 4.92953 4.76184 4.9039 4.75161C4.87734 4.73927 4.84996 4.72879 4.82193 4.72024C4.79671 4.72024 4.76833 4.69515 4.73996 4.67947L4.65169 4.63242C4.62026 4.61518 4.58974 4.59633 4.56026 4.57596L4.44992 4.51323C4.41005 4.49301 4.36899 4.4752 4.32696 4.45991L4.19455 4.41287C4.14726 4.41287 4.10313 4.38464 4.05268 4.37209C4.00224 4.35954 3.95495 4.35014 3.90451 4.34386C3.85407 4.33759 3.80362 4.32505 3.75318 4.31878C3.70274 4.3125 3.64914 4.31877 3.59555 4.30309C3.54195 4.28741 3.48835 4.30309 3.43791 4.30309C3.38747 4.30309 3.33072 4.30309 3.28028 4.30309C3.22984 4.30309 3.17309 4.30309 3.12265 4.30309C3.0722 4.30309 3.01861 4.30309 2.96817 4.32191C2.91773 4.34072 2.86728 4.34073 2.81999 4.35327C2.7727 4.36582 2.72542 4.3815 2.67813 4.39405C2.6317 4.40855 2.5864 4.42637 2.54256 4.44737C2.50033 4.46578 2.45927 4.48672 2.41961 4.51009C2.38096 4.5312 2.34407 4.55532 2.30927 4.58224C2.27966 4.60358 2.2522 4.62774 2.22729 4.65437C2.19736 4.68211 2.16895 4.71143 2.14218 4.7422L2.05705 4.8457L1.97508 4.96174L1.90257 5.0872L1.84267 5.22208C1.82361 5.26904 1.80781 5.31724 1.79538 5.36635C1.7826 5.41374 1.77312 5.46194 1.76701 5.51062C1.76386 5.56076 1.76386 5.61104 1.76701 5.66118C1.76742 5.71089 1.77377 5.76037 1.78592 5.80859C1.79797 5.85922 1.81487 5.90858 1.83637 5.956C1.85871 6.00575 1.88618 6.05304 1.91834 6.09714C1.95281 6.14666 1.99186 6.19286 2.03498 6.23514C2.08531 6.28062 2.13793 6.32355 2.19261 6.36374C2.25803 6.40728 2.32652 6.44606 2.39754 6.47979C2.47828 6.52038 2.56146 6.55599 2.6466 6.58643" stroke="#C4C4C4" stroke-linecap="round"/>
<path d="M6.18392 6.48592L6.10825 6.51415C6.08258 6.52109 6.05732 6.52946 6.03259 6.53923C6.00422 6.53923 5.979 6.55492 5.95378 6.56119C5.92687 6.56997 5.8995 6.5773 5.8718 6.58315L5.78984 6.60197C5.76146 6.60197 5.73624 6.60197 5.70787 6.60197L5.62275 6.60197C5.59439 6.60352 5.56598 6.60352 5.53762 6.60197L5.45251 6.60197C5.42413 6.60197 5.39576 6.60197 5.36738 6.60197L5.28226 6.60197C5.25389 6.60197 5.22551 6.60196 5.20029 6.58628C5.17155 6.58043 5.14314 6.57311 5.11517 6.56433C5.08731 6.55783 5.05992 6.54944 5.0332 6.53923C5.00483 6.53923 4.97645 6.51728 4.95123 6.50474C4.92601 6.49219 4.89764 6.47964 4.86926 6.46396C4.84089 6.44828 4.80936 6.4326 4.77468 6.41692C4.74 6.40123 4.70848 6.38869 4.6738 6.37614L4.5603 6.33851C4.52247 6.33851 4.48149 6.31968 4.4405 6.30714C4.39952 6.29459 4.35853 6.29145 4.3144 6.28204C4.27026 6.27263 4.22927 6.28205 4.18514 6.26636C4.141 6.25068 4.09686 6.26636 4.05273 6.26636C4.00859 6.26636 3.9613 6.26636 3.91716 6.26636L3.78475 6.26636L3.64919 6.26636C3.60505 6.26636 3.56406 6.26636 3.51993 6.28518C3.47579 6.304 3.4348 6.28518 3.39382 6.30714C3.35283 6.32909 3.31185 6.32596 3.27402 6.33851C3.23619 6.35105 3.19836 6.36359 3.16052 6.37927C3.12269 6.39495 3.09117 6.41064 3.05649 6.42633C3.02181 6.44201 2.99343 6.46082 2.96191 6.47964L2.89255 6.53609L2.82319 6.6051L2.75698 6.68979L2.69708 6.78075L2.64349 6.88425C2.6266 6.91848 2.61288 6.95417 2.6025 6.99088L2.57097 7.1038C2.56805 7.14243 2.56805 7.18122 2.57097 7.21985C2.56619 7.25943 2.56619 7.29945 2.57097 7.33903C2.58028 7.42166 2.606 7.50162 2.64664 7.57427C2.66926 7.61431 2.69565 7.65211 2.72546 7.68718C2.75796 7.72579 2.79383 7.76147 2.83265 7.79381C2.87676 7.83104 2.92309 7.86561 2.97136 7.89732C3.02811 7.92869 3.08801 7.96005 3.14791 7.98827C3.20781 8.0165 3.28663 8.04473 3.35914 8.06982" stroke="#C4C4C4" stroke-linecap="round"/>
<path d="M6.65042 8.04779C6.6285 8.05633 6.6074 8.06683 6.58737 8.07916L6.52117 8.10424L6.45496 8.12307C6.43434 8.12977 6.41327 8.13501 6.39191 8.13875C6.36987 8.14024 6.34774 8.14024 6.3257 8.13875C6.30363 8.13875 6.28156 8.13875 6.26265 8.13875L6.1996 8.13875C6.17756 8.1403 6.15543 8.1403 6.13339 8.13875L6.06719 8.13875C6.04479 8.13501 6.02267 8.12977 6.00098 8.12307C5.9773 8.11764 5.9541 8.11029 5.93162 8.10111C5.90803 8.0941 5.88487 8.08572 5.86226 8.07602C5.83857 8.06687 5.81541 8.05641 5.7929 8.04466C5.76813 8.03445 5.74393 8.02292 5.72039 8.01015L5.64788 7.96625C5.62232 7.9528 5.59805 7.93705 5.57537 7.91919C5.54292 7.89647 5.50924 7.87553 5.47449 7.85647C5.43973 7.83683 5.40395 7.81902 5.3673 7.80315C5.32946 7.80315 5.29163 7.77492 5.2538 7.76237C5.21597 7.74982 5.17498 7.73728 5.134 7.72787C5.09301 7.71846 5.05203 7.71219 5.01104 7.70592C4.97006 7.69964 4.92908 7.70592 4.88809 7.70592C4.84711 7.70592 4.80612 7.70592 4.76514 7.70592C4.72415 7.70592 4.68002 7.70592 4.63903 7.70592C4.59805 7.70592 4.55706 7.70592 4.51923 7.70592C4.4814 7.70592 4.44041 7.70592 4.39943 7.7216C4.35844 7.73729 4.32376 7.73728 4.28593 7.74669L4.17559 7.77492L4.07471 7.81256L3.98013 7.85333C3.95175 7.86901 3.92338 7.8847 3.89501 7.90351L3.82249 7.9537C3.78502 7.97953 3.75018 8.00895 3.71846 8.04152C3.68366 8.07406 3.652 8.10976 3.62388 8.14816C3.5957 8.18595 3.5704 8.22579 3.54821 8.26734C3.52433 8.31048 3.50428 8.3556 3.48831 8.40221C3.4699 8.44884 3.45617 8.49716 3.44733 8.54648C3.43773 8.59515 3.43141 8.6444 3.42841 8.6939C3.4236 8.74292 3.4236 8.79229 3.42841 8.84131C3.4351 8.89146 3.44672 8.94083 3.46309 8.98873C3.48133 9.03746 3.50347 9.08466 3.5293 9.12987C3.55943 9.17715 3.59429 9.22128 3.63334 9.2616C3.67485 9.30433 3.72023 9.34319 3.7689 9.37765C3.82483 9.41595 3.88388 9.44951 3.94545 9.47801C4.01562 9.51016 4.08839 9.53639 4.16298 9.55642C4.24986 9.58121 4.33834 9.60008 4.42781 9.61289C4.53221 9.62876 4.6375 9.63819 4.74307 9.64111" stroke="#C4C4C4" stroke-linecap="round"/>
<path d="M7.54281 9.68492C7.54281 9.68492 6.83347 9.5281 6.65377 9.4685C6.47407 9.40891 4.56671 8.82239 4.68336 10.2903C4.80001 11.7581 6.30067 11.2908 7.32528 11.0744C8.34989 10.858 9.0687 11.5762 9.64879 11.7424C10.2289 11.9087 11.0297 12.467 15.2857 11.2531C19.5418 10.0393 21.5501 10.6635 23.9934 10.5067C26.4367 10.3498 28.0918 9.40891 28.013 6.66451C27.9342 3.92012 25.8471 3.41201 23.7191 3.60647C21.5911 3.80093 20.4466 4.70423 17.9245 4.66659C15.4024 4.62896 14.6552 4.19613 12.6848 2.54949" stroke="#C4C4C4" stroke-linecap="round"/>
<path d="M5.94473 2.942C5.65154 4.08681 5.80916 4.74546 6.14335 5.37275C6.47753 6.00004 7.18688 6.64615 8.56774 6.84375" stroke="#C4C4C4" stroke-linecap="round"/>
<path d="M2.12023 4.56638C1.84384 4.48275 1.59439 4.32834 1.39686 4.11862C1.19934 3.9089 1.06066 3.65122 0.994725 3.3714C0.878077 2.74411 1.74506 1.37348 3.71547 1.78435C5.68588 2.19523 5.54716 2.15759 6.45513 1.78435C7.36309 1.41111 9.58571 0.410585 11.5372 1.5303C13.4887 2.65001 13.5265 4.72321 13.7062 6.47021" stroke="#C4C4C4" stroke-linecap="round"/>
</svg>
