<svg width="17" height="22" viewBox="0 0 17 22" fill="none" xmlns="http://www.w3.org/2000/svg">
<path d="M11.4901 4.47998C12.5901 4.47998 13.4901 3.57998 13.4901 2.47998C13.4901 1.37998 12.5901 0.47998 11.4901 0.47998C10.3901 0.47998 9.49014 1.37998 9.49014 2.47998C9.49014 3.57998 10.3901 4.47998 11.4901 4.47998ZM7.89014 18.38L8.89014 13.98L10.9901 15.98V21.98H12.9901V14.48L10.8901 12.48L11.4901 9.47998C12.7901 10.98 14.7901 11.98 16.9901 11.98V9.97998C15.0901 9.97998 13.4901 8.97998 12.6901 7.57998L11.6901 5.97998C11.2901 5.37998 10.6901 4.97998 9.99014 4.97998C9.69014 4.97998 9.49014 5.07998 9.19014 5.07998L3.99014 7.27998V11.98H5.99014V8.57998L7.79014 7.87998L6.19014 15.98L1.29014 14.98L0.890137 16.98L7.89014 18.38Z" fill="#C4C4C4"/>
</svg>
