<svg width="13" height="29" viewBox="0 0 13 29" fill="none" xmlns="http://www.w3.org/2000/svg">
<path d="M4.63247 23.1943C4.63247 23.2227 4.65757 23.2511 4.66698 23.2794C4.6788 23.3062 4.68926 23.3336 4.69834 23.3614C4.70962 23.3869 4.71907 23.4133 4.72657 23.4402C4.73533 23.465 4.74266 23.4902 4.74852 23.5159C4.75528 23.5407 4.76053 23.566 4.76421 23.5915C4.77562 23.639 4.78089 23.6877 4.77989 23.7366C4.78304 23.7606 4.78304 23.785 4.77989 23.8091C4.78144 23.8343 4.78144 23.8595 4.77989 23.8847C4.78113 23.9089 4.78113 23.9331 4.77989 23.9572L4.76107 24.0329C4.75459 24.0598 4.74621 24.0861 4.73598 24.1117C4.72365 24.1383 4.71316 24.1657 4.70462 24.1937C4.70462 24.2189 4.67952 24.2473 4.66384 24.2757L4.6168 24.3639C4.59955 24.3954 4.5807 24.4259 4.56033 24.4554L4.49761 24.5657C4.47739 24.6056 4.45958 24.6466 4.44429 24.6887L4.39724 24.8211C4.39724 24.8684 4.36901 24.9125 4.35646 24.9629C4.34392 25.0134 4.33451 25.0607 4.32824 25.1111C4.32197 25.1616 4.30942 25.212 4.30315 25.2624C4.29688 25.3129 4.30314 25.3665 4.28746 25.4201C4.27178 25.4737 4.28746 25.5273 4.28746 25.5777C4.28746 25.6282 4.28746 25.6849 4.28746 25.7353C4.28746 25.7858 4.28746 25.8425 4.28746 25.893C4.28746 25.9434 4.28746 25.997 4.30628 26.0475C4.3251 26.0979 4.3251 26.1483 4.33765 26.1956C4.35019 26.2429 4.36588 26.2902 4.37842 26.3375C4.39292 26.3839 4.41074 26.4292 4.43175 26.4731C4.45015 26.5153 4.47109 26.5564 4.49447 26.596C4.51557 26.6347 4.5397 26.6716 4.56661 26.7064C4.58796 26.736 4.61211 26.7634 4.63874 26.7883C4.66648 26.8183 4.69581 26.8467 4.72657 26.8734L4.83007 26.9586L4.94612 27.0405L5.07158 27.1131L5.20645 27.173C5.25341 27.192 5.30161 27.2078 5.35073 27.2202C5.39811 27.233 5.44631 27.2425 5.495 27.2486C5.54513 27.2518 5.59542 27.2518 5.64555 27.2486C5.69526 27.2482 5.74475 27.2419 5.79297 27.2297C5.84359 27.2177 5.89296 27.2008 5.94038 27.1793C5.99012 27.1569 6.03742 27.1294 6.08151 27.0973C6.13103 27.0628 6.17724 27.0238 6.21952 26.9806C6.265 26.9303 6.30792 26.8777 6.34812 26.823C6.39165 26.7576 6.43043 26.6891 6.46416 26.6181C6.50475 26.5373 6.54037 26.4542 6.5708 26.369" stroke="#C4C4C4" stroke-linecap="round"/>
<path d="M6.47029 22.8317L6.49852 22.9074C6.50547 22.933 6.51384 22.9583 6.52361 22.983C6.52361 23.0114 6.53929 23.0366 6.54557 23.0618C6.55434 23.0888 6.56167 23.1161 6.56752 23.1438L6.58634 23.2258C6.58634 23.2542 6.58634 23.2794 6.58634 23.3078V23.3929C6.5879 23.4212 6.5879 23.4496 6.58634 23.478V23.5631C6.58634 23.5915 6.58634 23.6199 6.58634 23.6482V23.7334C6.58634 23.7617 6.58634 23.7901 6.57065 23.8153C6.56481 23.8441 6.55749 23.8725 6.54871 23.9005C6.5422 23.9283 6.53381 23.9557 6.52361 23.9824C6.52361 24.0108 6.50166 24.0392 6.48911 24.0644C6.47657 24.0896 6.46402 24.118 6.44834 24.1464C6.43265 24.1747 6.41697 24.2063 6.40129 24.2409C6.38561 24.2756 6.37306 24.3071 6.36052 24.3418L6.32288 24.4553C6.32288 24.4932 6.30406 24.5341 6.29151 24.5751C6.27897 24.6161 6.27583 24.6571 6.26642 24.7012C6.25701 24.7454 6.26642 24.7864 6.25074 24.8305C6.23506 24.8746 6.25074 24.9188 6.25074 24.9629C6.25074 25.007 6.25074 25.0543 6.25074 25.0985V25.2309V25.3664C6.25074 25.4106 6.25074 25.4516 6.26956 25.4957C6.28837 25.5398 6.26956 25.5808 6.29151 25.6218C6.31347 25.6628 6.31033 25.7038 6.32288 25.7416C6.33543 25.7794 6.34796 25.8173 6.36365 25.8551C6.37933 25.8929 6.39502 25.9245 6.4107 25.9591C6.42638 25.9938 6.4452 26.0222 6.46401 26.0537L6.52047 26.1231L6.58947 26.1924L6.67416 26.2586L6.76512 26.3185L6.86862 26.3721C6.90285 26.389 6.93855 26.4027 6.97526 26.4131L7.08818 26.4447C7.1268 26.4476 7.16559 26.4476 7.20422 26.4447C7.24381 26.4494 7.28382 26.4494 7.32341 26.4447C7.40603 26.4353 7.486 26.4096 7.55864 26.369C7.59868 26.3464 7.63648 26.32 7.67155 26.2902C7.71017 26.2577 7.74585 26.2218 7.77819 26.183C7.81542 26.1389 7.84999 26.0925 7.8817 26.0443C7.91306 25.9875 7.94442 25.9276 7.97265 25.8677C8.00088 25.8078 8.02911 25.729 8.0542 25.6565" stroke="#C4C4C4" stroke-linecap="round"/>
<path d="M8.03216 22.3652C8.04071 22.3871 8.05121 22.4082 8.06353 22.4283L8.08862 22.4945L8.10745 22.5607C8.11414 22.5813 8.11938 22.6024 8.12312 22.6237C8.12461 22.6458 8.12461 22.6679 8.12312 22.6899C8.12312 22.712 8.12312 22.7341 8.12312 22.753V22.816C8.12467 22.8381 8.12467 22.8602 8.12312 22.8822V22.9484C8.11939 22.9708 8.11415 22.993 8.10745 23.0146C8.10201 23.0383 8.09467 23.0615 8.08549 23.084C8.07848 23.1076 8.0701 23.1308 8.06039 23.1534C8.05124 23.1771 8.04078 23.2002 8.02903 23.2227C8.01882 23.2475 8.0073 23.2717 7.99453 23.2952L7.95062 23.3677C7.93718 23.3933 7.92142 23.4176 7.90357 23.4403C7.88084 23.4727 7.85991 23.5064 7.84085 23.5411C7.8212 23.5759 7.8034 23.6117 7.78752 23.6483C7.78752 23.6862 7.75929 23.724 7.74675 23.7618C7.7342 23.7997 7.72166 23.8406 7.71225 23.8816C7.70284 23.9226 7.69656 23.9636 7.69029 24.0046C7.68402 24.0456 7.69029 24.0865 7.69029 24.1275C7.69029 24.1685 7.69029 24.2095 7.69029 24.2505C7.69029 24.2915 7.69029 24.3356 7.69029 24.3766C7.69029 24.4176 7.69029 24.4586 7.69029 24.4964C7.69029 24.5342 7.6903 24.5752 7.70598 24.6162C7.72166 24.6572 7.72166 24.6919 7.73107 24.7297L7.75929 24.84L7.79693 24.9409L7.83771 25.0355C7.85339 25.0639 7.86907 25.0922 7.88789 25.1206L7.93807 25.1931C7.96391 25.2306 7.99332 25.2654 8.02589 25.2972C8.05843 25.332 8.09413 25.3636 8.13253 25.3917C8.17032 25.4199 8.21017 25.4452 8.25172 25.4674C8.29485 25.4913 8.33998 25.5113 8.38659 25.5273C8.43321 25.5457 8.48154 25.5595 8.53086 25.5683C8.57952 25.5779 8.62877 25.5842 8.67827 25.5872C8.72729 25.592 8.77667 25.592 8.82569 25.5872C8.87583 25.5805 8.92521 25.5689 8.9731 25.5525C9.02183 25.5343 9.06903 25.5122 9.11424 25.4863C9.16153 25.4562 9.20566 25.4213 9.24597 25.3823C9.28871 25.3408 9.32756 25.2954 9.36203 25.2467C9.40032 25.1908 9.43389 25.1317 9.46239 25.0702C9.49453 25 9.52076 24.9272 9.5408 24.8526C9.56559 24.7658 9.58446 24.6773 9.59726 24.5878C9.61314 24.4834 9.62257 24.3781 9.62549 24.2726" stroke="#C4C4C4" stroke-linecap="round"/>
<path d="M9.6693 21.4728C9.6693 21.4728 9.51247 22.1822 9.45288 22.3619C9.39329 22.5416 8.80677 24.4489 10.2746 24.3323C11.7425 24.2156 11.2752 22.715 11.0587 21.6903C10.8423 20.6657 11.5606 19.9469 11.7268 19.3668C11.893 18.7867 12.4513 17.986 11.2375 13.7299C10.0237 9.4738 10.6479 7.46556 10.491 5.02225C10.3342 2.57894 9.39329 0.923799 6.64889 1.00262C3.90449 1.08143 3.39639 3.16849 3.59085 5.29653C3.78531 7.42457 4.68861 8.56899 4.65097 11.0911C4.61333 13.6132 4.1805 14.3604 2.53386 16.3308" stroke="#C4C4C4" stroke-linecap="round"/>
<path d="M2.92638 23.0709C4.07118 23.3641 4.72984 23.2065 5.35713 22.8723C5.98442 22.5381 6.63053 21.8287 6.82812 20.4479" stroke="#C4C4C4" stroke-linecap="round"/>
<path d="M4.55076 26.8954C4.46712 27.1718 4.31272 27.4212 4.103 27.6188C3.89327 27.8163 3.63559 27.955 3.35577 28.0209C2.72848 28.1375 1.35785 27.2706 1.76873 25.3002C2.1796 23.3297 2.14196 23.4685 1.76873 22.5605C1.39549 21.6525 0.39496 19.4299 1.51467 17.4784C2.63439 15.5269 4.70758 15.4891 6.45459 15.3094" stroke="#C4C4C4" stroke-linecap="round"/>
</svg>
