<svg width="13" height="29" viewBox="0 0 13 29" fill="none" xmlns="http://www.w3.org/2000/svg">
<path d="M8.36753 5.83695C8.36753 5.80857 8.34243 5.7802 8.33302 5.75183C8.3212 5.72505 8.31074 5.69769 8.30166 5.66986C8.29038 5.6443 8.28093 5.61796 8.27343 5.59104C8.26467 5.56627 8.25734 5.541 8.25148 5.51538C8.24472 5.4905 8.23947 5.46523 8.23579 5.43971C8.22438 5.39225 8.21911 5.34351 8.22011 5.29469C8.21696 5.27063 8.21696 5.24624 8.22011 5.22218C8.21856 5.19698 8.21856 5.17171 8.22011 5.14652C8.21887 5.12236 8.21887 5.09816 8.22011 5.07401L8.23893 4.99834C8.24541 4.9715 8.25379 4.94516 8.26402 4.91953C8.27635 4.89297 8.28684 4.86558 8.29538 4.83756C8.29538 4.81234 8.32048 4.78396 8.33616 4.75559L8.3832 4.66731C8.40045 4.63588 8.4193 4.60537 8.43967 4.57589L8.50239 4.46554C8.52261 4.42568 8.54042 4.38462 8.55571 4.34259L8.60276 4.21018C8.60276 4.16289 8.63099 4.11875 8.64354 4.06831C8.65608 4.01787 8.66549 3.97058 8.67176 3.92013C8.67803 3.86969 8.69058 3.81925 8.69685 3.7688C8.70312 3.71836 8.69686 3.66477 8.71254 3.61117C8.72822 3.55758 8.71254 3.50398 8.71254 3.45354C8.71254 3.40309 8.71254 3.34635 8.71254 3.2959C8.71254 3.24546 8.71254 3.18871 8.71254 3.13827C8.71254 3.08783 8.71254 3.03424 8.69372 2.98379C8.6749 2.93335 8.6749 2.88291 8.66235 2.83562C8.64981 2.78833 8.63412 2.74104 8.62158 2.69375C8.60708 2.64733 8.58926 2.60202 8.56825 2.55818C8.54985 2.51596 8.52891 2.4749 8.50553 2.43523C8.48443 2.39659 8.4603 2.35969 8.43339 2.32489C8.41204 2.29528 8.38789 2.26783 8.36126 2.24292C8.33352 2.21299 8.30419 2.18458 8.27343 2.1578L8.16993 2.07268L8.05388 1.99071L7.92842 1.9182L7.79355 1.85829C7.74659 1.83923 7.69839 1.82343 7.64927 1.81101C7.60189 1.79822 7.55369 1.78874 7.505 1.78263C7.45487 1.77949 7.40458 1.77949 7.35445 1.78263C7.30474 1.78305 7.25525 1.78939 7.20703 1.80155C7.15641 1.8136 7.10704 1.83049 7.05962 1.85199C7.00988 1.87433 6.96258 1.9018 6.91849 1.93396C6.86897 1.96843 6.82276 2.00748 6.78048 2.05061C6.735 2.10094 6.69208 2.15355 6.65188 2.20824C6.60835 2.27365 6.56957 2.34214 6.53584 2.41317C6.49525 2.49391 6.45963 2.57708 6.4292 2.66222" stroke="#C4C4C4" stroke-linecap="round"/>
<path d="M6.52971 6.19954L6.50148 6.12388C6.49453 6.0982 6.48616 6.07295 6.47639 6.04822C6.47639 6.01984 6.46071 5.99462 6.45443 5.9694C6.44566 5.9425 6.43833 5.91513 6.43248 5.88743L6.41366 5.80546C6.41366 5.77709 6.41366 5.75187 6.41366 5.7235V5.63837C6.4121 5.61002 6.4121 5.5816 6.41366 5.55325V5.46813C6.41366 5.43976 6.41366 5.41138 6.41366 5.38301V5.29788C6.41366 5.26951 6.41366 5.24114 6.42935 5.21592C6.43519 5.18718 6.44251 5.15877 6.45129 5.13079C6.4578 5.10293 6.46619 5.07555 6.47639 5.04883C6.47639 5.02045 6.49834 4.99208 6.51089 4.96686C6.52343 4.94163 6.53598 4.91326 6.55166 4.88489C6.56735 4.85651 6.58303 4.82499 6.59871 4.79031C6.61439 4.75563 6.62694 4.7241 6.63948 4.68942L6.67712 4.57593C6.67712 4.5381 6.69594 4.49711 6.70849 4.45613C6.72103 4.41514 6.72417 4.37416 6.73358 4.33002C6.74299 4.28589 6.73358 4.2449 6.74926 4.20076C6.76494 4.15663 6.74926 4.11249 6.74926 4.06835C6.74926 4.02421 6.74926 3.97692 6.74926 3.93278V3.80037V3.66481C6.74926 3.62067 6.74926 3.57969 6.73044 3.53555C6.71163 3.49141 6.73044 3.45043 6.70849 3.40944C6.68653 3.36846 6.68967 3.32748 6.67712 3.28965C6.66457 3.25181 6.65204 3.21398 6.63635 3.17615C6.62067 3.13832 6.60498 3.10679 6.5893 3.07211C6.57362 3.03743 6.5548 3.00906 6.53599 2.97753L6.47953 2.90817L6.41053 2.83881L6.32584 2.77261L6.23488 2.71271L6.13138 2.65911C6.09715 2.64222 6.06145 2.6285 6.02474 2.61813L5.91182 2.5866C5.8732 2.58367 5.83441 2.58367 5.79578 2.5866C5.75619 2.58181 5.71618 2.58181 5.67659 2.5866C5.59397 2.5959 5.514 2.62162 5.44136 2.66227C5.40132 2.68488 5.36352 2.71127 5.32845 2.74108C5.28983 2.77359 5.25415 2.80946 5.22181 2.84827C5.18458 2.89239 5.15001 2.93871 5.1183 2.98699C5.08694 3.04374 5.05558 3.10364 5.02735 3.16354C4.99912 3.22344 4.97089 3.30225 4.9458 3.37476" stroke="#C4C4C4" stroke-linecap="round"/>
<path d="M4.96784 6.66605C4.95929 6.64412 4.94879 6.62302 4.93647 6.603L4.91138 6.53679L4.89255 6.47059C4.88586 6.44997 4.88062 6.4289 4.87688 6.40753C4.87539 6.38549 4.87539 6.36337 4.87688 6.34133C4.87688 6.31926 4.87688 6.29719 4.87688 6.27827V6.21522C4.87533 6.19318 4.87533 6.17105 4.87688 6.14901V6.08281C4.88061 6.06041 4.88585 6.03829 4.89255 6.0166C4.89799 5.99292 4.90533 5.96973 4.91451 5.94724C4.92152 5.92365 4.9299 5.90049 4.93961 5.87789C4.94876 5.85419 4.95922 5.83103 4.97097 5.80853C4.98118 5.78376 4.9927 5.75956 5.00547 5.73602L5.04938 5.66351C5.06282 5.63794 5.07858 5.61367 5.09643 5.591C5.11916 5.55854 5.14009 5.52486 5.15915 5.49011C5.1788 5.45535 5.1966 5.41957 5.21248 5.38292C5.21248 5.34509 5.24071 5.30726 5.25325 5.26943C5.2658 5.23159 5.27834 5.19061 5.28775 5.14962C5.29716 5.10864 5.30344 5.06765 5.30971 5.02667C5.31598 4.98568 5.30971 4.9447 5.30971 4.90372C5.30971 4.86273 5.30971 4.82175 5.30971 4.78076C5.30971 4.73978 5.30971 4.69564 5.30971 4.65466C5.30971 4.61367 5.30971 4.57269 5.30971 4.53486C5.30971 4.49702 5.3097 4.45604 5.29402 4.41505C5.27834 4.37407 5.27834 4.33939 5.26893 4.30156L5.24071 4.19122L5.20307 4.09033L5.16229 3.99575C5.14661 3.96738 5.13093 3.93901 5.11211 3.91063L5.06193 3.83812C5.03609 3.80065 5.00668 3.76581 4.97411 3.73408C4.94157 3.69929 4.90587 3.66762 4.86747 3.6395C4.82968 3.61132 4.78983 3.58603 4.74828 3.56384C4.70515 3.53995 4.66002 3.51991 4.61341 3.50394C4.56679 3.48552 4.51846 3.4718 4.46914 3.46296C4.42048 3.45336 4.37123 3.44703 4.32173 3.44404C4.27271 3.43923 4.22333 3.43923 4.17431 3.44404C4.12417 3.45073 4.07479 3.46235 4.0269 3.47871C3.97817 3.49695 3.93097 3.5191 3.88576 3.54492C3.83847 3.57505 3.79434 3.60991 3.75403 3.64896C3.71129 3.69048 3.67244 3.73585 3.63797 3.78452C3.59968 3.84045 3.56611 3.89951 3.53761 3.96107C3.50547 4.03125 3.47924 4.10402 3.4592 4.1786C3.43441 4.26548 3.41554 4.35397 3.40274 4.44343C3.38686 4.54783 3.37743 4.65312 3.37451 4.7587" stroke="#C4C4C4" stroke-linecap="round"/>
<path d="M3.3307 7.55844C3.3307 7.55844 3.48753 6.84909 3.54712 6.66939C3.60671 6.48969 4.19323 4.58234 2.72537 4.69898C1.25751 4.81563 1.72484 6.31629 1.94126 7.34091C2.15767 8.36552 1.43942 9.08433 1.27319 9.66442C1.10696 10.2445 0.54867 11.0453 1.76248 15.3014C2.97628 19.5574 2.35213 21.5657 2.50895 24.009C2.66578 26.4523 3.60671 28.1075 6.35111 28.0286C9.09551 27.9498 9.60361 25.8628 9.40915 23.7347C9.21469 21.6067 8.31139 20.4623 8.34903 17.9401C8.38667 15.418 8.8195 14.6708 10.4661 12.7004" stroke="#C4C4C4" stroke-linecap="round"/>
<path d="M10.0736 5.96036C8.92882 5.66716 8.27016 5.82479 7.64287 6.15897C7.01558 6.49315 6.36947 7.2025 6.17188 8.58336" stroke="#C4C4C4" stroke-linecap="round"/>
<path d="M8.44924 2.13585C8.53288 1.85946 8.68728 1.61002 8.897 1.41249C9.10673 1.21496 9.36441 1.07628 9.64423 1.01035C10.2715 0.893702 11.6421 1.76068 11.2313 3.73109C10.8204 5.7015 10.858 5.56279 11.2313 6.47075C11.6045 7.37872 12.605 9.60134 11.4853 11.5528C10.3656 13.5043 8.29242 13.5422 6.54541 13.7219" stroke="#C4C4C4" stroke-linecap="round"/>
</svg>
