<?xml version="1.0" encoding="utf-8"?>
<!-- Generator: Adobe Illustrator 25.0.1, SVG Export Plug-In . SVG Version: 6.00 Build 0)  -->
<svg version="1.1" id="Layer_1" xmlns="http://www.w3.org/2000/svg" xmlns:xlink="http://www.w3.org/1999/xlink" x="0px" y="0px"
	 viewBox="0 0 29 13" style="enable-background:new 0 0 29 13;" xml:space="preserve">
<style type="text/css">
	.st0{fill:none;stroke:#0057FF;stroke-linecap:round;}
</style>
<path class="st0" d="M5.8,4.6C5.8,4.6,5.8,4.7,5.8,4.6c-0.1,0-0.1,0.1-0.2,0.1c0,0-0.1,0-0.1,0c0,0-0.1,0-0.1,0c0,0-0.1,0-0.1,0
	c0,0-0.1,0-0.1,0c0,0,0,0-0.1,0c0,0-0.1,0-0.1,0c0,0,0,0-0.1,0L5,4.8c0,0-0.1,0-0.1,0c0,0-0.1,0-0.1,0c0,0-0.1,0-0.1,0l-0.1,0
	c0,0-0.1,0-0.1-0.1L4.4,4.5c0,0-0.1,0-0.1-0.1l-0.1,0c0,0-0.1,0-0.1,0c-0.1,0-0.1,0-0.1,0c-0.1,0-0.1,0-0.2,0c-0.1,0-0.1,0-0.2,0
	c-0.1,0-0.1,0-0.2,0c-0.1,0-0.1,0-0.2,0c-0.1,0-0.1,0-0.2,0c-0.1,0-0.1,0-0.2,0c-0.1,0-0.1,0-0.1,0c0,0-0.1,0-0.1,0
	c0,0-0.1,0-0.1,0.1c0,0-0.1,0-0.1,0.1c0,0-0.1,0-0.1,0.1c0,0-0.1,0-0.1,0.1c0,0-0.1,0.1-0.1,0.1L2.1,4.8L2,5L1.9,5.1L1.8,5.2
	c0,0,0,0.1,0,0.1c0,0,0,0.1,0,0.1c0,0.1,0,0.1,0,0.2c0,0,0,0.1,0,0.1c0,0.1,0,0.1,0.1,0.1c0,0,0,0.1,0.1,0.1C2,6.1,2,6.2,2,6.2
	c0.1,0,0.1,0.1,0.2,0.1c0.1,0,0.1,0.1,0.2,0.1c0.1,0,0.2,0.1,0.2,0.1"/>
<path class="st0" d="M6.2,6.5L6.2,6.5c-0.1,0-0.1,0-0.2,0.1c0,0-0.1,0-0.1,0c0,0-0.1,0-0.1,0l-0.1,0c0,0-0.1,0-0.1,0H5.6
	c0,0-0.1,0-0.1,0H5.5c0,0-0.1,0-0.1,0H5.3c0,0-0.1,0-0.1,0c0,0-0.1,0-0.1,0c0,0-0.1,0-0.1,0c0,0-0.1,0-0.1,0c0,0-0.1,0-0.1,0
	c0,0-0.1,0-0.1,0c0,0-0.1,0-0.1,0l-0.1,0c0,0-0.1,0-0.1,0c0,0-0.1,0-0.1,0c0,0-0.1,0-0.1,0c0,0-0.1,0-0.1,0c0,0-0.1,0-0.1,0H3.8H3.6
	c0,0-0.1,0-0.1,0c0,0-0.1,0-0.1,0c0,0-0.1,0-0.1,0c0,0-0.1,0-0.1,0c0,0-0.1,0-0.1,0c0,0-0.1,0-0.1,0.1L2.9,6.5L2.8,6.6L2.8,6.7
	L2.7,6.8L2.6,6.9c0,0,0,0.1,0,0.1l0,0.1c0,0,0,0.1,0,0.1c0,0,0,0.1,0,0.1c0,0.1,0,0.2,0.1,0.2c0,0,0,0.1,0.1,0.1
	c0,0,0.1,0.1,0.1,0.1c0,0,0.1,0.1,0.1,0.1C3,7.9,3.1,8,3.1,8C3.2,8,3.3,8,3.4,8.1"/>
<path class="st0" d="M6.7,8C6.6,8.1,6.6,8.1,6.7,8L6.5,8.1l-0.1,0c0,0,0,0-0.1,0c0,0,0,0-0.1,0c0,0,0,0-0.1,0H6.2c0,0,0,0-0.1,0H6.1
	c0,0,0,0-0.1,0c0,0,0,0-0.1,0c0,0,0,0-0.1,0c0,0,0,0-0.1,0c0,0,0,0-0.1,0L5.6,8c0,0,0,0-0.1,0c0,0-0.1,0-0.1-0.1c0,0-0.1,0-0.1-0.1
	c0,0-0.1,0-0.1,0s-0.1,0-0.1,0c0,0-0.1,0-0.1,0c0,0-0.1,0-0.1,0c0,0-0.1,0-0.1,0c0,0-0.1,0-0.1,0c0,0-0.1,0-0.1,0s-0.1,0-0.1,0
	c0,0-0.1,0-0.1,0l-0.1,0l-0.1,0L4,7.9c0,0-0.1,0-0.1,0.1L3.8,8C3.8,8,3.8,8,3.7,8c0,0-0.1,0.1-0.1,0.1c0,0-0.1,0.1-0.1,0.1
	c0,0,0,0.1-0.1,0.1c0,0,0,0.1,0,0.1c0,0,0,0.1,0,0.1c0,0,0,0.1,0,0.1c0,0.1,0,0.1,0,0.1c0,0,0,0.1,0.1,0.1c0,0,0.1,0.1,0.1,0.1
	c0,0,0.1,0.1,0.1,0.1c0.1,0,0.1,0.1,0.2,0.1c0.1,0,0.1,0.1,0.2,0.1c0.1,0,0.2,0,0.3,0.1c0.1,0,0.2,0,0.3,0"/>
<path class="st0" d="M7.5,9.7c0,0-0.7-0.2-0.9-0.2c-0.2-0.1-2.1-0.6-2,0.8c0.1,1.5,1.6,1,2.6,0.8s1.7,0.5,2.3,0.7
	c0.6,0.2,1.4,0.7,5.6-0.5c4.3-1.2,6.3-0.6,8.7-0.7c2.4-0.2,4.1-1.1,4-3.8c-0.1-2.7-2.2-3.3-4.3-3.1c-2.1,0.2-3.3,1.1-5.8,1.1
	c-2.5,0-3.3-0.5-5.2-2.1"/>
<path class="st0" d="M5.9,2.9C5.7,4.1,5.8,4.7,6.1,5.4c0.3,0.6,1,1.3,2.4,1.5"/>
<path class="st0" d="M2.1,4.6C1.8,4.5,1.6,4.3,1.4,4.1C1.2,3.9,1.1,3.7,1,3.4c-0.1-0.6,0.8-2,2.7-1.6c2,0.4,1.8,0.4,2.7,0
	c0.9-0.4,3.1-1.4,5.1-0.3c2,1.1,2,3.2,2.2,4.9"/>
</svg>
