<svg width="83" height="100" viewBox="0 0 83 100" fill="none" xmlns="http://www.w3.org/2000/svg">
<path d="M58.6335 42.3409L58.8005 42.2667L58.9612 42.2049L59.1158 42.1492L59.2642 42.1059L59.4126 42.075H59.5548H59.697H59.8392H59.9877H60.1299L60.2783 42.1121L60.4328 42.1678L60.5936 42.2296L60.7544 42.3038L60.9275 42.3966C60.9899 42.4291 61.0499 42.4664 61.1068 42.5079L61.3232 42.6315C61.4002 42.6739 61.4809 42.7091 61.5644 42.7366C61.6481 42.7749 61.735 42.806 61.8241 42.8294L62.1023 42.9098L62.3929 42.9716L62.6897 43.0149L62.9989 43.0458H63.308H63.6172H63.9264L64.2293 43.0025L64.5199 42.9407L64.7982 42.8603L65.0641 42.7614L65.3052 42.6377L65.5216 42.4955L65.6824 42.3533C65.7411 42.2964 65.7968 42.2366 65.8493 42.174C65.907 42.1121 65.9627 42.0441 66.0163 41.9699C66.0719 41.9019 66.1214 41.8215 66.177 41.7411C66.2327 41.6608 66.276 41.5804 66.3193 41.4938C66.3625 41.4073 66.3996 41.3207 66.4367 41.2279C66.4731 41.1371 66.5041 41.0442 66.5295 40.9497C66.554 40.8541 66.5726 40.757 66.5851 40.6591C66.5913 40.5623 66.5913 40.4652 66.5851 40.3685C66.5848 40.2684 66.5724 40.1688 66.548 40.0717C66.5244 39.9739 66.4912 39.8786 66.4491 39.7872C66.4077 39.686 66.3538 39.5904 66.2884 39.5028C66.2223 39.4059 66.1455 39.3168 66.0595 39.2369C65.9624 39.1455 65.8591 39.0608 65.7504 38.9834C65.6222 38.8956 65.4879 38.8171 65.3485 38.7485C65.1912 38.6678 65.0279 38.5996 64.86 38.5444" stroke="#C4C4C4" stroke-linecap="round"/>
<path d="M57.9224 38.7176L58.0708 38.6619L58.2191 38.6063L58.3737 38.563L58.5345 38.5197H58.6953L58.856 38.4888H59.023H59.1899H59.3569H59.5238H59.6908H59.8515L60.0185 38.5321C60.0733 38.5469 60.127 38.5655 60.1792 38.5877L60.34 38.6495L60.5007 38.7299C60.5564 38.767 60.6183 38.7918 60.6863 38.8289L60.8841 38.9092L61.1067 38.9772L61.3417 39.0391L61.589 39.0886L61.8425 39.1195H62.1022H62.3681H62.6278H62.8936L63.1472 39.0886L63.3945 39.0391L63.6295 38.9772L63.8521 38.9031L64.0561 38.8103L64.2416 38.699L64.3776 38.5877C64.424 38.5455 64.4674 38.5 64.5075 38.4517C64.5559 38.4025 64.5994 38.3486 64.6373 38.2909C64.6821 38.2315 64.7234 38.1696 64.761 38.1054C64.7997 38.0415 64.8348 37.9754 64.8661 37.9076C64.8983 37.8375 64.9252 37.7652 64.9465 37.6911C64.9728 37.6187 64.9935 37.5442 65.0083 37.4685C65.0144 37.3924 65.0144 37.3159 65.0083 37.2398C65.0175 37.1617 65.0175 37.0829 65.0083 37.0048C64.9901 36.8419 64.9396 36.6843 64.8599 36.5411C64.8156 36.4621 64.7638 36.3876 64.7054 36.3185C64.6416 36.2424 64.5712 36.172 64.4951 36.1082C64.4101 36.0349 64.3191 35.9687 64.2231 35.9104C64.111 35.8425 63.9954 35.7806 63.8768 35.7249C63.7408 35.6692 63.6047 35.6136 63.4625 35.5703" stroke="#C4C4C4" stroke-linecap="round"/>
<path d="M57.0076 35.6381L57.1312 35.5763L57.2611 35.5268L57.3909 35.4836L57.5146 35.4526H57.6444H57.7681H57.8918H58.0216H58.1514L58.2813 35.4836L58.4173 35.5268L58.5534 35.5763L58.6894 35.6381L58.8316 35.7123L58.9738 35.7927L59.116 35.8855L59.3139 36.0091C59.3807 36.0503 59.4511 36.0855 59.5241 36.1142L59.7467 36.2008L59.9817 36.2626L60.2228 36.3121H60.464H60.7051H60.9525C61.0306 36.3185 61.1092 36.3185 61.1874 36.3121C61.2664 36.3079 61.3449 36.2976 61.4223 36.2812L61.645 36.2317C61.7192 36.2317 61.7872 36.1946 61.8614 36.1761L62.0592 36.1019L62.2447 36.0215L62.4055 35.9287C62.4574 35.8973 62.507 35.8622 62.5539 35.8236C62.6272 35.7749 62.6956 35.7189 62.7579 35.6567C62.8247 35.5911 62.8867 35.5209 62.9434 35.4465C62.9973 35.3689 63.0469 35.2884 63.0918 35.2053C63.1398 35.1208 63.1791 35.0318 63.2093 34.9394C63.2454 34.8475 63.2723 34.7522 63.2897 34.655C63.3085 34.5591 63.3209 34.462 63.3268 34.3644C63.3304 34.1672 63.3012 33.9708 63.2402 33.7832C63.2044 33.6871 63.161 33.5941 63.1104 33.5049C63.0513 33.4117 62.9829 33.3247 62.9063 33.2452C62.8249 33.1629 62.7358 33.0884 62.6405 33.0226C62.5309 32.9452 62.4151 32.8769 62.2942 32.8186C62.1555 32.7579 62.013 32.7063 61.8676 32.664C61.6972 32.6151 61.5236 32.578 61.3482 32.5527C61.1434 32.5217 60.9369 32.5031 60.7298 32.4971" stroke="#C4C4C4" stroke-linecap="round"/>
<path d="M55.2576 32.4107C55.2576 32.4107 56.6488 32.7198 57.0013 32.8311C57.3537 32.9424 61.0945 34.111 60.8658 31.2111C60.637 28.3112 57.6938 29.2387 55.6842 29.6653C53.6747 30.092 52.2649 28.676 51.1272 28.3483C49.9895 28.0206 48.419 26.92 40.0716 29.3191C31.7243 31.7181 27.7856 30.4753 22.9936 30.7845C18.2016 31.0936 14.9554 32.9486 15.11 38.3589C15.2646 43.7692 19.3579 44.7771 23.5316 44.3875C27.7052 43.998 29.9497 42.2234 34.8963 42.3038C39.8429 42.3842 41.3083 43.2313 45.1728 46.4774" stroke="#C4C4C4" stroke-linecap="round"/>
<path d="M58.3925 45.7046C58.9675 43.4416 58.6584 42.1493 58.0029 40.9126C57.3475 39.676 55.9563 38.3961 53.248 38.0127" stroke="#C4C4C4" stroke-linecap="round"/>
<path d="M65.9237 42.4956C66.4652 42.6616 66.9538 42.9663 67.3411 43.3796C67.7283 43.7929 68.0007 44.3002 68.1311 44.8514C68.3599 46.088 66.6595 48.7962 62.795 47.9801C58.9305 47.1639 59.2026 47.2504 57.4218 47.9801C55.641 48.7097 51.2819 50.6883 47.4545 48.4871C43.6271 46.2859 43.5529 42.1864 43.2004 38.7485" stroke="#C4C4C4" stroke-linecap="round"/>
<path d="M58.6335 67.123L58.8005 67.1972L58.9612 67.259L59.1158 67.3085L59.2642 67.3518H59.4126H59.5548H59.7032H59.8454H59.9877H60.1361L60.2845 67.3147L60.4328 67.2652L60.5936 67.2034L60.7606 67.123C60.8187 67.0969 60.8746 67.0659 60.9275 67.0303C60.9899 66.9977 61.0499 66.9605 61.1068 66.919L61.3232 66.7953C61.4013 66.7571 61.4819 66.724 61.5644 66.6964C61.6481 66.6581 61.735 66.627 61.8241 66.6036L62.1023 66.5232L62.3929 66.4614L62.6959 66.4181L63.0051 66.3872H63.3142H63.6234H63.9326C64.0323 66.3956 64.1314 66.4101 64.2293 66.4305C64.3275 66.4445 64.4246 66.4652 64.5199 66.4923L64.8044 66.5727C64.8936 66.5981 64.9805 66.6312 65.0641 66.6716C65.1481 66.7053 65.2288 66.7468 65.3052 66.7953C65.3838 66.8354 65.4584 66.883 65.5278 66.9375C65.5773 66.9808 65.6329 67.0241 65.6886 67.0797C65.7473 67.1344 65.803 67.1922 65.8555 67.2529C65.9132 67.3147 65.9689 67.3827 66.0224 67.4569C66.0781 67.5311 66.1276 67.6053 66.177 67.6857L66.3193 67.933C66.3636 68.0193 66.4028 68.108 66.4367 68.1989C66.4741 68.2915 66.5051 68.3865 66.5295 68.4833C66.5545 68.5767 66.5732 68.6718 66.5851 68.7677C66.5913 68.8666 66.5913 68.9657 66.5851 69.0645C66.5793 69.1621 66.5669 69.2592 66.548 69.3551C66.5244 69.4549 66.4913 69.5523 66.4491 69.6457C66.404 69.7451 66.3502 69.8403 66.2884 69.9302C66.2185 70.0259 66.1398 70.1149 66.0534 70.1961C65.9576 70.289 65.8541 70.3738 65.7442 70.4496C65.6172 70.534 65.4851 70.6105 65.3485 70.6784C65.1875 70.7573 65.0224 70.8275 64.8538 70.8886" stroke="#C4C4C4" stroke-linecap="round"/>
<path d="M57.9224 70.7464L58.0708 70.802L58.2191 70.8577L58.3737 70.9009L58.5345 70.9442H58.6953L58.856 70.9751H59.023H59.1899H59.3569H59.5238H59.6908H59.8577L60.0185 70.9319L60.1792 70.8762L60.34 70.8082L60.5007 70.7278L60.6863 70.6351L60.8903 70.5547L61.1067 70.4805L61.3417 70.4187L61.589 70.3754L61.8425 70.3383H62.1022H62.3681H62.6278C62.7163 70.3319 62.8051 70.3319 62.8936 70.3383L63.1472 70.3692L63.3945 70.4125L63.6295 70.4743L63.8521 70.5547L64.0561 70.6474L64.2416 70.7587C64.2911 70.7905 64.3367 70.8278 64.3776 70.87C64.424 70.9123 64.4674 70.9578 64.5075 71.0061C64.5561 71.0568 64.6015 71.1105 64.6435 71.1668L64.761 71.3461C64.7981 71.4141 64.8352 71.4822 64.8661 71.5502C64.8992 71.6177 64.9261 71.688 64.9465 71.7604C64.9728 71.8329 64.9935 71.9073 65.0083 71.983C65.0144 72.0591 65.0144 72.1356 65.0083 72.2118C65.0146 72.29 65.0146 72.3685 65.0083 72.4467C64.9851 72.6094 64.9327 72.7664 64.8538 72.9105C64.8116 72.9908 64.7597 73.0655 64.6992 73.1331C64.6354 73.2092 64.565 73.2796 64.4889 73.3433C64.4023 73.4147 64.3115 73.4808 64.2169 73.5412C64.106 73.6094 63.9903 73.6694 63.8706 73.7205C63.7362 73.7831 63.5978 73.8368 63.4563 73.8813" stroke="#C4C4C4" stroke-linecap="round"/>
<path d="M57.0076 73.8258L57.1374 73.8876L57.2611 73.9371L57.3909 73.9804H57.5146H57.6444H58.0216H58.1514L58.2813 73.9495L58.4173 73.9124L58.5534 73.8567L58.6894 73.7949L58.8316 73.7269L58.9738 73.6465L59.116 73.5537C59.1781 73.5048 59.2443 73.4614 59.3139 73.4239C59.3821 73.3852 59.4523 73.3501 59.5241 73.3188L59.7467 73.2384L59.9817 73.1704L60.2167 73.1271L60.4578 73.0962H60.7051H60.9772H61.2183C61.2987 73.0962 61.3791 73.0962 61.4533 73.1333L61.6759 73.1766L61.8923 73.2384L62.0901 73.3064C62.1537 73.3315 62.2156 73.3604 62.2756 73.393C62.3325 73.4178 62.3864 73.4489 62.4364 73.4857L62.5848 73.5847C62.6569 73.6374 62.7251 73.6952 62.7889 73.7578C62.857 73.8198 62.9191 73.8881 62.9743 73.9618C63.0282 74.0394 63.0778 74.1199 63.1227 74.203C63.1707 74.2874 63.21 74.3765 63.2402 74.4689C63.3455 74.7445 63.3816 75.0417 63.3454 75.3345C63.3301 75.4336 63.3053 75.5309 63.2712 75.6251C63.2354 75.7212 63.192 75.8142 63.1413 75.9034C63.0844 75.9964 63.0181 76.0835 62.9434 76.1631C62.8585 76.2459 62.7675 76.3224 62.6714 76.3918C62.5617 76.4673 62.4458 76.5335 62.3251 76.5897C62.1865 76.6524 62.044 76.7061 61.8985 76.7504L61.3791 76.8618C61.1751 76.8618 60.9772 76.905 60.7608 76.9174" stroke="#C4C4C4" stroke-linecap="round"/>
<path d="M55.2576 77.0536C55.2576 77.0536 56.6488 76.7444 57.0013 76.627C57.3537 76.5095 61.0945 75.3532 60.8658 78.2532C60.637 81.1531 57.6938 80.2194 55.6842 79.7928C53.6747 79.3661 52.2649 80.7821 51.1272 81.1098C49.9895 81.4375 48.419 82.5381 40.0716 80.1452C31.7243 77.7523 27.7856 78.9828 22.9936 78.6736C18.2016 78.3644 14.9554 76.5095 15.11 71.0992C15.2646 65.6889 19.3579 64.6872 23.5316 65.0706C27.7052 65.4539 29.9497 67.2347 34.8963 67.1605C39.8429 67.0863 41.3083 66.233 45.1728 62.9868" stroke="#C4C4C4" stroke-linecap="round"/>
<path d="M58.3925 63.7598C58.9675 66.0166 58.6584 67.3151 58.0029 68.5518C57.3475 69.7884 55.9563 71.0621 53.248 71.4517" stroke="#C4C4C4" stroke-linecap="round"/>
<path d="M65.9237 66.9441C66.4659 66.7776 66.9551 66.4719 67.3424 66.0575C67.7297 65.643 68.0016 65.1344 68.1311 64.5821C68.3599 63.3455 66.6595 60.6434 62.795 61.4534C58.9305 62.2634 59.2026 62.1892 57.428 61.4534C55.6534 60.7176 51.2819 58.7514 47.4545 60.9526C43.6271 63.1538 43.5529 67.2533 43.2004 70.6911" stroke="#C4C4C4" stroke-linecap="round"/>
<path d="M61.7531 6.34863H71.8765C77.4593 6.34863 82 10.9646 82 16.6559V88.7895C82 94.4807 77.4655 99.0967 71.8765 99.0967H11.1235C5.54067 99.0967 1 94.4807 1 88.7895V16.6671C1 10.9759 5.52826 6.35989 11.1235 6.35989H21.2469" stroke="#C4C4C4" stroke-linecap="round" stroke-linejoin="round"/>
<path d="M60.9154 1H21.7819C21.4404 1 21.1636 1.27683 21.1636 1.61832V11.295C21.1636 11.6365 21.4404 11.9134 21.7819 11.9134H60.9154C61.2569 11.9134 61.5338 11.6365 61.5338 11.295V1.61832C61.5338 1.27683 61.2569 1 60.9154 1Z" stroke="#C4C4C4" stroke-linecap="round" stroke-linejoin="round"/>
</svg>
