<?xml version="1.0" encoding="utf-8"?>
<!-- Generator: Adobe Illustrator 25.0.1, SVG Export Plug-In . SVG Version: 6.00 Build 0)  -->
<svg version="1.1" id="Layer_1" xmlns="http://www.w3.org/2000/svg" xmlns:xlink="http://www.w3.org/1999/xlink" x="0px" y="0px"
	 viewBox="0 0 13 29" style="enable-background:new 0 0 13 29;" xml:space="preserve">
<style type="text/css">
	.st0{fill:none;stroke:#0057FF;stroke-linecap:round;}
</style>
<path class="st0" d="M8.4,5.8C8.4,5.8,8.3,5.8,8.4,5.8c0-0.1-0.1-0.1-0.1-0.2c0,0,0-0.1,0-0.1c0,0,0-0.1,0-0.1c0,0,0-0.1,0-0.1
	c0,0,0-0.1,0-0.1c0,0,0,0,0-0.1c0,0,0-0.1,0-0.1c0,0,0,0,0-0.1l0-0.1c0,0,0-0.1,0-0.1c0,0,0-0.1,0-0.1c0,0,0-0.1,0-0.1l0-0.1
	c0,0,0-0.1,0.1-0.1l0.1-0.1c0,0,0-0.1,0.1-0.1l0-0.1c0,0,0-0.1,0-0.1c0-0.1,0-0.1,0-0.1c0-0.1,0-0.1,0-0.2c0-0.1,0-0.1,0-0.2
	c0-0.1,0-0.1,0-0.2c0-0.1,0-0.1,0-0.2c0-0.1,0-0.1,0-0.2c0-0.1,0-0.1,0-0.2c0-0.1,0-0.1,0-0.1c0,0,0-0.1,0-0.1c0,0,0-0.1-0.1-0.1
	c0,0,0-0.1-0.1-0.1c0,0,0-0.1-0.1-0.1c0,0,0-0.1-0.1-0.1c0,0-0.1-0.1-0.1-0.1L8.2,2.1L8.1,2L7.9,1.9L7.8,1.9c0,0-0.1,0-0.1,0
	c0,0-0.1,0-0.1,0c-0.1,0-0.1,0-0.2,0c0,0-0.1,0-0.1,0c-0.1,0-0.1,0-0.1,0.1c0,0-0.1,0-0.1,0.1c0,0-0.1,0.1-0.1,0.1
	c0,0.1-0.1,0.1-0.1,0.2c0,0.1-0.1,0.1-0.1,0.2c0,0.1-0.1,0.2-0.1,0.2"/>
<path class="st0" d="M6.5,6.2L6.5,6.2c0-0.1,0-0.1-0.1-0.2c0,0,0-0.1,0-0.1c0,0,0-0.1,0-0.1l0-0.1c0,0,0-0.1,0-0.1V5.6
	c0,0,0-0.1,0-0.1V5.5c0,0,0-0.1,0-0.1V5.3c0,0,0-0.1,0-0.1c0,0,0-0.1,0-0.1c0,0,0-0.1,0-0.1c0,0,0-0.1,0-0.1c0,0,0-0.1,0-0.1
	c0,0,0-0.1,0-0.1s0-0.1,0-0.1l0-0.1c0,0,0-0.1,0-0.1c0,0,0-0.1,0-0.1c0,0,0-0.1,0-0.1c0,0,0-0.1,0-0.1c0,0,0-0.1,0-0.1V3.8V3.7
	c0,0,0-0.1,0-0.1c0,0,0-0.1,0-0.1c0,0,0-0.1,0-0.1c0,0,0-0.1,0-0.1c0,0,0-0.1,0-0.1c0,0,0-0.1-0.1-0.1L6.5,2.9L6.4,2.8L6.3,2.8
	L6.2,2.7L6.1,2.7c0,0-0.1,0-0.1,0l-0.1,0c0,0-0.1,0-0.1,0c0,0-0.1,0-0.1,0c-0.1,0-0.2,0-0.2,0.1c0,0-0.1,0-0.1,0.1
	c0,0-0.1,0.1-0.1,0.1c0,0-0.1,0.1-0.1,0.1C5.1,3,5.1,3.1,5,3.2C5,3.2,5,3.3,4.9,3.4"/>
<path class="st0" d="M5,6.7C5,6.6,4.9,6.6,5,6.7L4.9,6.5l0-0.1c0,0,0,0,0-0.1c0,0,0,0,0-0.1c0,0,0,0,0-0.1V6.2c0,0,0,0,0-0.1V6.1
	c0,0,0,0,0-0.1c0,0,0,0,0-0.1c0,0,0,0,0-0.1c0,0,0,0,0-0.1c0,0,0,0,0-0.1l0-0.1c0,0,0,0,0-0.1c0,0,0-0.1,0.1-0.1c0,0,0-0.1,0.1-0.1
	c0,0,0-0.1,0-0.1c0,0,0-0.1,0-0.1c0,0,0-0.1,0-0.1c0,0,0-0.1,0-0.1c0,0,0-0.1,0-0.1c0,0,0-0.1,0-0.1c0,0,0-0.1,0-0.1
	c0,0,0-0.1,0-0.1c0,0,0-0.1,0-0.1l0-0.1l0-0.1l0-0.1c0,0,0-0.1-0.1-0.1L5.1,3.8C5,3.8,5,3.8,5,3.7c0,0-0.1-0.1-0.1-0.1
	c0,0-0.1-0.1-0.1-0.1c0,0-0.1,0-0.1-0.1c0,0-0.1,0-0.1,0c0,0-0.1,0-0.1,0c0,0-0.1,0-0.1,0c-0.1,0-0.1,0-0.1,0c0,0-0.1,0-0.1,0.1
	c0,0-0.1,0.1-0.1,0.1c0,0-0.1,0.1-0.1,0.1c0,0.1-0.1,0.1-0.1,0.2c0,0.1-0.1,0.1-0.1,0.2c0,0.1,0,0.2-0.1,0.3c0,0.1,0,0.2,0,0.3"/>
<path class="st0" d="M3.3,7.6c0,0,0.2-0.7,0.2-0.9c0.1-0.2,0.6-2.1-0.8-2c-1.5,0.1-1,1.6-0.8,2.6c0.2,1-0.5,1.7-0.7,2.3
	c-0.2,0.6-0.7,1.4,0.5,5.6C3,19.6,2.4,21.6,2.5,24c0.2,2.4,1.1,4.1,3.8,4c2.7-0.1,3.3-2.2,3.1-4.3c-0.2-2.1-1.1-3.3-1.1-5.8
	c0-2.5,0.5-3.3,2.1-5.2"/>
<path class="st0" d="M10.1,6C8.9,5.7,8.3,5.8,7.6,6.2C7,6.5,6.4,7.2,6.2,8.6"/>
<path class="st0" d="M8.4,2.1c0.1-0.3,0.2-0.5,0.4-0.7C9.1,1.2,9.4,1.1,9.6,1c0.6-0.1,2,0.8,1.6,2.7c-0.4,2-0.4,1.8,0,2.7
	c0.4,0.9,1.4,3.1,0.3,5.1c-1.1,2-3.2,2-4.9,2.2"/>
</svg>
