<svg width="29" height="13" viewBox="0 0 29 13" fill="none" xmlns="http://www.w3.org/2000/svg">
<path d="M23.1787 8.38315C23.207 8.38315 23.2354 8.35805 23.2638 8.34864C23.2906 8.33683 23.3179 8.32637 23.3458 8.31729C23.3713 8.306 23.3977 8.29656 23.4246 8.28905C23.4494 8.28029 23.4746 8.27297 23.5002 8.2671C23.5251 8.26034 23.5504 8.2551 23.5759 8.25142C23.6234 8.24 23.6721 8.23474 23.7209 8.23574C23.745 8.23258 23.7694 8.23258 23.7934 8.23574C23.8186 8.23418 23.8439 8.23418 23.8691 8.23574C23.8933 8.2345 23.9175 8.2345 23.9416 8.23574L24.0173 8.25455C24.0441 8.26103 24.0705 8.26941 24.0961 8.27964C24.1227 8.29198 24.15 8.30246 24.1781 8.31101C24.2033 8.31101 24.2317 8.3361 24.26 8.35178L24.3483 8.39883C24.3797 8.41607 24.4103 8.43492 24.4397 8.45529L24.5501 8.51802C24.5899 8.53824 24.631 8.55605 24.673 8.57134L24.8054 8.61838C24.8527 8.61838 24.8969 8.64661 24.9473 8.65916C24.9978 8.67171 25.045 8.68111 25.0955 8.68739C25.1459 8.69366 25.1964 8.7062 25.2468 8.71247C25.2973 8.71875 25.3509 8.71248 25.4045 8.72816C25.458 8.74384 25.5116 8.72816 25.5621 8.72816C25.6125 8.72816 25.6693 8.72816 25.7197 8.72816C25.7702 8.72816 25.8269 8.72816 25.8774 8.72816C25.9278 8.72816 25.9814 8.72816 26.0318 8.70934C26.0823 8.69053 26.1327 8.69052 26.18 8.67798C26.2273 8.66543 26.2746 8.64975 26.3219 8.6372C26.3683 8.6227 26.4136 8.60488 26.4574 8.58388C26.4997 8.56547 26.5407 8.54453 26.5804 8.52116C26.619 8.50005 26.6559 8.47593 26.6907 8.44901C26.7203 8.42767 26.7478 8.40351 26.7727 8.37688C26.8026 8.34914 26.831 8.31982 26.8578 8.28905L26.9429 8.18555L27.0249 8.06951L27.0974 7.94405L27.1573 7.80917C27.1764 7.76221 27.1922 7.71401 27.2046 7.6649C27.2174 7.61751 27.2269 7.56931 27.233 7.52063C27.2361 7.47049 27.2361 7.42021 27.233 7.37007C27.2326 7.32036 27.2262 7.27088 27.2141 7.22266C27.202 7.17203 27.1851 7.12267 27.1636 7.07525C27.1413 7.0255 27.1138 6.97821 27.0817 6.93411C27.0472 6.88459 27.0081 6.83839 26.965 6.79611C26.9147 6.75063 26.8621 6.7077 26.8074 6.66751C26.742 6.62397 26.6735 6.58519 26.6025 6.55146C26.5217 6.51087 26.4385 6.47526 26.3534 6.44482" stroke="#C4C4C4" stroke-linecap="round"/>
<path d="M22.8161 6.54533L22.8917 6.5171C22.9174 6.51016 22.9427 6.50179 22.9674 6.49202C22.9958 6.49202 23.021 6.47633 23.0462 6.47006C23.0731 6.46128 23.1005 6.45395 23.1282 6.4481L23.2102 6.42928C23.2385 6.42928 23.2638 6.42928 23.2921 6.42928L23.3773 6.42928C23.4056 6.42773 23.434 6.42773 23.4624 6.42928L23.5475 6.42928C23.5759 6.42928 23.6042 6.42928 23.6326 6.42928L23.7177 6.42928C23.7461 6.42928 23.7745 6.42929 23.7997 6.44497C23.8284 6.45082 23.8569 6.45814 23.8848 6.46692C23.9127 6.47342 23.9401 6.48181 23.9668 6.49202C23.9952 6.49202 24.0235 6.51397 24.0488 6.52651C24.074 6.53906 24.1024 6.55161 24.1307 6.56729C24.1591 6.58297 24.1906 6.59865 24.2253 6.61433C24.26 6.63002 24.2915 6.64256 24.3262 6.65511L24.4397 6.69274C24.4775 6.69274 24.5185 6.71157 24.5595 6.72411C24.6005 6.73666 24.6415 6.7398 24.6856 6.74921C24.7297 6.75862 24.7707 6.7492 24.8149 6.76489C24.859 6.78057 24.9031 6.76489 24.9473 6.76489C24.9914 6.76489 25.0387 6.76489 25.0828 6.76489L25.2153 6.76489L25.3508 6.76489C25.395 6.76489 25.4359 6.76489 25.4801 6.74607C25.5242 6.72725 25.5652 6.74607 25.6062 6.72411C25.6472 6.70216 25.6881 6.70529 25.726 6.69274C25.7638 6.6802 25.8016 6.66766 25.8395 6.65198C25.8773 6.6363 25.9088 6.62061 25.9435 6.60492C25.9782 6.58924 26.0066 6.57043 26.0381 6.55161L26.1075 6.49516L26.1768 6.42615L26.243 6.34146L26.3029 6.2505L26.3565 6.147C26.3734 6.11277 26.3871 6.07708 26.3975 6.04037L26.429 5.92745C26.432 5.88882 26.432 5.85003 26.429 5.8114C26.4338 5.77182 26.4338 5.7318 26.429 5.69222C26.4197 5.60959 26.394 5.52963 26.3534 5.45698C26.3307 5.41694 26.3044 5.37914 26.2745 5.34407C26.242 5.30546 26.2062 5.26978 26.1674 5.23744C26.1232 5.20021 26.0769 5.16564 26.0286 5.13393C25.9719 5.10256 25.912 5.0712 25.8521 5.04298C25.7922 5.01475 25.7134 4.98652 25.6409 4.96143" stroke="#C4C4C4" stroke-linecap="round"/>
<path d="M22.3496 4.98346C22.3715 4.97492 22.3926 4.96442 22.4126 4.95209L22.4788 4.92701L22.545 4.90818C22.5657 4.90148 22.5867 4.89624 22.6081 4.8925C22.6301 4.89101 22.6523 4.89101 22.6743 4.8925C22.6964 4.8925 22.7184 4.8925 22.7374 4.8925L22.8004 4.8925C22.8224 4.89095 22.8446 4.89095 22.8666 4.8925L22.9328 4.8925C22.9552 4.89624 22.9773 4.90148 22.999 4.90818C23.0227 4.91361 23.0459 4.92096 23.0684 4.93014C23.092 4.93715 23.1151 4.94553 23.1377 4.95523C23.1614 4.96438 23.1846 4.97484 23.2071 4.98659C23.2319 4.9968 23.2561 5.00833 23.2796 5.0211L23.3521 5.065C23.3777 5.07845 23.402 5.0942 23.4246 5.11206C23.4571 5.13478 23.4908 5.15572 23.5255 5.17478C23.5603 5.19442 23.5961 5.21223 23.6327 5.2281C23.6705 5.2281 23.7084 5.25633 23.7462 5.26888C23.784 5.28143 23.825 5.29397 23.866 5.30338C23.907 5.31278 23.948 5.31906 23.989 5.32533C24.0299 5.33161 24.0709 5.32533 24.1119 5.32533C24.1529 5.32533 24.1939 5.32533 24.2349 5.32533C24.2758 5.32533 24.32 5.32533 24.361 5.32533C24.402 5.32533 24.4429 5.32533 24.4808 5.32533C24.5186 5.32533 24.5596 5.32533 24.6006 5.30965C24.6416 5.29396 24.6762 5.29397 24.7141 5.28456L24.8244 5.25633L24.9253 5.21869L25.0199 5.17792C25.0482 5.16224 25.0766 5.14655 25.105 5.12774L25.1775 5.07755C25.215 5.05172 25.2498 5.0223 25.2815 4.98973C25.3163 4.95719 25.348 4.92149 25.3761 4.88309C25.4043 4.8453 25.4296 4.80546 25.4518 4.76391C25.4757 4.72077 25.4957 4.67565 25.5117 4.62904C25.5301 4.58241 25.5438 4.53409 25.5527 4.48477C25.5623 4.4361 25.5686 4.38685 25.5716 4.33735C25.5764 4.28833 25.5764 4.23896 25.5716 4.18994C25.5649 4.13979 25.5533 4.09042 25.5369 4.04252C25.5187 3.99379 25.4965 3.94659 25.4707 3.90138C25.4406 3.8541 25.4057 3.80997 25.3667 3.76965C25.3251 3.72692 25.2798 3.68806 25.2311 3.6536C25.1752 3.6153 25.1161 3.58174 25.0546 3.55324C24.9844 3.52109 24.9116 3.49486 24.837 3.47483C24.7501 3.45004 24.6617 3.43117 24.5722 3.41836C24.4678 3.40249 24.3625 3.39306 24.2569 3.39014" stroke="#C4C4C4" stroke-linecap="round"/>
<path d="M21.4572 3.34633C21.4572 3.34633 22.1665 3.50315 22.3462 3.56275C22.5259 3.62234 24.4333 4.20886 24.3166 2.741C24.2 1.27314 22.6993 1.74047 21.6747 1.95688C20.6501 2.1733 19.9313 1.45505 19.3512 1.28882C18.7711 1.12258 17.9703 0.564294 13.7143 1.7781C9.45818 2.99191 7.44993 2.36776 5.00663 2.52458C2.56332 2.6814 0.908174 3.62234 0.98699 6.36673C1.06581 9.11113 3.15286 9.61924 5.28091 9.42478C7.40895 9.23032 8.55336 8.32702 11.0755 8.36465C13.5976 8.40229 14.3448 8.83512 16.3152 10.4818" stroke="#C4C4C4" stroke-linecap="round"/>
<path d="M23.0553 10.0892C23.3485 8.94444 23.1908 8.28579 22.8567 7.6585C22.5225 7.03121 21.8131 6.3851 20.4323 6.1875" stroke="#C4C4C4" stroke-linecap="round"/>
<path d="M26.8798 8.46487C27.1562 8.5485 27.4056 8.70291 27.6031 8.91263C27.8007 9.12235 27.9393 9.38003 28.0053 9.65985C28.1219 10.2871 27.2549 11.6578 25.2845 11.2469C23.3141 10.836 23.4528 10.8737 22.5449 11.2469C21.6369 11.6201 19.4143 12.6207 17.4628 11.501C15.5113 10.3812 15.4735 8.30804 15.2938 6.56103" stroke="#C4C4C4" stroke-linecap="round"/>
</svg>
