<svg width="89" height="93" viewBox="0 0 89 93" fill="none" xmlns="http://www.w3.org/2000/svg">
<path d="M36.5348 25.1674C36.5348 25.096 36.4716 25.0247 36.448 24.9533C36.4182 24.8859 36.3919 24.8171 36.3691 24.7471C36.3407 24.6828 36.3169 24.6165 36.298 24.5488C36.276 24.4865 36.2576 24.4229 36.2428 24.3585C36.2258 24.2959 36.2126 24.2323 36.2034 24.1681C36.1747 24.0487 36.1614 23.9261 36.1639 23.8033C36.156 23.7428 36.156 23.6814 36.1639 23.6209C36.16 23.5575 36.16 23.4939 36.1639 23.4306C36.1608 23.3698 36.1608 23.3089 36.1639 23.2481L36.2113 23.0578C36.2276 22.9903 36.2486 22.924 36.2744 22.8595C36.3054 22.7927 36.3318 22.7238 36.3533 22.6533C36.3533 22.5899 36.4164 22.5185 36.4559 22.4471L36.5742 22.2251C36.6176 22.146 36.665 22.0692 36.7162 21.9951L36.874 21.7175C36.9249 21.6172 36.9697 21.5139 37.0082 21.4082L37.1265 21.0751C37.1265 20.9561 37.1975 20.8451 37.2291 20.7182C37.2607 20.5913 37.2843 20.4723 37.3001 20.3455C37.3159 20.2186 37.3474 20.0917 37.3632 19.9648C37.379 19.8379 37.3632 19.703 37.4027 19.5682C37.4421 19.4334 37.4027 19.2986 37.4027 19.1717C37.4027 19.0448 37.4027 18.902 37.4027 18.7751C37.4027 18.6482 37.4027 18.5055 37.4027 18.3786C37.4027 18.2517 37.4027 18.1169 37.3553 17.99C37.308 17.8631 37.308 17.7362 37.2764 17.6172C37.2449 17.4983 37.2054 17.3793 37.1739 17.2604C37.1374 17.1436 37.0925 17.0296 37.0397 16.9193C36.9934 16.8131 36.9407 16.7098 36.8819 16.61C36.8288 16.5128 36.7682 16.42 36.7004 16.3324C36.6467 16.258 36.586 16.1889 36.519 16.1262C36.4492 16.0509 36.3754 15.9795 36.298 15.9121L36.0377 15.698L35.7458 15.4918L35.4302 15.3094L35.0909 15.1587C34.9727 15.1107 34.8515 15.071 34.7279 15.0397C34.6087 15.0076 34.4875 14.9837 34.365 14.9683C34.2389 14.9604 34.1124 14.9604 33.9863 14.9683C33.8612 14.9694 33.7367 14.9853 33.6154 15.0159C33.4881 15.0462 33.3639 15.0887 33.2446 15.1428C33.1195 15.199 33.0005 15.2681 32.8895 15.349C32.765 15.4357 32.6487 15.534 32.5424 15.6425C32.428 15.7691 32.32 15.9014 32.2189 16.039C32.1094 16.2036 32.0118 16.3758 31.927 16.5545C31.8248 16.7576 31.7353 16.9669 31.6587 17.181" stroke="#0057FF" stroke-linecap="round"/>
<path d="M31.9108 26.0797L31.8397 25.8894C31.8223 25.8248 31.8012 25.7613 31.7766 25.699C31.7766 25.6277 31.7372 25.5642 31.7214 25.5008C31.6993 25.4331 31.6809 25.3642 31.6662 25.2946L31.6188 25.0884C31.6188 25.017 31.6188 24.9535 31.6188 24.8822V24.668C31.6149 24.5967 31.6149 24.5252 31.6188 24.4539V24.2398C31.6188 24.1684 31.6188 24.097 31.6188 24.0256V23.8115C31.6188 23.7401 31.6188 23.6688 31.6583 23.6053C31.673 23.533 31.6914 23.4615 31.7135 23.3912C31.7299 23.3211 31.751 23.2522 31.7766 23.185C31.7766 23.1136 31.8319 23.0422 31.8634 22.9788C31.895 22.9153 31.9265 22.8439 31.966 22.7726C32.0054 22.7012 32.0449 22.6219 32.0843 22.5346C32.1238 22.4474 32.1554 22.3681 32.1869 22.2809L32.2816 21.9953C32.2816 21.9002 32.3289 21.7971 32.3605 21.694C32.3921 21.5909 32.4 21.4878 32.4236 21.3767C32.4473 21.2657 32.4236 21.1626 32.4631 21.0516C32.5025 20.9405 32.4631 20.8295 32.4631 20.7185C32.4631 20.6074 32.4631 20.4885 32.4631 20.3774V20.0443V19.7033C32.4631 19.5923 32.4631 19.4892 32.4157 19.3782C32.3684 19.2671 32.4157 19.164 32.3605 19.0609C32.3053 18.9578 32.3132 18.8547 32.2816 18.7596C32.25 18.6644 32.2185 18.5692 32.179 18.474C32.1396 18.3789 32.1001 18.2996 32.0607 18.2123C32.0212 18.1251 31.9739 18.0537 31.9266 17.9744L31.7845 17.7999L31.611 17.6254L31.3979 17.4589L31.1691 17.3082L30.9087 17.1734C30.8226 17.1309 30.7328 17.0964 30.6405 17.0703L30.3564 16.991C30.2592 16.9836 30.1617 16.9836 30.0645 16.991C29.9649 16.9789 29.8642 16.9789 29.7646 16.991C29.5568 17.0144 29.3556 17.0791 29.1729 17.1813C29.0722 17.2382 28.9771 17.3046 28.8889 17.3796C28.7917 17.4614 28.702 17.5516 28.6206 17.6492C28.5269 17.7602 28.44 17.8767 28.3602 17.9982C28.2813 18.1409 28.2024 18.2916 28.1314 18.4423C28.0604 18.593 27.9894 18.7913 27.9263 18.9737" stroke="#0057FF" stroke-linecap="round"/>
<path d="M27.9821 27.254C27.9606 27.1989 27.9342 27.1458 27.9032 27.0954L27.84 26.9289L27.7927 26.7623C27.7758 26.7105 27.7627 26.6575 27.7532 26.6037C27.7495 26.5483 27.7495 26.4926 27.7532 26.4372C27.7532 26.3817 27.7532 26.3261 27.7532 26.2786V26.1199C27.7493 26.0645 27.7493 26.0088 27.7532 25.9534V25.7868C27.7626 25.7305 27.7758 25.6749 27.7927 25.6203C27.8063 25.5607 27.8248 25.5024 27.8479 25.4458C27.8655 25.3865 27.8866 25.3282 27.911 25.2713C27.9341 25.2117 27.9604 25.1535 27.9899 25.0969C28.0156 25.0345 28.0446 24.9737 28.0767 24.9144L28.1872 24.732C28.221 24.6677 28.2606 24.6067 28.3056 24.5496C28.3627 24.468 28.4154 24.3833 28.4633 24.2958C28.5128 24.2084 28.5575 24.1184 28.5975 24.0262C28.5975 23.931 28.6685 23.8359 28.7001 23.7407C28.7316 23.6455 28.7632 23.5424 28.7868 23.4393C28.8105 23.3362 28.8263 23.2331 28.8421 23.13C28.8579 23.0269 28.8421 22.9238 28.8421 22.8207C28.8421 22.7176 28.8421 22.6145 28.8421 22.5114C28.8421 22.4083 28.8421 22.2973 28.8421 22.1942C28.8421 22.0911 28.8421 21.988 28.8421 21.8928C28.8421 21.7976 28.8421 21.6945 28.8026 21.5914C28.7632 21.4883 28.7632 21.4011 28.7395 21.3059L28.6685 21.0283L28.5738 20.7745L28.4712 20.5366C28.4318 20.4652 28.3923 20.3939 28.345 20.3225L28.2188 20.1401C28.1538 20.0458 28.0798 19.9582 27.9978 19.8784C27.916 19.7908 27.8262 19.7112 27.7296 19.6404C27.6345 19.5695 27.5343 19.5059 27.4297 19.4501C27.3212 19.39 27.2077 19.3396 27.0905 19.2994C26.9732 19.2531 26.8516 19.2186 26.7275 19.1963C26.6051 19.1722 26.4812 19.1563 26.3567 19.1487C26.2334 19.1366 26.1092 19.1366 25.9859 19.1487C25.8597 19.1656 25.7355 19.1948 25.615 19.236C25.4924 19.2818 25.3737 19.3375 25.26 19.4025C25.141 19.4783 25.03 19.566 24.9286 19.6642C24.8211 19.7687 24.7233 19.8828 24.6366 20.0053C24.5403 20.146 24.4559 20.2945 24.3842 20.4494C24.3033 20.6259 24.2373 20.809 24.1869 20.9966C24.1246 21.2152 24.0771 21.4378 24.0449 21.6628C24.0049 21.9254 23.9812 22.1903 23.9739 22.4559" stroke="#0057FF" stroke-linecap="round"/>
<path d="M23.8631 29.4982C23.8631 29.4982 24.2576 27.7137 24.4076 27.2617C24.5575 26.8096 26.0329 22.0115 22.3404 22.3049C18.6478 22.5984 19.8234 26.3734 20.3678 28.951C20.9123 31.5285 19.1054 33.3367 18.6872 34.796C18.2691 36.2553 16.8646 38.2697 19.9181 48.9763C22.9716 59.683 21.4014 64.7349 21.7959 70.8814C22.1904 77.0278 24.5575 81.1915 31.4613 80.9932C38.3651 80.7949 39.6433 75.5447 39.1541 70.1914C38.665 64.838 36.3926 61.9591 36.4873 55.6145C36.582 49.2698 37.6708 47.3902 41.8131 42.4334" stroke="#0057FF" stroke-linecap="round"/>
<path d="M40.827 25.4773C37.9471 24.7397 36.2902 25.1362 34.7122 25.9769C33.1342 26.8176 31.5088 28.602 31.0117 32.0757" stroke="#0057FF" stroke-linecap="round"/>
<path d="M36.74 15.8574C36.9504 15.1621 37.3388 14.5346 37.8664 14.0377C38.394 13.5408 39.0422 13.1919 39.7461 13.026C41.3241 12.7326 44.7721 14.9136 43.7385 19.8704C42.7049 24.8271 42.7996 24.4782 43.7385 26.7623C44.6774 29.0464 47.1943 34.6376 44.3776 39.5468C41.5608 44.456 36.3455 44.5512 31.9507 45.0032" stroke="#0057FF" stroke-linecap="round"/>
<path d="M63.391 64.1152L52.5642 64.1152C52.2881 64.1152 52.0642 63.8914 52.0642 63.6152L52.0642 51.9348C52.0642 51.6587 51.8404 51.4348 51.5642 51.4348L46.9593 51.4348C46.5145 51.4348 46.2911 50.8975 46.6049 50.5822L58.0174 39.1107C58.2128 38.9142 58.5308 38.9142 58.7263 39.1107L70.1388 50.5822C70.4526 50.8975 70.2292 51.4348 69.7844 51.4348L64.391 51.4348C64.1149 51.4348 63.891 51.6587 63.891 51.9348L63.891 63.6152C63.891 63.8914 63.6672 64.1152 63.391 64.1152Z" stroke="#0057FF"/>
<rect x="0.5" y="0.5" width="88" height="92" rx="9.5" stroke="#0057FF"/>
</svg>
