<?xml version="1.0" encoding="utf-8"?>
<!-- Generator: Adobe Illustrator 25.0.1, SVG Export Plug-In . SVG Version: 6.00 Build 0)  -->
<svg version="1.1" id="Layer_1" xmlns="http://www.w3.org/2000/svg" xmlns:xlink="http://www.w3.org/1999/xlink" x="0px" y="0px"
	 viewBox="0 0 64 64" style="enable-background:new 0 0 64 64;" xml:space="preserve">
<style type="text/css">
	.st0{fill:#2E4353;}
</style>
<g>
	<path class="st0" d="M49.2,51.2c1.9,0,2.1,0.4,2.1,2.2v3.2c0,1.5-0.4,2.1-2.1,2.1H23.6c-0.6,0-1.1,0.2-1.7,0.6
		c-2.4,1.3-4.9,3-7.3,4.3c-1.5,0.9-2.1,0.6-2.1-1.1v-9.9c0-1.1,0.4-1.5,1.5-1.3C20.2,51,43.6,51.2,49.2,51.2z"/>
	<path class="st0" d="M36.7,7.3H24c-0.6,0-1.1,0.2-1.7,0.6c-2.4,1.3-4.9,3-7.3,4.3c-0.4,0.2-0.8,0.4-1.3,0.6
		c-0.6,0.2-0.9-0.2-0.9-0.9c0-3.7,0.2-7.3,0.2-11C13-0.2,13.5,0,14.3,0h10.6c8.2,0,16.6,0.2,24.8,0.2c1.3,0,1.7,0.4,1.7,1.7v3.5
		c0,1.5-0.4,2.1-1.9,2.1h-9.1C39.1,7.5,37.8,7.5,36.7,7.3L36.7,7.3z"/>
	<path class="st0" d="M49.2,25c2.1,0,2.2,0.4,2.2,2.2v3.4v0.2c0,0.8-0.6,1.5-1.3,1.5h-1.5c-8.2,0-16.2-0.2-24.5-0.2
		c-0.6,0-1.3,0.2-1.9,0.4c-2.2,1.3-4.7,3-6.9,4.3l-0.9,0.6c-0.9,0.4-1.5,0-1.5-1.1c0-3.5,0.2-7.1,0.2-10.8c0-0.9,0.6-1.1,1.3-1.1
		c2.6,0.2,5.2,0.2,8,0.4C25.5,25.2,43.4,25,49.2,25z"/>
</g>
</svg>
