<?xml version="1.0" encoding="utf-8"?>
<!-- Generator: Adobe Illustrator 25.0.1, SVG Export Plug-In . SVG Version: 6.00 Build 0)  -->
<svg version="1.1" id="Layer_1" xmlns="http://www.w3.org/2000/svg" xmlns:xlink="http://www.w3.org/1999/xlink" x="0px" y="0px"
	 viewBox="0 0 512 512" style="enable-background:new 0 0 512 512;" xml:space="preserve">
<style type="text/css">
	.st0{fill:#2E4353;}
</style>
<g>
	<path class="st0" d="M363.1,375.6c11.6,0,12.8,2.3,12.8,14v19.8c0,9.3-2.3,12.8-12.8,12.8H203.6c-3.5,0-7,1.2-10.5,3.5
		c-15.1,8.1-30.3,18.6-45.4,26.8c-9.3,5.8-12.8,3.5-12.8-7v-61.7c0-7,2.3-9.3,9.3-8.1C182.7,374.4,328.2,375.6,363.1,375.6z"/>
	<path class="st0" d="M285.1,102h-79.2c-3.5,0-7,1.2-10.5,3.5c-15.1,8.1-30.3,18.6-45.4,26.8c-2.3,1.2-4.7,2.3-8.1,3.5
		c-3.5,1.2-5.8-1.2-5.8-5.8c0-23.3,1.2-45.4,1.2-68.7c0-5.8,3.5-4.7,8.1-4.7h66.4c51.2,0,103.6,1.2,154.8,1.2
		c8.1,0,10.5,2.3,10.5,10.5v22.1c0,9.3-2.3,12.8-11.6,12.8h-57C300.2,103.2,292.1,103.2,285.1,102L285.1,102z"/>
	<path class="st0" d="M363.1,212.6c12.8,0,14,2.3,14,14v21v1.2c0,4.7-3.5,9.3-8.1,9.3h-9.3c-51.2,0-101.3-1.2-152.5-1.2
		c-3.5,0-8.1,1.2-11.6,2.3c-14,8.1-29.1,18.6-43.1,26.8l-5.8,3.5c-5.8,2.3-9.3,0-9.3-7c0-22.1,1.2-44.2,1.2-67.5c0-5.8,3.5-7,8.1-7
		c16.3,1.2,32.6,1.2,50.1,2.3C215.3,213.7,327,212.6,363.1,212.6z"/>
</g>
</svg>
